<svg width="16" height="16" viewBox="0 0 16 16" fill="none" xmlns="http://www.w3.org/2000/svg">
<path fill-rule="evenodd" clip-rule="evenodd" d="M9.47556 5.17494C9.47556 6.93745 8.03328 8.34988 6.23354 8.34988C4.43445 8.34988 2.99152 6.93745 2.99152 5.17494C2.99152 3.41243 4.43445 2 6.23354 2C8.03328 2 9.47556 3.41243 9.47556 5.17494ZM1.33398 11.9449C1.33398 10.3134 3.591 9.90516 6.23354 9.90516C8.89043 9.90516 11.1331 10.3274 11.1331 11.9602C11.1331 13.5918 8.87608 14 6.23354 14C3.57665 14 1.33398 13.5777 1.33398 11.9449ZM10.7829 5.2325C10.7829 6.13004 10.5077 6.96754 10.0249 7.66321C9.97471 7.73476 10.0191 7.83122 10.1065 7.84656C10.2278 7.86636 10.3524 7.8785 10.4796 7.88105C11.7451 7.91363 12.8808 7.11574 13.1945 5.91412C13.6597 4.13117 12.295 2.53029 10.5566 2.53029C10.3681 2.53029 10.1874 2.54945 10.0112 2.58459C9.9871 2.5897 9.96101 2.60119 9.94797 2.62164C9.931 2.64783 9.9434 2.68169 9.96036 2.70404C10.4829 3.42144 10.7829 4.29471 10.7829 5.2325ZM12.8788 9.13487C13.7294 9.29777 14.2885 9.62931 14.5201 10.1129C14.7164 10.509 14.7164 10.9689 14.5201 11.365C14.1658 12.1137 13.023 12.3545 12.5788 12.4165C12.4868 12.4293 12.4131 12.3526 12.4229 12.2619C12.6499 10.187 10.8449 9.20322 10.3778 8.97708C10.3583 8.96622 10.3537 8.95089 10.3557 8.94066C10.357 8.93428 10.3654 8.92405 10.3805 8.92214C11.3909 8.90297 12.4777 9.03904 12.8788 9.13487Z" fill="#9E9E9E"/>
</svg>
