<svg width="21" height="21" viewBox="0 0 21 21" fill="none" xmlns="http://www.w3.org/2000/svg">
<path fill-rule="evenodd" clip-rule="evenodd" d="M8.41602 10.9616C10.7115 10.9616 12.5515 9.09771 12.5515 6.77253C12.5515 4.44735 10.7115 2.5835 8.41602 2.5835C6.12054 2.5835 4.28049 4.44735 4.28049 6.77253C4.28049 9.09771 6.12054 10.9616 8.41602 10.9616ZM8.41602 13.0128C5.04454 13.0128 2.16602 13.5519 2.16602 15.7055C2.16602 17.8583 5.02702 18.4168 8.41602 18.4168C11.7867 18.4168 14.666 17.8778 14.666 15.7241C14.666 13.5705 11.805 13.0128 8.41602 13.0128ZM17.081 8.49005H18.0835C18.4962 8.49005 18.8327 8.83125 18.8327 9.24973C18.8327 9.6682 18.4962 10.0094 18.0835 10.0094H17.081V10.9905C17.081 11.409 16.7454 11.7502 16.3318 11.7502C15.9192 11.7502 15.5827 11.409 15.5827 10.9905V10.0094H14.5818C14.1683 10.0094 13.8327 9.6682 13.8327 9.24973C13.8327 8.83125 14.1683 8.49005 14.5818 8.49005H15.5827V7.50984C15.5827 7.09137 15.9192 6.75016 16.3318 6.75016C16.7454 6.75016 17.081 7.09137 17.081 7.50984V8.49005Z" fill="white"/>
</svg>
