<svg width="32" height="25" viewBox="0 0 32 25" fill="none" xmlns="http://www.w3.org/2000/svg">
<mask id="mask0_1062_24537" style="mask-type:alpha" maskUnits="userSpaceOnUse" x="0" y="0" width="32" height="25">
<rect y="0.666748" width="32" height="24" fill="white"/>
</mask>
<g mask="url(#mask0_1062_24537)">
<path fill-rule="evenodd" clip-rule="evenodd" d="M0 4.66675C0 2.45761 1.79086 0.666748 4 0.666748H28C30.2091 0.666748 32 2.45761 32 4.66675V20.6667C32 22.8759 30.2091 24.6667 28 24.6667H4C1.79086 24.6667 0 22.8759 0 20.6667V4.66675Z" fill="#F7FCFF"/>
<path fill-rule="evenodd" clip-rule="evenodd" d="M0 15.3335V17.3335H32V15.3335H0Z" fill="#E31D1C"/>
<path fill-rule="evenodd" clip-rule="evenodd" d="M0 19V21H32V19H0Z" fill="#E31D1C"/>
<path fill-rule="evenodd" clip-rule="evenodd" d="M0 8V10H32V8H0Z" fill="#E31D1C"/>
<path fill-rule="evenodd" clip-rule="evenodd" d="M0 22.6667V24.6667H32V22.6667H0Z" fill="#E31D1C"/>
<path fill-rule="evenodd" clip-rule="evenodd" d="M0 11.6667V13.6667H32V11.6667H0Z" fill="#E31D1C"/>
<path fill-rule="evenodd" clip-rule="evenodd" d="M0 0.666748V2.66675H32V0.666748H0Z" fill="#E31D1C"/>
<path fill-rule="evenodd" clip-rule="evenodd" d="M0 4.3335V6.3335H32V4.3335H0Z" fill="#E31D1C"/>
<rect y="0.666748" width="20" height="13" fill="#2E42A5"/>
<path fill-rule="evenodd" clip-rule="evenodd" d="M5.72122 3.6057L4.99534 4.11459L5.2404 3.20898L4.59569 2.63506H5.43778L5.7202 1.896L6.05138 2.63506H6.76923L6.2052 3.20898L6.42356 4.11459L5.72122 3.6057ZM1.72123 3.60576L0.995355 4.11465L1.24042 3.20904L0.595703 2.63512H1.43779L1.72022 1.89606L2.05139 2.63512H2.76925L2.20521 3.20904L2.42357 4.11465L1.72123 3.60576ZM8.99537 4.11459L9.72125 3.6057L10.4236 4.11459L10.2052 3.20898L10.7693 2.63506H10.0514L9.72023 1.896L9.43781 2.63506H8.59572L9.24043 3.20898L8.99537 4.11459ZM13.7212 3.6057L12.9954 4.11459L13.2404 3.20898L12.5957 2.63506H13.4378L13.7202 1.896L14.0514 2.63506H14.7692L14.2052 3.20898L14.4236 4.11459L13.7212 3.6057ZM0.995355 8.11471L1.72123 7.60582L2.42357 8.11471L2.20521 7.2091L2.76925 6.63519H2.05139L1.72022 5.89612L1.43779 6.63519H0.595703L1.24042 7.2091L0.995355 8.11471ZM5.72122 7.60582L4.99534 8.11471L5.2404 7.2091L4.59569 6.63519H5.43778L5.7202 5.89612L6.05138 6.63519H6.76923L6.2052 7.2091L6.42356 8.11471L5.72122 7.60582ZM8.99537 8.11471L9.72125 7.60582L10.4236 8.11471L10.2052 7.2091L10.7693 6.63519H10.0514L9.72023 5.89612L9.43781 6.63519H8.59572L9.24043 7.2091L8.99537 8.11471ZM13.7212 7.60582L12.9954 8.11471L13.2404 7.2091L12.5957 6.63519H13.4378L13.7202 5.89612L14.0514 6.63519H14.7692L14.2052 7.2091L14.4236 8.11471L13.7212 7.60582ZM0.995355 12.1146L1.72123 11.6058L2.42357 12.1146L2.20521 11.209L2.76925 10.6351H2.05139L1.72022 9.89606L1.43779 10.6351H0.595703L1.24042 11.209L0.995355 12.1146ZM5.72122 11.6058L4.99534 12.1146L5.2404 11.209L4.59569 10.6351H5.43778L5.7202 9.89606L6.05138 10.6351H6.76923L6.2052 11.209L6.42356 12.1146L5.72122 11.6058ZM8.99537 12.1146L9.72125 11.6058L10.4236 12.1146L10.2052 11.209L10.7693 10.6351H10.0514L9.72023 9.89606L9.43781 10.6351H8.59572L9.24043 11.209L8.99537 12.1146ZM13.7212 11.6058L12.9954 12.1146L13.2404 11.209L12.5957 10.6351H13.4378L13.7202 9.89606L14.0514 10.6351H14.7692L14.2052 11.209L14.4236 12.1146L13.7212 11.6058ZM16.9953 4.11459L17.7212 3.6057L18.4236 4.11459L18.2052 3.20898L18.7692 2.63506H18.0514L17.7202 1.896L17.4378 2.63506H16.5957L17.2404 3.20898L16.9953 4.11459ZM17.7212 7.60582L16.9953 8.11471L17.2404 7.2091L16.5957 6.63519H17.4378L17.7202 5.89612L18.0514 6.63519H18.7692L18.2052 7.2091L18.4236 8.11471L17.7212 7.60582ZM16.9953 12.1146L17.7212 11.6058L18.4236 12.1146L18.2052 11.209L18.7692 10.6351H18.0514L17.7202 9.89606L17.4378 10.6351H16.5957L17.2404 11.209L16.9953 12.1146ZM3.72125 5.60576L2.99537 6.11465L3.24043 5.20904L2.59572 4.63512H3.43781L3.72023 3.89606L4.05141 4.63512H4.76926L4.20523 5.20904L4.42359 6.11465L3.72125 5.60576ZM6.99535 6.11465L7.72123 5.60576L8.42357 6.11465L8.20521 5.20904L8.76925 4.63512H8.05139L7.72022 3.89606L7.43779 4.63512H6.5957L7.24042 5.20904L6.99535 6.11465ZM11.7212 5.60576L10.9953 6.11465L11.2404 5.20904L10.5957 4.63512H11.4378L11.7202 3.89606L12.0514 4.63512H12.7692L12.2052 5.20904L12.4236 6.11465L11.7212 5.60576ZM2.99537 10.1146L3.72125 9.6057L4.42359 10.1146L4.20523 9.20898L4.76926 8.63506H4.05141L3.72023 7.896L3.43781 8.63506H2.59572L3.24043 9.20898L2.99537 10.1146ZM7.72123 9.6057L6.99535 10.1146L7.24042 9.20898L6.5957 8.63506H7.43779L7.72022 7.896L8.05139 8.63506H8.76925L8.20521 9.20898L8.42357 10.1146L7.72123 9.6057ZM10.9953 10.1146L11.7212 9.6057L12.4236 10.1146L12.2052 9.20898L12.7692 8.63506H12.0514L11.7202 7.896L11.4378 8.63506H10.5957L11.2404 9.20898L10.9953 10.1146ZM15.7212 5.60576L14.9954 6.11465L15.2404 5.20904L14.5957 4.63512H15.4378L15.7202 3.89606L16.0514 4.63512H16.7693L16.2052 5.20904L16.4236 6.11465L15.7212 5.60576ZM14.9954 10.1146L15.7212 9.6057L16.4236 10.1146L16.2052 9.20898L16.7693 8.63506H16.0514L15.7202 7.896L15.4378 8.63506H14.5957L15.2404 9.20898L14.9954 10.1146Z" fill="#F7FCFF"/>
</g>
</svg>
