<svg width="380" height="46" viewBox="0 0 380 46" fill="none" xmlns="http://www.w3.org/2000/svg">
<rect y="15" width="4" height="16" fill="#EEEEEE"/>
<rect x="5" y="9" width="4" height="28" fill="#EEEEEE"/>
<rect x="10" y="5" width="4" height="36" fill="#EEEEEE"/>
<rect x="15" y="9" width="4" height="28" fill="#EEEEEE"/>
<rect x="20" y="9" width="4" height="28" fill="#EEEEEE"/>
<rect x="25" y="14" width="4" height="18" fill="#EEEEEE"/>
<rect x="30" y="9" width="4" height="28" fill="#EEEEEE"/>
<rect x="35" y="5" width="4" height="36" fill="#EEEEEE"/>
<rect x="40" y="17" width="4" height="12" fill="#EEEEEE"/>
<rect x="45" y="14" width="4" height="18" fill="#EEEEEE"/>
<rect x="50" y="15" width="4" height="16" fill="#EEEEEE"/>
<rect x="55" y="5" width="4" height="36" fill="#EEEEEE"/>
<rect x="60" y="9" width="4" height="28" fill="#EEEEEE"/>
<rect x="65" y="5" width="4" height="36" fill="#EEEEEE"/>
<rect x="70" y="5" width="4" height="36" fill="#EEEEEE"/>
<rect x="75" width="4" height="46" fill="#EEEEEE"/>
<rect x="80" y="9" width="4" height="28" fill="#EEEEEE"/>
<rect x="85" y="9" width="4" height="28" fill="#EEEEEE"/>
<rect x="90" y="9" width="4" height="28" fill="#EEEEEE"/>
<rect x="95" y="5" width="4" height="36" fill="#EEEEEE"/>
<rect x="100" y="14" width="4" height="18" fill="#EEEEEE"/>
<rect x="105" y="9" width="4" height="28" fill="#EEEEEE"/>
<rect x="110" y="9" width="4" height="28" fill="#EEEEEE"/>
<rect x="115" y="5" width="4" height="36" fill="#EEEEEE"/>
<rect x="120" y="5" width="4" height="36" fill="#EEEEEE"/>
<rect x="125" y="14" width="4" height="18" fill="#EEEEEE"/>
<rect x="130" y="17" width="4" height="12" fill="#EEEEEE"/>
<rect x="135" y="17" width="4" height="12" fill="#EEEEEE"/>
<rect x="140" y="14" width="4" height="18" fill="#EEEEEE"/>
<rect x="145" y="9" width="4" height="28" fill="#EEEEEE"/>
<rect x="150" y="15" width="4" height="16" fill="#EEEEEE"/>
<rect x="155" y="14" width="4" height="18" fill="#EEEEEE"/>
<rect x="160" y="5" width="4" height="36" fill="#EEEEEE"/>
<rect x="165" y="5" width="4" height="36" fill="#EEEEEE"/>
<rect x="170" y="9" width="4" height="28" fill="#EEEEEE"/>
<rect x="175" y="17" width="4" height="12" fill="#EEEEEE"/>
<rect x="180" y="5" width="4" height="36" fill="#EEEEEE"/>
<rect x="185" y="17" width="4" height="12" fill="#EEEEEE"/>
<rect x="190" y="5" width="4" height="36" fill="#EEEEEE"/>
<rect x="195" y="14" width="4" height="18" fill="#EEEEEE"/>
<rect x="200" width="4" height="46" fill="#EEEEEE"/>
<rect x="205" y="5" width="4" height="36" fill="#EEEEEE"/>
<rect x="210" y="9" width="4" height="28" fill="#EEEEEE"/>
<rect x="215" y="5" width="4" height="36" fill="#EEEEEE"/>
<rect x="220" y="5" width="4" height="36" fill="#EEEEEE"/>
<rect x="225" width="4" height="46" fill="#EEEEEE"/>
<rect x="230" y="9" width="4" height="28" fill="#EEEEEE"/>
<rect x="235" y="5" width="4" height="36" fill="#EEEEEE"/>
<rect x="240" y="5" width="4" height="36" fill="#EEEEEE"/>
<rect x="245" y="5" width="4" height="36" fill="#EEEEEE"/>
<rect x="250" y="14" width="4" height="18" fill="#EEEEEE"/>
<rect x="255" y="17" width="4" height="12" fill="#EEEEEE"/>
<rect x="260" y="17" width="4" height="12" fill="#EEEEEE"/>
<rect x="265" y="14" width="4" height="18" fill="#EEEEEE"/>
<rect x="270" y="9" width="4" height="28" fill="#EEEEEE"/>
<rect x="275" y="17" width="4" height="12" fill="#EEEEEE"/>
<rect x="280" y="14" width="4" height="18" fill="#EEEEEE"/>
<rect x="285" y="5" width="4" height="36" fill="#EEEEEE"/>
<rect x="290" y="5" width="4" height="36" fill="#EEEEEE"/>
<rect x="295" width="4" height="46" fill="#EEEEEE"/>
<rect x="300" y="17" width="4" height="12" fill="#EEEEEE"/>
<rect x="305" y="9" width="4" height="28" fill="#EEEEEE"/>
<rect x="310" y="17" width="4" height="12" fill="#EEEEEE"/>
<rect x="315" y="5" width="4" height="36" fill="#EEEEEE"/>
<rect x="320" y="14" width="4" height="18" fill="#EEEEEE"/>
<rect x="325" y="9" width="4" height="28" fill="#EEEEEE"/>
<rect x="330" y="5" width="4" height="36" fill="#EEEEEE"/>
<rect x="335" y="5" width="4" height="36" fill="#EEEEEE"/>
<rect x="340" y="5" width="4" height="36" fill="#EEEEEE"/>
<rect x="345" y="14" width="4" height="18" fill="#EEEEEE"/>
<rect x="350" y="14" width="4" height="18" fill="#EEEEEE"/>
<rect x="355" y="17" width="4" height="12" fill="#EEEEEE"/>
<rect x="360" y="17" width="4" height="12" fill="#EEEEEE"/>
<rect x="365" y="18" width="4" height="10" fill="#EEEEEE"/>
<rect x="370" y="17" width="4" height="12" fill="#EEEEEE"/>
<rect x="375" y="18" width="4" height="10" fill="#EEEEEE"/>
</svg>
