<svg width="24" height="24" viewBox="0 0 24 24" fill="none" xmlns="http://www.w3.org/2000/svg">
<path fill-rule="evenodd" clip-rule="evenodd" d="M6.94899 0.332031H17.064C21.019 0.332031 23.6673 3.1087 23.6673 7.2387V16.7715C23.6673 20.8899 21.019 23.6654 17.064 23.6654H6.94899C2.99398 23.6654 0.333984 20.8899 0.333984 16.7715V7.2387C0.333984 3.1087 2.99398 0.332031 6.94899 0.332031ZM15.5123 15.4987C15.909 15.1032 15.909 14.4615 15.5123 14.0649L13.4357 11.9882L15.5123 9.91037C15.909 9.51486 15.909 8.86153 15.5123 8.46486C15.1157 8.06703 14.474 8.06703 14.0657 8.46486L12.0007 10.5404L9.92399 8.46486C9.51565 8.06703 8.87399 8.06703 8.47732 8.46486C8.08065 8.86153 8.08065 9.51486 8.47732 9.91037L10.554 11.9882L8.47732 14.0532C8.08065 14.4615 8.08065 15.1032 8.47732 15.4987C8.67565 15.697 8.94398 15.8032 9.20065 15.8032C9.46898 15.8032 9.72565 15.697 9.92399 15.4987L12.0007 13.4349L14.0773 15.4987C14.2757 15.7099 14.5323 15.8032 14.789 15.8032C15.0573 15.8032 15.314 15.697 15.5123 15.4987Z" fill="#212121"/>
</svg>
