<svg width="20" height="21" viewBox="0 0 20 21" fill="none" xmlns="http://www.w3.org/2000/svg">
<rect y="0.5" width="20" height="20" rx="10" fill="white"/>
<path fill-rule="evenodd" clip-rule="evenodd" d="M10 4.5C9.47517 4.5 9.05259 4.92259 9.05259 5.44741V7.02652C9.05259 7.55135 9.47517 7.97342 10 7.97342C10.5248 7.97342 10.9474 7.55135 10.9474 7.02652V5.44741C10.9474 4.92259 10.5248 4.5 10 4.5ZM6.42752 5.97888C6.18535 5.97888 5.94276 6.07159 5.75726 6.25721C5.3861 6.62837 5.3861 7.22612 5.75726 7.59725L6.87403 8.7134C7.24519 9.08456 7.84232 9.08456 8.21348 8.7134C8.58464 8.34224 8.58464 7.74511 8.21348 7.37395L7.09733 6.25718C6.9117 6.07156 6.66973 5.97885 6.42755 5.97885L6.42752 5.97888ZM13.5725 5.97888C13.3303 5.97888 13.0883 6.07159 12.9027 6.25721L11.7865 7.37397C11.4154 7.74513 11.4154 8.34227 11.7865 8.71343C12.1577 9.08459 12.7548 9.08459 13.126 8.71343L14.2428 7.59728C14.6139 7.22612 14.6139 6.62837 14.2428 6.25723C14.0572 6.07161 13.8147 5.9789 13.5725 5.9789L13.5725 5.97888ZM4.94741 9.55264C4.42259 9.55264 4 9.97522 4 10.5001C4 11.0249 4.42259 11.4475 4.94741 11.4475H6.52652C7.05135 11.4475 7.47342 11.0249 7.47342 10.5001C7.47342 9.97522 7.05135 9.55264 6.52652 9.55264H4.94741ZM13.4735 9.55264C12.9486 9.55264 12.5266 9.97522 12.5266 10.5001C12.5266 11.0249 12.9486 11.4475 13.4735 11.4475H15.0526C15.5774 11.4475 16 11.0249 16 10.5001C16 9.97522 15.5774 9.55264 15.0526 9.55264H13.4735ZM7.54378 12.0082C7.3016 12.0082 7.05963 12.101 6.874 12.2866L5.75723 13.4027C5.38607 13.7739 5.38607 14.3716 5.75723 14.7428C6.12839 15.1139 6.72614 15.1139 7.09728 14.7428L8.21343 13.626C8.58459 13.2548 8.58459 12.6577 8.21343 12.2865C8.02791 12.1009 7.78593 12.0082 7.54375 12.0082L7.54378 12.0082ZM12.4562 12.0082C12.214 12.0082 11.9721 12.101 11.7865 12.2866C11.4154 12.6577 11.4154 13.2549 11.7865 13.626L12.9027 14.7428C13.2739 15.114 13.8716 15.114 14.2427 14.7428C14.6139 14.3716 14.6139 13.7739 14.2427 13.4027L13.126 12.2866C12.9403 12.101 12.6984 12.0083 12.4562 12.0083L12.4562 12.0082ZM10 13.0266C9.47517 13.0266 9.05259 13.4486 9.05259 13.9735V15.5526C9.05259 16.0774 9.47517 16.5 10 16.5C10.5248 16.5 10.9474 16.0774 10.9474 15.5526V13.9735C10.9474 13.4486 10.5248 13.0266 10 13.0266Z" fill="#F9343A"/>
</svg>
