<svg width="38" height="12" viewBox="0 0 38 12" fill="none" xmlns="http://www.w3.org/2000/svg">
<path d="M24.1229 0.000224299C21.4929 0.000224299 19.1429 1.36308 19.1429 3.88165C19.1429 6.77023 23.31 6.9688 23.31 8.42022C23.31 9.03165 22.61 9.57736 21.4143 9.57736C20.3779 9.5706 19.3592 9.30808 18.4486 8.81308L17.9057 11.3545C18.9893 11.7819 20.1438 12.001 21.3086 12.0002C24.1843 12.0002 26.4514 10.5717 26.4514 8.0088C26.4514 4.95737 22.2657 4.76308 22.2657 3.41737C22.2657 2.9388 22.8371 2.41737 24.0329 2.41737C24.8772 2.42865 25.7096 2.61801 26.4757 2.97308L27.0071 0.518796C26.0862 0.168668 25.1081 -0.00717738 24.1229 0.000224299V0.000224299ZM0.0642875 0.185937L0 0.555941C0.717474 0.69531 1.42118 0.898007 2.10286 1.16165C3.38857 1.62451 3.47714 1.89451 3.69286 2.73308L6.04715 11.8102H9.20429L14.0614 0.185937H10.9186L7.79429 8.08879L6.51857 1.39023C6.40143 0.623083 5.80429 0.185937 5.09 0.185937H0.0642875ZM15.3329 0.185937L12.8629 11.8102H15.8629L18.3243 0.185937H15.3243H15.3329ZM32.0814 0.185937C31.3571 0.185937 30.9743 0.573083 30.6929 1.25165L26.2929 11.8102H29.4357L30.0443 10.0502H33.88L34.25 11.8102H37.0286L34.6 0.185937H32.0814V0.185937ZM32.4914 3.32879L33.4243 7.69023H30.9243L32.4957 3.32879H32.4914Z" fill="#1434CB"/>
</svg>
