<svg width="30" height="29" viewBox="0 0 30 29" fill="none" xmlns="http://www.w3.org/2000/svg">
<path fill-rule="evenodd" clip-rule="evenodd" d="M13.5293 0.172734C7.25803 0.804403 2.02291 5.5967 0.812827 11.8134C0.531407 13.2589 0.528888 15.7096 0.807159 17.138C2.23656 24.474 9.05538 29.5892 16.3853 28.8239C18.5253 28.6004 20.5845 27.9368 22.3169 26.9124C25.8602 24.8171 28.4004 21.2061 29.193 17.138C29.4713 15.7096 29.4688 13.2589 29.1874 11.8134C27.7614 4.48763 20.9516 -0.574892 13.5293 0.172734ZM16.5371 7.46771C18.5158 7.87626 20.5821 9.50682 21.4569 11.3501C21.9914 12.4762 22.1811 13.3118 22.1786 14.5284C22.1718 17.8296 19.9829 20.629 16.7536 21.4667C15.6905 21.7425 13.7191 21.6712 12.7166 21.3208C9.24094 20.106 7.21368 16.5434 7.95792 12.958C8.47667 10.4588 10.7607 8.11697 13.2708 7.51043C14.1038 7.30904 15.6696 7.28869 16.5371 7.46771ZM13.6552 10.4002C11.8886 10.9512 10.7171 12.5821 10.7171 14.4908C10.7171 15.748 11.0836 16.6353 11.9667 17.516C12.8498 18.3967 13.7395 18.7623 15.0001 18.7623C16.2607 18.7623 17.1504 18.3967 18.0335 17.516C18.9111 16.6407 19.284 15.7447 19.2812 14.5175C19.2788 13.4634 19.1535 13.2182 18.8518 13.6772C18.5926 14.0718 17.743 14.4842 17.1813 14.4881C16.038 14.496 15.0001 13.472 15.0001 12.336C15.0001 11.8045 15.4533 10.8864 15.8408 10.6332C16.0741 10.4808 16.1088 10.4066 15.9839 10.3276C15.733 10.1689 14.2486 10.2152 13.6552 10.4002Z" fill="white"/>
</svg>
