<svg width="21" height="21" viewBox="0 0 21 21" fill="none" xmlns="http://www.w3.org/2000/svg">
<path fill-rule="evenodd" clip-rule="evenodd" d="M2.16602 10.5124C2.16602 6.12244 5.67435 2.1665 10.516 2.1665C15.2493 2.1665 18.8327 6.04733 18.8327 10.4873C18.8327 15.6367 14.6327 18.8332 10.4993 18.8332C9.13268 18.8332 7.61602 18.466 6.39935 17.7482C5.97435 17.4895 5.61602 17.2975 5.15768 17.4478L3.47435 17.9485C3.04935 18.082 2.66602 17.7482 2.79102 17.2975L3.34935 15.4281C3.44102 15.1693 3.42435 14.8939 3.29102 14.6769C2.57435 13.3583 2.16602 11.9145 2.16602 10.5124ZM9.41602 10.5124C9.41602 11.1049 9.89102 11.5806 10.4827 11.589C11.0743 11.589 11.5493 11.1049 11.5493 10.5207C11.5493 9.92815 11.0743 9.45243 10.4827 9.45243C9.89935 9.44409 9.41602 9.92815 9.41602 10.5124ZM13.2577 10.5207C13.2577 11.1049 13.7327 11.589 14.3243 11.589C14.916 11.589 15.391 11.1049 15.391 10.5207C15.391 9.92815 14.916 9.45243 14.3243 9.45243C13.7327 9.45243 13.2577 9.92815 13.2577 10.5207ZM6.64102 11.589C6.05768 11.589 5.57435 11.1049 5.57435 10.5207C5.57435 9.92815 6.04935 9.45243 6.64102 9.45243C7.23268 9.45243 7.70768 9.92815 7.70768 10.5207C7.70768 11.1049 7.23268 11.5806 6.64102 11.589Z" fill="#F9343A"/>
</svg>
