<svg width="28" height="28" viewBox="0 0 28 28" fill="none" xmlns="http://www.w3.org/2000/svg">
<path fill-rule="evenodd" clip-rule="evenodd" d="M10.3837 2.33398H17.582C20.7437 2.33398 23.2987 3.58232 23.3337 6.75565V24.4656C23.3337 24.664 23.287 24.8623 23.1937 25.0373C23.042 25.3173 22.7853 25.5273 22.4703 25.6206C22.167 25.714 21.8287 25.6673 21.5487 25.504L13.9887 21.724L6.41699 25.504C6.24316 25.5962 6.04366 25.6556 5.84533 25.6556C5.19199 25.6556 4.66699 25.119 4.66699 24.4656V6.75565C4.66699 3.58232 7.23366 2.33398 10.3837 2.33398ZM9.59033 11.224H18.3753C18.877 11.224 19.2853 10.8145 19.2853 10.3023C19.2853 9.78898 18.877 9.38065 18.3753 9.38065H9.59033C9.08866 9.38065 8.68033 9.78898 8.68033 10.3023C8.68033 10.8145 9.08866 11.224 9.59033 11.224Z" fill="#F9343A"/>
</svg>
