<svg width="28" height="28" viewBox="0 0 28 28" fill="none" xmlns="http://www.w3.org/2000/svg">
<path fill-rule="evenodd" clip-rule="evenodd" d="M18.4923 2.91816C19.2285 2.91816 19.9635 3.02199 20.6623 3.25649C24.9685 4.65649 26.5202 9.38149 25.224 13.5115C24.489 15.622 23.2873 17.5482 21.7135 19.122C19.4607 21.3037 16.9885 23.2403 14.3273 24.9087L14.0357 25.0848L13.7323 24.897C11.0618 23.2403 8.57567 21.3037 6.30184 19.1103C4.7385 17.5365 3.53567 15.622 2.789 13.5115C1.47067 9.38149 3.02234 4.65649 7.37517 3.23199C7.7135 3.11532 8.06234 3.03366 8.41234 2.98816H8.55234C8.88017 2.94032 9.20567 2.91816 9.53234 2.91816H9.66067C10.3957 2.94032 11.1073 3.06866 11.7968 3.30316H11.8657C11.9123 3.32532 11.9473 3.34982 11.9707 3.37199C12.2285 3.45482 12.4723 3.54816 12.7057 3.67649L13.149 3.87482C13.2561 3.93196 13.3764 4.01926 13.4803 4.09471C13.5461 4.14251 13.6054 4.18555 13.6507 4.21315C13.6697 4.22439 13.6891 4.23568 13.7086 4.24707C13.8086 4.30547 13.9128 4.36629 14.0007 4.43365C15.2968 3.44315 16.8707 2.90649 18.4923 2.91816ZM21.5957 11.3182C22.074 11.3053 22.4823 10.9215 22.5173 10.4303V10.2915C22.5523 8.65699 21.5618 7.17649 20.0557 6.60482C19.5773 6.44032 19.0523 6.69815 18.8773 7.18816C18.714 7.67815 18.9707 8.21482 19.4607 8.38865C20.2085 8.66865 20.709 9.40482 20.709 10.2203V10.2565C20.6868 10.5237 20.7673 10.7815 20.9307 10.9798C21.094 11.1782 21.339 11.2937 21.5957 11.3182Z" fill="#F9343A"/>
</svg>
