<svg width="28" height="28" viewBox="0 0 28 28" fill="none" xmlns="http://www.w3.org/2000/svg">
<path fill-rule="evenodd" clip-rule="evenodd" d="M10.3827 2.33398H17.581C20.7427 2.33398 23.2977 3.58232 23.3327 6.75565V24.4656C23.3327 24.664 23.286 24.8623 23.1927 25.0373C23.041 25.3173 22.7844 25.5273 22.4694 25.6206C22.166 25.714 21.8277 25.6673 21.5477 25.504L13.9877 21.724L6.41602 25.504C6.24218 25.5962 6.04268 25.6556 5.84435 25.6556C5.19102 25.6556 4.66602 25.119 4.66602 24.4656V6.75565C4.66602 3.58232 7.23268 2.33398 10.3827 2.33398ZM9.58935 11.224H18.3743C18.876 11.224 19.2843 10.8145 19.2843 10.3023C19.2843 9.78898 18.876 9.38065 18.3743 9.38065H9.58935C9.08768 9.38065 8.67935 9.78898 8.67935 10.3023C8.67935 10.8145 9.08768 11.224 9.58935 11.224Z" fill="#E98090"/>
</svg>
