<svg width="28" height="28" viewBox="0 0 28 28" fill="none" xmlns="http://www.w3.org/2000/svg">
<path d="M19.064 2.33203H8.94899C4.99398 2.33203 2.33398 5.1087 2.33398 9.2387V18.7715C2.33398 22.8899 4.99398 25.6654 8.94899 25.6654H19.064C23.019 25.6654 25.6673 22.8899 25.6673 18.7715V9.2387C25.6673 5.1087 23.019 2.33203 19.064 2.33203Z" fill="#F9343A"/>
<path d="M17.5122 16.0663C17.9089 16.463 17.9089 17.1047 17.5122 17.5002C17.3139 17.6985 17.0572 17.8047 16.7889 17.8047C16.5322 17.8047 16.2755 17.7113 16.0772 17.5002L14.0005 15.4363L11.9239 17.5002C11.7255 17.6985 11.4689 17.8047 11.2005 17.8047C10.9439 17.8047 10.6755 17.6985 10.4772 17.5002C10.0805 17.1047 10.0805 16.463 10.4772 16.0547L12.5539 13.9897L10.4772 11.9118C10.0805 11.5163 10.0805 10.863 10.4772 10.4663C10.8739 10.0685 11.5155 10.0685 11.9239 10.4663L14.0005 12.5418L16.0655 10.4663C16.4739 10.0685 17.1155 10.0685 17.5122 10.4663C17.9089 10.863 17.9089 11.5163 17.5122 11.9118L15.4355 13.9897L17.5122 16.0663Z" fill="white"/>
</svg>
