<svg width="33" height="20" viewBox="0 0 33 20" fill="none" xmlns="http://www.w3.org/2000/svg">
<g clip-path="url(#clip0_2293_187723)">
<path d="M20.5537 17.8615H11.8043V2.1377H20.5538L20.5537 17.8615Z" fill="#FF5F00"/>
<path d="M12.359 10C12.359 6.81043 13.8525 3.96914 16.1781 2.13809C14.4177 0.750042 12.2405 -0.00330147 9.9987 1.08764e-05C4.47643 1.08764e-05 0 4.47709 0 10C0 15.5229 4.47643 20 9.9987 20C12.2405 20.0033 14.4178 19.25 16.1782 17.8619C13.8528 16.0312 12.359 13.1897 12.359 10Z" fill="#EB001B"/>
<path d="M32.3576 10C32.3576 15.5229 27.8812 20 22.3589 20C20.1169 20.0033 17.9393 19.25 16.1786 17.8619C18.5048 16.0309 19.9982 13.1897 19.9982 10C19.9982 6.81027 18.5048 3.96914 16.1786 2.13809C17.9393 0.750083 20.1168 -0.00324341 22.3588 1.0497e-05C27.881 1.0497e-05 32.3575 4.47709 32.3575 10" fill="#F79E1B"/>
</g>
<defs>
<clipPath id="clip0_2293_187723">
<rect width="32.3576" height="20" fill="white"/>
</clipPath>
</defs>
</svg>
