<svg width="28" height="28" viewBox="0 0 28 28" fill="none" xmlns="http://www.w3.org/2000/svg">
<path fill-rule="evenodd" clip-rule="evenodd" d="M22.2496 22.2478C18.6841 25.8137 13.4044 26.5842 9.08383 24.586C8.446 24.3292 7.92307 24.1217 7.42594 24.1217C6.04124 24.1299 4.3177 25.4725 3.42193 24.5778C2.52615 23.6819 3.86981 21.957 3.86981 20.564C3.86981 20.0668 3.67049 19.5532 3.41372 18.9141C1.41464 14.5942 2.18613 9.31281 5.75164 5.74808C10.3032 1.19485 17.698 1.19485 22.2496 5.74691C26.8094 10.3072 26.8012 17.6958 22.2496 22.2478Z" stroke="#212121" stroke-width="1.5" stroke-linecap="round" stroke-linejoin="round"/>
<path d="M18.5957 14.4818H18.6062" stroke="#212121" stroke-width="2" stroke-linecap="round" stroke-linejoin="round"/>
<path d="M13.9189 14.4818H13.9294" stroke="#212121" stroke-width="2" stroke-linecap="round" stroke-linejoin="round"/>
<path d="M9.24117 14.4818H9.25167" stroke="#212121" stroke-width="2" stroke-linecap="round" stroke-linejoin="round"/>
</svg>
