<svg width="17" height="16" viewBox="0 0 17 16" fill="none" xmlns="http://www.w3.org/2000/svg">
<path fill-rule="evenodd" clip-rule="evenodd" d="M13.7681 6.09562L14.2483 6.57562C14.6284 6.94895 14.8351 7.45562 14.8351 7.98895C14.8418 8.52228 14.6351 9.02962 14.2616 9.40895C14.2571 9.41384 14.2527 9.41813 14.2483 9.42242C14.246 9.42457 14.2438 9.42672 14.2416 9.42895L13.7681 9.90228C13.5813 10.089 13.4746 10.3423 13.4746 10.6096V11.2956C13.4746 12.4023 12.5743 13.303 11.4672 13.303H10.7803C10.5136 13.303 10.2601 13.409 10.0734 13.5956L9.59323 14.0756C9.19975 14.4696 8.68623 14.6623 8.17272 14.6623C7.6592 14.6623 7.14568 14.4696 6.7522 14.083L6.26536 13.5956C6.07862 13.409 5.8252 13.303 5.55843 13.303H4.87152C3.76445 13.303 2.86412 12.4023 2.86412 11.2956V10.6096C2.86412 10.3423 2.75742 10.089 2.57068 9.89562L2.09051 9.42228C1.31023 8.64295 1.30356 7.36895 2.08384 6.58295L2.57068 6.09562C2.75742 5.90895 2.86412 5.65562 2.86412 5.38228V4.70228C2.86412 3.59562 3.76445 2.69628 4.87152 2.69628H5.55843C5.8252 2.69628 6.07862 2.58895 6.26536 2.40228L6.74553 1.92228C7.52581 1.13628 8.79961 1.13628 9.58656 1.91628L10.0734 2.40228C10.2601 2.58895 10.5136 2.69628 10.7803 2.69628H11.4672C12.5743 2.69628 13.4746 3.59562 13.4746 4.70228V5.38962C13.4746 5.65562 13.5813 5.90895 13.7681 6.09562ZM6.45209 10.2956C6.61215 10.2956 6.75887 10.2356 6.86557 10.1223L10.2935 6.69628C10.5202 6.46962 10.5202 6.09562 10.2935 5.86895C10.0667 5.64295 9.69994 5.64295 9.47319 5.86895L6.04528 9.29562C5.81853 9.52228 5.81853 9.89562 6.04528 10.1223C6.15198 10.2356 6.2987 10.2956 6.45209 10.2956ZM9.29979 9.70895C9.29979 10.0356 9.55989 10.2956 9.88667 10.2956C10.2068 10.2956 10.4669 10.0356 10.4669 9.70895C10.4669 9.38962 10.2068 9.12895 9.88667 9.12895C9.55989 9.12895 9.29979 9.38962 9.29979 9.70895ZM6.45876 5.70228C6.77888 5.70228 7.03897 5.96228 7.03897 6.28228C7.03897 6.60962 6.77888 6.86895 6.45876 6.86895C6.13864 6.86895 5.87188 6.60962 5.87188 6.28228C5.87188 5.96228 6.13864 5.70228 6.45876 5.70228Z" fill="#9E9E9E"/>
</svg>
