<svg width="28" height="28" viewBox="0 0 28 28" fill="none" xmlns="http://www.w3.org/2000/svg">
<path fill-rule="evenodd" clip-rule="evenodd" d="M24.2099 25.5977H15.748C15.265 25.5977 14.873 25.2057 14.873 24.7227C14.873 24.2397 15.265 23.8477 15.748 23.8477H24.2099C24.6929 23.8477 25.0849 24.2397 25.0849 24.7227C25.0849 25.2057 24.6929 25.5977 24.2099 25.5977Z" fill="#212121"/>
<mask id="mask0_2575_84550" style="mask-type:alpha" maskUnits="userSpaceOnUse" x="2" y="3" width="21" height="23">
<path fill-rule="evenodd" clip-rule="evenodd" d="M2.33398 3.5H22.378V25.5961H2.33398V3.5Z" fill="white"/>
</mask>
<g mask="url(#mask0_2575_84550)">
<path fill-rule="evenodd" clip-rule="evenodd" d="M15.296 5.85275L4.3118 19.5903C4.1123 19.8399 4.0388 20.1619 4.1123 20.4711L4.9068 23.8369L8.4523 23.7926C8.78947 23.7891 9.10097 23.6386 9.30747 23.3819C13.0606 18.6861 20.2158 9.73308 20.4188 9.47058C20.6101 9.16025 20.6848 8.72158 20.5845 8.29925C20.4818 7.86642 20.2123 7.49892 19.8238 7.26442C19.741 7.20725 17.7751 5.68125 17.7145 5.63342C16.9748 5.04075 15.8956 5.14342 15.296 5.85275ZM4.21614 25.5962C3.8113 25.5962 3.45897 25.3186 3.36447 24.9231L2.40897 20.8736C2.2118 20.0347 2.4078 19.1691 2.94564 18.4971L13.9356 4.75142C13.9403 4.74675 13.9438 4.74092 13.9485 4.73625C15.1536 3.29542 17.333 3.08308 18.803 4.26258C18.8613 4.30808 20.8131 5.82475 20.8131 5.82475C21.5225 6.24708 22.0766 7.00192 22.2866 7.89558C22.4955 8.77992 22.3438 9.69225 21.8573 10.4634C21.8211 10.5206 21.7896 10.5696 10.6736 24.4762C10.1381 25.1436 9.33547 25.5321 8.4733 25.5426L4.2278 25.5962H4.21614Z" fill="#212121"/>
</g>
<path fill-rule="evenodd" clip-rule="evenodd" d="M18.927 13.6313C18.7403 13.6313 18.5537 13.5718 18.3938 13.4505L12.0332 8.56445C11.6505 8.27045 11.5782 7.72212 11.8722 7.33712C12.1673 6.95445 12.7157 6.88329 13.0995 7.17729L19.4613 12.0621C19.844 12.3561 19.9163 12.9056 19.6212 13.2895C19.4497 13.5135 19.1895 13.6313 18.927 13.6313Z" fill="#212121"/>
</svg>
