<svg width="32" height="32" viewBox="0 0 32 32" fill="none" xmlns="http://www.w3.org/2000/svg">
<path fill-rule="evenodd" clip-rule="evenodd" d="M15.9983 3.57599C9.13656 3.57599 3.57404 9.13852 3.57404 16.0002C3.57404 22.862 9.13656 28.4245 15.9983 28.4245C22.86 28.4245 28.4225 22.862 28.4225 16.0002C28.4225 9.13852 22.86 3.57599 15.9983 3.57599ZM1.75586 16.0002C1.75586 8.13436 8.13241 1.75781 15.9983 1.75781C23.8642 1.75781 30.2407 8.13436 30.2407 16.0002C30.2407 23.8661 23.8642 30.2427 15.9983 30.2427C8.13241 30.2427 1.75586 23.8661 1.75586 16.0002Z" fill="#F9343A"/>
<path fill-rule="evenodd" clip-rule="evenodd" d="M11.1257 21.3667C13.82 23.6491 18.1797 23.6491 20.8741 21.3667L20.8897 21.3535L20.9031 21.3381C21.2347 20.9562 21.2169 20.3833 20.8616 20.0228C20.5072 19.6632 19.9359 19.6367 19.5495 19.961C17.5893 21.5414 14.4105 21.5414 12.4503 19.961C12.0639 19.6367 11.4926 19.6632 11.1382 20.0228C10.7829 20.3833 10.7651 20.9562 11.0967 21.3381L11.1101 21.3535L11.1257 21.3667Z" fill="#F9343A"/>
<path d="M13.526 12.8294C13.526 12.3432 13.333 11.877 12.9892 11.5332C12.6454 11.1892 12.1789 10.9961 11.6927 10.9961C11.2065 10.9961 10.74 11.1892 10.3962 11.5332C10.0524 11.877 9.85938 12.3433 9.85938 12.8294C9.85938 13.3159 10.0524 13.7822 10.3962 14.1259C10.74 14.4697 11.2065 14.6631 11.6927 14.6631C12.1789 14.6631 12.6454 14.4697 12.9892 14.1259C13.333 13.7822 13.526 13.3159 13.526 12.8294Z" fill="#F9343A"/>
<path d="M20.5365 10.9961C20.0503 10.9961 19.5837 11.1892 19.24 11.5332C18.8962 11.877 18.7031 12.3433 18.7031 12.8294C18.7031 13.3159 18.8962 13.7822 19.24 14.1259C19.5837 14.4697 20.0502 14.6631 20.5365 14.6631C21.0227 14.6631 21.4892 14.4697 21.833 14.1259C22.1767 13.7822 22.3698 13.3159 22.3698 12.8294C22.3698 12.3432 22.1767 11.877 21.833 11.5332C21.4892 11.1892 21.0227 10.9961 20.5365 10.9961Z" fill="#F9343A"/>
</svg>
