<svg width="20" height="32" viewBox="0 0 20 32" fill="none" xmlns="http://www.w3.org/2000/svg">
<path d="M12.7339 29.4329V28.09L12.7337 28.0901C16.7221 27.2375 19.1824 24.5368 19.1836 20.9709C19.1836 16.0628 15.4226 14.6364 11.8925 13.6834C7.92669 12.6589 6.65415 11.9231 6.65415 10.6606C6.65415 9.7358 7.47766 8.65789 9.79806 8.65789C11.6482 8.65789 12.5372 9.19199 13.3215 9.66321L13.3215 9.66322L13.3232 9.66423L13.3974 9.70855L13.3974 9.70857C13.5155 9.77919 13.6313 9.84844 13.7545 9.91598C14.2981 10.2223 14.86 10.5381 15.7427 10.5381C16.6951 10.5381 18.208 9.86071 18.208 8.04077C18.208 6.99553 17.6286 6.03563 16.6222 5.41035C15.4201 4.64569 14.1444 4.13906 12.7344 3.86786V2.56581C12.7344 1.07917 11.6539 0 10.1673 0C8.68064 0 7.60147 1.0792 7.60147 2.56581V3.90929C3.77823 4.7299 1.42086 7.30182 1.42086 10.6932C1.42086 15.4192 5.13562 16.9988 8.37499 17.8457C12.7759 18.9806 13.9153 19.6562 13.9153 21.1378C13.9153 22.7631 11.9511 23.3407 10.2679 23.3407C7.69469 23.3407 6.34548 22.3808 5.16021 21.3788C4.52669 20.9136 3.90079 20.687 3.24851 20.687C2.26723 20.687 0.816406 21.5031 0.816406 23.2528C0.816406 24.3854 1.80768 25.3415 2.09459 25.5907C3.07656 26.5451 4.81742 27.7454 7.60101 28.1786V29.4329C7.60101 30.9208 8.68021 32 10.1668 32C11.6547 32 12.7339 30.9195 12.7339 29.4329Z" fill="white"/>
</svg>
