<svg width="24" height="25" viewBox="0 0 24 25" fill="none" xmlns="http://www.w3.org/2000/svg">
<g clip-path="url(#clip0_1776_6137)">
<path d="M0.0388161 22.4263C-0.164039 23.3288 0.453746 24.2004 1.29637 24.2004H6.50641C7.47742 24.2004 8.32714 23.4666 8.56049 22.4263L9.38291 18.7578C9.49958 18.2377 9.92444 17.8706 10.4099 17.8706H13.3872C14.6234 17.8706 15.8597 16.7645 16.148 15.4002C16.4367 14.0358 15.6682 12.9297 14.4316 12.9297H9.1343C6.39293 12.9297 2.17305 12.9297 2.17305 12.9297L0.0388161 22.4263Z" fill="url(#paint0_linear_1776_6137)"/>
<path d="M17.7632 8.62883L16.1485 15.3994C16.4372 14.035 15.6687 12.929 14.4321 12.929C11.6907 12.929 2.17353 12.929 2.17353 12.929C0.937251 12.929 0.168744 11.8229 0.457067 10.4585L2.0792 3.69153C1.79087 5.05589 2.55903 6.16194 3.79566 6.16194H16.0439V6.15724C17.2802 6.15724 18.0487 7.26329 17.7604 8.62765L17.7632 8.62843V8.62883Z" fill="url(#paint1_linear_1776_6137)"/>
<path style="mix-blend-mode:multiply" opacity="0.25" d="M2.34335 12.2248C2.59372 11.1853 3.45054 10.4585 4.42509 10.4585H15.3995C16.6357 10.4585 17.4851 9.99827 17.7738 8.63391L17.3273 10.4585L16.1396 15.397L16.1488 15.3997C16.4375 14.0354 15.669 12.9293 14.4324 12.9293C11.691 12.9293 2.17383 12.9293 2.17383 12.9293L2.34335 12.2252V12.2248Z" fill="url(#paint2_linear_1776_6137)"/>
<path d="M22.4794 0.200012H5.09705C3.86077 0.200012 2.62449 1.30606 2.33617 2.67042C2.32482 2.72404 2.3156 2.77727 2.30744 2.8305L0.903063 8.63353L0.509766 10.2402C0.840646 9.04449 1.6627 8.63353 2.83054 8.63353H3.95617L20.7942 8.62923C21.7673 8.62923 22.6213 7.89891 22.8649 6.859L23.9484 2.29822C24.203 1.236 23.4753 0.200012 22.4798 0.200012L22.4794 0.200012Z" fill="url(#paint3_linear_1776_6137)"/>
<path style="mix-blend-mode:soft-light" d="M16.0431 6.15728V6.16198H3.79481C2.63868 6.16198 1.89216 5.19487 2.03579 3.9538L0.903063 8.63356L0.509766 10.2402C0.840646 9.04452 1.6627 8.63356 2.83054 8.63356H3.95617L17.7624 8.62926V8.62848L17.7595 8.62769C18.0478 7.26333 17.2797 6.15728 16.0431 6.15728Z" fill="url(#paint4_linear_1776_6137)"/>
</g>
<defs>
<linearGradient id="paint0_linear_1776_6137" x1="16.209" y1="18.5649" x2="0.000160377" y2="18.5649" gradientUnits="userSpaceOnUse">
<stop stop-color="#721CE2"/>
<stop offset="1" stop-color="#00B3FF"/>
</linearGradient>
<linearGradient id="paint1_linear_1776_6137" x1="0.396778" y1="9.54584" x2="17.821" y2="9.54584" gradientUnits="userSpaceOnUse">
<stop stop-color="#612BCF"/>
<stop offset="1" stop-color="#FF29E8"/>
</linearGradient>
<linearGradient id="paint2_linear_1776_6137" x1="17.7734" y1="12.0166" x2="2.17347" y2="12.0166" gradientUnits="userSpaceOnUse">
<stop stop-color="white"/>
<stop offset="1" stop-color="#0087FF"/>
</linearGradient>
<linearGradient id="paint3_linear_1776_6137" x1="0.509766" y1="5.22028" x2="23.9994" y2="5.22028" gradientUnits="userSpaceOnUse">
<stop stop-color="#FE429D"/>
<stop offset="1" stop-color="#FED72E"/>
</linearGradient>
<linearGradient id="paint4_linear_1776_6137" x1="0.509766" y1="7.09699" x2="19.6884" y2="7.09699" gradientUnits="userSpaceOnUse">
<stop stop-color="#612BCF"/>
<stop offset="1" stop-color="#FF29E8"/>
</linearGradient>
<clipPath id="clip0_1776_6137">
<rect width="24" height="24" fill="white" transform="translate(0 0.200012)"/>
</clipPath>
</defs>
</svg>
