<svg width="15" height="14" viewBox="0 0 15 14" fill="none" xmlns="http://www.w3.org/2000/svg">
<path fill-rule="evenodd" clip-rule="evenodd" d="M2.52732 0.333496H4.78065C5.72065 0.333496 6.47398 1.10016 6.47398 2.04083V4.3135C6.47398 5.26016 5.72065 6.02016 4.78065 6.02016H2.52732C1.59398 6.02016 0.833984 5.26016 0.833984 4.3135V2.04083C0.833984 1.10016 1.59398 0.333496 2.52732 0.333496ZM2.52732 7.97996H4.78065C5.72065 7.97996 6.47398 8.74063 6.47398 9.6873V11.96C6.47398 12.9 5.72065 13.6666 4.78065 13.6666H2.52732C1.59398 13.6666 0.833984 12.9 0.833984 11.96V9.6873C0.833984 8.74063 1.59398 7.97996 2.52732 7.97996ZM12.4741 0.333496H10.2207C9.28072 0.333496 8.52738 1.10016 8.52738 2.04083V4.3135C8.52738 5.26016 9.28072 6.02016 10.2207 6.02016H12.4741C13.4074 6.02016 14.1674 5.26016 14.1674 4.3135V2.04083C14.1674 1.10016 13.4074 0.333496 12.4741 0.333496ZM10.2207 7.97996H12.4741C13.4074 7.97996 14.1674 8.74063 14.1674 9.6873V11.96C14.1674 12.9 13.4074 13.6666 12.4741 13.6666H10.2207C9.28072 13.6666 8.52738 12.9 8.52738 11.96V9.6873C8.52738 8.74063 9.28072 7.97996 10.2207 7.97996Z" fill="#F9343A"/>
</svg>
