<svg width="24" height="24" viewBox="0 0 24 24" fill="none" xmlns="http://www.w3.org/2000/svg">
<path fill-rule="evenodd" clip-rule="evenodd" d="M13.45 4.88017H16.52C20.21 4.88017 22.01 6.85017 22 10.8902V15.7602C22 19.6202 19.62 22.0002 15.75 22.0002H8.24C4.39 22.0002 2 19.6202 2 15.7502V8.24017C2 4.10017 3.84 2.00017 7.47 2.00017H9.05C9.981 1.99017 10.85 2.42017 11.42 3.15017L12.3 4.32017C12.58 4.67017 13 4.88017 13.45 4.88017ZM7.36996 15.29H16.63C17.04 15.29 17.37 14.95 17.37 14.54C17.37 14.12 17.04 13.79 16.63 13.79H7.36996C6.94996 13.79 6.61996 14.12 6.61996 14.54C6.61996 14.95 6.94996 15.29 7.36996 15.29Z" fill="url(#paint0_linear_1062_24729)"/>
<defs>
<linearGradient id="paint0_linear_1062_24729" x1="22" y1="22.0002" x2="-1.79824" y2="15.1001" gradientUnits="userSpaceOnUse">
<stop stop-color="#FF4D67"/>
<stop offset="1" stop-color="#FF8A9B"/>
</linearGradient>
</defs>
</svg>
