<svg width="25" height="25" viewBox="0 0 25 25" fill="none" xmlns="http://www.w3.org/2000/svg">
<g clip-path="url(#clip0_1776_2114)">
<path d="M24.0088 12.4245C24.0088 11.4412 23.9304 10.7237 23.7608 9.97961H12.7305V14.4176H19.205C19.0745 15.5205 18.3696 17.1814 16.8032 18.2975L16.7812 18.4461L20.2688 21.1963L20.5104 21.2209C22.7295 19.1347 24.0088 16.0653 24.0088 12.4245Z" fill="#4285F4"/>
<path d="M12.7296 24.1176C15.9016 24.1176 18.5645 23.0545 20.5095 21.2209L16.8023 18.2976C15.8102 19.0018 14.4787 19.4935 12.7296 19.4935C9.6228 19.4935 6.98598 17.4074 6.04603 14.524L5.90825 14.5359L2.2818 17.3927L2.23438 17.5269C4.1663 21.4334 8.13462 24.1176 12.7296 24.1176Z" fill="#34A853"/>
<path d="M6.04719 14.524C5.79917 13.7799 5.65564 12.9826 5.65564 12.1588C5.65564 11.3349 5.79917 10.5377 6.03414 9.79361L6.02757 9.63514L2.35568 6.73242L2.23554 6.79059C1.4393 8.41169 0.982422 10.2321 0.982422 12.1588C0.982422 14.0855 1.4393 15.9058 2.23554 17.5269L6.04719 14.524Z" fill="#FBBC05"/>
<path d="M12.7295 4.82404C14.9356 4.82404 16.4237 5.79403 17.2722 6.60462L20.5878 3.30929C18.5515 1.38261 15.9015 0.200012 12.7295 0.200012C8.13462 0.200012 4.1663 2.88407 2.23438 6.79058L6.03297 9.7936C6.98597 6.91021 9.62279 4.82404 12.7295 4.82404Z" fill="#EB4335"/>
</g>
<defs>
<clipPath id="clip0_1776_2114">
<rect width="23.04" height="24" fill="white" transform="translate(0.980469 0.200012)"/>
</clipPath>
</defs>
</svg>
