<svg width="18" height="20" viewBox="0 0 18 20" fill="none" xmlns="http://www.w3.org/2000/svg">
<path fill-rule="evenodd" clip-rule="evenodd" d="M9.18009 13.2174H8.83038C6.42699 13.2174 4.47891 11.2927 4.47891 8.92033V4.29706C4.47891 1.92373 6.42699 0 8.83038 0H9.18009C11.5835 0 13.5325 1.92373 13.5325 4.29706V8.92033C13.5325 11.2927 11.5835 13.2174 9.18009 13.2174ZM15.5665 8.78297C15.5665 8.25397 16.0005 7.82637 16.5352 7.82637C17.0699 7.82637 17.5039 8.25397 17.5039 8.78297C17.5039 13.0867 14.2045 16.6405 9.97311 17.1179V19.0435C9.97311 19.5715 9.53912 20.0001 9.00439 20.0001C8.46869 20.0001 8.03568 19.5715 8.03568 19.0435V17.1179C3.80335 16.6405 0.503906 13.0867 0.503906 8.78297C0.503906 8.25397 0.937891 7.82637 1.47262 7.82637C2.00735 7.82637 2.44134 8.25397 2.44134 8.78297C2.44134 12.3559 5.38527 15.263 9.00439 15.263C12.6225 15.263 15.5665 12.3559 15.5665 8.78297Z" fill="#BDBDBD"/>
</svg>
