<svg width="24" height="24" viewBox="0 0 24 24" fill="none" xmlns="http://www.w3.org/2000/svg">
<path fill-rule="evenodd" clip-rule="evenodd" d="M7.33464 2H16.6736C20.0746 2 21.9946 3.929 22.0046 7.33V16.67C22.0046 20.07 20.0746 22 16.6736 22H7.33464C3.93364 22 2.00464 20.07 2.00464 16.67V7.33C2.00464 3.929 3.93364 2 7.33464 2ZM12.0538 17.8595C12.4848 17.8595 12.8438 17.5395 12.8838 17.1095V6.91945C12.9238 6.60945 12.7748 6.29845 12.5048 6.12945C12.2238 5.95945 11.8838 5.95945 11.6148 6.12945C11.3438 6.29845 11.1948 6.60945 11.2238 6.91945V17.1095C11.2748 17.5395 11.6338 17.8595 12.0538 17.8595ZM16.6551 17.86C17.0751 17.86 17.4341 17.54 17.4851 17.11V13.83C17.5141 13.509 17.3651 13.21 17.0941 13.04C16.8251 12.87 16.4851 12.87 16.2051 13.04C15.9341 13.21 15.7851 13.509 15.8251 13.83V17.11C15.8651 17.54 16.2241 17.86 16.6551 17.86ZM8.22369 17.1095C8.18369 17.5395 7.82469 17.8595 7.39369 17.8595C6.96369 17.8595 6.60369 17.5395 6.56469 17.1095V10.1995C6.53469 9.88853 6.68369 9.57953 6.95469 9.40953C7.22369 9.23953 7.56469 9.23953 7.83469 9.40953C8.10369 9.57953 8.25469 9.88853 8.22369 10.1995V17.1095Z" fill="#BDBDBD"/>
</svg>
