<svg width="17" height="16" viewBox="0 0 17 16" fill="none" xmlns="http://www.w3.org/2000/svg">
<path fill-rule="evenodd" clip-rule="evenodd" d="M3.3613 1.33398H5.61464C6.55464 1.33398 7.30797 2.10065 7.30797 3.04132V5.31398C7.30797 6.26065 6.55464 7.02065 5.61464 7.02065H3.3613C2.42797 7.02065 1.66797 6.26065 1.66797 5.31398V3.04132C1.66797 2.10065 2.42797 1.33398 3.3613 1.33398ZM3.3613 8.98045H5.61464C6.55464 8.98045 7.30797 9.74112 7.30797 10.6878V12.9605C7.30797 13.9005 6.55464 14.6671 5.61464 14.6671H3.3613C2.42797 14.6671 1.66797 13.9005 1.66797 12.9605V10.6878C1.66797 9.74112 2.42797 8.98045 3.3613 8.98045ZM13.308 1.33398H11.0547C10.1147 1.33398 9.36137 2.10065 9.36137 3.04132V5.31398C9.36137 6.26065 10.1147 7.02065 11.0547 7.02065H13.308C14.2414 7.02065 15.0014 6.26065 15.0014 5.31398V3.04132C15.0014 2.10065 14.2414 1.33398 13.308 1.33398ZM11.0547 8.98045H13.308C14.2414 8.98045 15.0014 9.74112 15.0014 10.6878V12.9605C15.0014 13.9005 14.2414 14.6671 13.308 14.6671H11.0547C10.1147 14.6671 9.36137 13.9005 9.36137 12.9605V10.6878C9.36137 9.74112 10.1147 8.98045 11.0547 8.98045Z" fill="#9E9E9E"/>
</svg>
