<svg width="17" height="16" viewBox="0 0 17 16" fill="none" xmlns="http://www.w3.org/2000/svg">
<path fill-rule="evenodd" clip-rule="evenodd" d="M6.43317 1.33398H10.5465C12.3532 1.33398 13.8132 2.04732 13.8332 3.86065V13.9807C13.8332 14.094 13.8065 14.2073 13.7532 14.3073C13.6665 14.4673 13.5198 14.5873 13.3398 14.6407C13.1665 14.694 12.9732 14.6673 12.8132 14.574L8.49317 12.414L4.1665 14.574C4.06717 14.6267 3.95317 14.6607 3.83984 14.6607C3.4665 14.6607 3.1665 14.354 3.1665 13.9807V3.86065C3.1665 2.04732 4.63317 1.33398 6.43317 1.33398ZM5.97984 6.41398H10.9998C11.2865 6.41398 11.5198 6.17998 11.5198 5.88732C11.5198 5.59398 11.2865 5.36065 10.9998 5.36065H5.97984C5.69317 5.36065 5.45984 5.59398 5.45984 5.88732C5.45984 6.17998 5.69317 6.41398 5.97984 6.41398Z" fill="#9E9E9E"/>
</svg>
