<svg width="17" height="16" viewBox="0 0 17 16" fill="none" xmlns="http://www.w3.org/2000/svg">
<path fill-rule="evenodd" clip-rule="evenodd" d="M6.14393 3.48953C5.99522 3.69038 6.0123 3.97688 6.20017 4.1587C6.40017 4.3587 6.72684 4.3587 6.92684 4.1587L7.98684 3.09203V5.85203H9.01351V3.09203L10.0735 4.1587L10.131 4.20828C10.3319 4.35704 10.6184 4.34052 10.8002 4.1587C10.9002 4.0587 10.9535 3.92536 10.9535 3.79203C10.9535 3.66536 10.9002 3.53203 10.8002 3.43203L8.86017 1.48536L8.79969 1.43102C8.71351 1.36616 8.60684 1.33203 8.50017 1.33203C8.36017 1.33203 8.23351 1.38536 8.13351 1.48536L6.19351 3.43203L6.14393 3.48953ZM4.65415 5.85545C3.08531 5.92955 1.83337 7.24926 1.83337 8.85701V12.1671L1.8366 12.3088C1.90944 13.9053 3.2069 15.1855 4.80004 15.1855H12.2067L12.3459 15.1822C13.9148 15.1081 15.1667 13.7882 15.1667 12.1739V8.87058L15.1635 8.72836C15.0903 7.12594 13.7867 5.85216 12.2 5.85216H9.01337V9.92193L9.00862 9.99348C8.97416 10.2504 8.75671 10.4442 8.50004 10.4442C8.21337 10.4442 7.98671 10.2136 7.98671 9.92193V5.85216H4.79337L4.65415 5.85545Z" fill="#9E9E9E"/>
</svg>
