<svg width="17" height="16" viewBox="0 0 17 16" fill="none" xmlns="http://www.w3.org/2000/svg">
<path fill-rule="evenodd" clip-rule="evenodd" d="M9.46659 3.25215H11.5133C13.9733 3.25215 15.1733 4.56548 15.1666 7.25881V10.5055C15.1666 13.0788 13.5799 14.6655 10.9999 14.6655H5.99325C3.42659 14.6655 1.83325 13.0788 1.83325 10.4988V5.49215C1.83325 2.73215 3.05992 1.33215 5.47992 1.33215H6.53325C7.15392 1.32548 7.73325 1.61215 8.11325 2.09881L8.69992 2.87881C8.88659 3.11215 9.16659 3.25215 9.46659 3.25215ZM5.41325 10.1921H11.5866C11.8599 10.1921 12.0799 9.96548 12.0799 9.69214C12.0799 9.41214 11.8599 9.19214 11.5866 9.19214H5.41325C5.13325 9.19214 4.91325 9.41214 4.91325 9.69214C4.91325 9.96548 5.13325 10.1921 5.41325 10.1921Z" fill="#9E9E9E"/>
</svg>
