<svg width="186" height="180" viewBox="0 0 186 180" fill="none" xmlns="http://www.w3.org/2000/svg">
<rect x="22" y="17" width="144" height="144" rx="72" fill="url(#paint0_linear_2358_55239)"/>
<path fill-rule="evenodd" clip-rule="evenodd" d="M84.7217 80.914H104.401C110.196 80.914 114.895 85.5101 114.895 91.1789V103.318C114.895 108.987 110.196 113.583 104.401 113.583H83.5951C77.8023 113.583 73.1035 108.987 73.1035 103.318V91.1789C73.1035 86.5168 76.301 82.6244 80.6525 81.3734L80.3802 81.4052V77.6594C80.4302 70.356 86.5028 64.416 93.9469 64.416C99.7672 64.416 104.911 68.0103 106.809 73.3345C107.009 73.8721 106.959 74.4585 106.709 74.9716C106.459 75.4847 106.012 75.8757 105.46 76.0492C104.336 76.4377 103.087 75.8537 102.662 74.7297C101.388 71.111 97.8937 68.692 93.9969 68.692C88.8984 68.692 84.7792 72.7017 84.7517 77.6105V80.9092L84.7217 80.914ZM93.9869 102.099C95.2109 102.099 96.1851 101.146 96.1851 99.9484V94.5239C96.1851 93.3511 95.2109 92.3982 93.9869 92.3982C92.7878 92.3982 91.8136 93.3511 91.8136 94.5239V99.9484C91.8136 101.146 92.7878 102.099 93.9869 102.099Z" fill="white"/>
<circle cx="178.434" cy="27.5" r="7.5" fill="#E86E76"/>
<circle cx="20" cy="10" r="10" fill="#E86E76"/>
<circle cx="10" cy="133" r="5" fill="#E86E76"/>
<circle cx="165.5" cy="160.5" r="2.5" fill="#E86E76"/>
<circle cx="106.5" cy="4.5" r="2.5" fill="#E86E76"/>
<circle cx="62.5" cy="176.5" r="3.5" fill="#E86E76"/>
<circle cx="122" cy="171" r="1" fill="#E86E76"/>
<circle cx="170.5" cy="110.5" r="2.5" fill="#E86E76"/>
<circle cx="1" cy="75" r="1" fill="#E86E76"/>
<defs>
<linearGradient id="paint0_linear_2358_55239" x1="166" y1="161" x2="-5.34707" y2="111.319" gradientUnits="userSpaceOnUse">
<stop stop-color="#FF4D67"/>
<stop offset="1" stop-color="#FF8A9B"/>
</linearGradient>
</defs>
</svg>
