<svg width="20" height="20" viewBox="0 0 20 20" fill="none" xmlns="http://www.w3.org/2000/svg">
<path fill-rule="evenodd" clip-rule="evenodd" d="M5.66618 20H14.3328C17.7231 20 20 17.6219 20 14.0833V5.91672C20 2.37811 17.7231 0 14.3338 0H5.66618C2.2769 0 0 2.37811 0 5.91672V14.0833C0 17.6219 2.2769 20 5.66618 20ZM6.49879 8.99973C5.12015 8.99973 3.99993 7.878 3.99993 6.49973C3.99993 5.12146 5.12015 3.99973 6.49879 3.99973C7.87643 3.99973 8.99765 5.12146 8.99765 6.49973C8.99765 7.878 7.87643 8.99973 6.49879 8.99973ZM17.8208 12.9338C18.1556 13.7924 17.9817 14.8244 17.6237 15.6747C17.1993 16.6861 16.3868 17.4518 15.3632 17.7862C14.9086 17.9348 14.432 17.9998 13.9564 17.9998H5.52862C4.68997 17.9998 3.94786 17.7986 3.33948 17.424C2.95837 17.1887 2.89099 16.6459 3.17356 16.2939C3.64618 15.7057 4.11277 15.1154 4.58338 14.5199C5.48035 13.3806 6.08471 13.0504 6.75643 13.3404C7.02894 13.4601 7.30246 13.6397 7.58402 13.8295C8.33418 14.3393 9.37696 15.0401 10.7506 14.2795C11.6906 13.753 12.2358 12.85 12.7106 12.0635L12.7185 12.0504C12.7521 11.9953 12.7854 11.9402 12.8186 11.8852L12.8187 11.885C12.9783 11.621 13.1357 11.3605 13.3138 11.1206C13.537 10.8203 14.3646 9.88115 15.4366 10.5499C16.1194 10.9709 16.6935 11.5406 17.3079 12.1505C17.5422 12.3837 17.7092 12.6489 17.8208 12.9338Z" fill="url(#paint0_linear_1950_3452)"/>
<defs>
<linearGradient id="paint0_linear_1950_3452" x1="20" y1="20" x2="-3.7982" y2="13.0999" gradientUnits="userSpaceOnUse">
<stop stop-color="#FF4D67"/>
<stop offset="1" stop-color="#FF8A9B"/>
</linearGradient>
</defs>
</svg>
