<svg width="276" height="181" viewBox="0 0 276 181" fill="none" xmlns="http://www.w3.org/2000/svg">
<rect x="67" y="17.5" width="144" height="144" rx="72" fill="url(#paint0_linear_2358_55262)"/>
<path fill-rule="evenodd" clip-rule="evenodd" d="M148.464 66.1469C150.015 66.1469 151.564 66.3657 153.036 66.8598C162.11 69.8098 165.38 79.766 162.649 88.4685C161.1 92.9157 158.568 96.9744 155.251 100.291C150.504 104.888 145.295 108.969 139.688 112.484L139.073 112.855L138.434 112.459C132.807 108.969 127.568 104.888 122.777 100.266C119.483 96.9498 116.948 92.9157 115.375 88.4685C112.597 79.766 115.866 69.8098 125.039 66.8082C125.751 66.5623 126.486 66.3903 127.224 66.2944H127.519C128.21 66.1936 128.896 66.1469 129.584 66.1469H129.854C131.403 66.1936 132.903 66.464 134.356 66.9581H134.501C134.599 67.0048 134.673 67.0565 134.722 67.1032C135.265 67.2777 135.779 67.4744 136.271 67.7448L137.205 68.1627C137.431 68.2831 137.684 68.4671 137.903 68.626C138.042 68.7268 138.167 68.8175 138.262 68.8756C138.302 68.8993 138.343 68.9231 138.384 68.9471C138.595 69.0701 138.814 69.1983 138.999 69.3403C141.731 67.2531 145.047 66.1223 148.464 66.1469ZM155.003 83.8469C156.011 83.8198 156.871 83.011 156.945 81.9761V81.6835C157.019 78.2394 154.932 75.1198 151.758 73.9152C150.75 73.5686 149.644 74.1119 149.275 75.1444C148.931 76.1769 149.472 77.3077 150.504 77.674C152.08 78.264 153.135 79.8152 153.135 81.5336V81.6098C153.088 82.1728 153.258 82.716 153.602 83.134C153.946 83.5519 154.462 83.7953 155.003 83.8469Z" fill="white"/>
<circle cx="223.434" cy="28" r="7.5" fill="#E86E76"/>
<circle cx="65" cy="10.5" r="10" fill="#E86E76"/>
<circle cx="55" cy="133.5" r="5" fill="#E86E76"/>
<circle cx="210.5" cy="161" r="2.5" fill="#E86E76"/>
<circle cx="151.5" cy="5" r="2.5" fill="#E86E76"/>
<circle cx="107.5" cy="177" r="3.5" fill="#E86E76"/>
<circle cx="167" cy="171.5" r="1" fill="#E86E76"/>
<circle cx="215.5" cy="111" r="2.5" fill="#E86E76"/>
<circle cx="46" cy="75.5" r="1" fill="#E86E76"/>
<defs>
<linearGradient id="paint0_linear_2358_55262" x1="211" y1="161.5" x2="39.6529" y2="111.819" gradientUnits="userSpaceOnUse">
<stop stop-color="#FF4D67"/>
<stop offset="1" stop-color="#FF8A9B"/>
</linearGradient>
</defs>
</svg>
