<svg width="20" height="20" viewBox="0 0 20 20" fill="none" xmlns="http://www.w3.org/2000/svg">
<path fill-rule="evenodd" clip-rule="evenodd" d="M6.38979 18.3327H13.612C16.4372 18.3327 18.3346 16.3509 18.3346 13.4021V6.59662C18.3346 3.64778 16.4372 1.66602 13.6128 1.66602H6.38979C3.56538 1.66602 1.66797 3.64778 1.66797 6.59662V13.4021C1.66797 16.3509 3.56538 18.3327 6.38979 18.3327ZM7.08433 9.16602C5.93546 9.16602 5.00195 8.23124 5.00195 7.08268C5.00195 5.93412 5.93546 4.99935 7.08433 4.99935C8.23237 4.99935 9.16672 5.93412 9.16672 7.08268C9.16672 8.23124 8.23237 9.16602 7.08433 9.16602ZM16.5193 12.4444C16.7983 13.1599 16.6534 14.0199 16.3551 14.7285C16.0014 15.5713 15.3243 16.2094 14.4713 16.4881C14.0925 16.6119 13.6953 16.6661 13.2989 16.6661H6.27582C5.57695 16.6661 4.95852 16.4984 4.45154 16.1862C4.13394 15.9901 4.0778 15.5378 4.31327 15.2445C4.70712 14.7543 5.09595 14.2624 5.48812 13.7662C6.2356 12.8168 6.73923 12.5416 7.299 12.7832C7.52609 12.883 7.75402 13.0326 7.98866 13.1909C8.61379 13.6157 9.48278 14.1996 10.6275 13.5658C11.4108 13.1271 11.8651 12.3745 12.2608 11.7192L12.2674 11.7082C12.2954 11.6623 12.3232 11.6163 12.3509 11.5704L12.3509 11.5704C12.4839 11.3504 12.6151 11.1334 12.7635 10.9334C12.9495 10.6831 13.6392 9.90053 14.5324 10.4578C15.1014 10.8087 15.5799 11.2834 16.0919 11.7916C16.2872 11.986 16.4263 12.207 16.5193 12.4444Z" fill="white"/>
</svg>
