<svg width="364" height="351" viewBox="0 0 364 351" fill="none" xmlns="http://www.w3.org/2000/svg">
<path d="M85.457 236.953C84.7859 238.068 83.7286 238.898 82.4859 239.285C81.2432 239.673 79.9016 239.59 78.7156 239.054C77.5297 238.517 76.582 237.564 76.0525 236.375C75.523 235.186 75.4484 233.844 75.843 232.603L55.3145 190.429L65.141 184.47L82.8699 229.268C82.9376 229.294 83.0044 229.322 83.0702 229.351C83.136 229.38 83.2015 229.41 83.2666 229.441L83.463 229.539C83.5288 229.572 83.5927 229.609 83.6545 229.649C84.8619 230.378 85.7304 231.556 86.069 232.925C86.4077 234.294 86.1888 235.742 85.4604 236.949L85.457 236.953Z" fill="#FEB8B8"/>
<path d="M59.2338 206.691L73.8168 202.953C73.8168 202.953 73.3405 201.876 72.5667 200.093C71.7928 198.31 70.7116 195.821 69.4954 193C68.2792 190.179 66.9299 187.022 65.6115 183.904C64.2932 180.786 63.0092 177.705 61.9319 175.035C60.8546 172.365 59.6242 170.763 58.3932 169.869C57.3729 169.094 56.0879 168.752 54.8172 168.918C53.8296 169.066 52.8857 169.425 52.0503 169.972C51.6549 170.218 51.283 170.5 50.9397 170.815L47.5586 176.964L59.2338 206.691Z" fill="#CCCCCC"/>
<path d="M44.7422 320.284L53.6668 320.249L50.789 343.569L44.7422 343.599V320.284Z" fill="#FEB8B8"/>
<path d="M43.1992 349.466L62.6859 349.363V349.118C62.6857 348.618 62.6363 348.119 62.5386 347.628C62.347 346.66 61.9651 345.74 61.4152 344.921C60.8566 344.091 60.1406 343.379 59.3078 342.824C58.4859 342.278 57.5639 341.9 56.5949 341.712C56.1037 341.618 55.6044 341.572 55.1042 341.575L43.1973 341.633L43.1992 349.466Z" fill="#2F2E41"/>
<path d="M73.3164 320.174L82.2154 320.139L79.347 343.427L73.3169 343.457L73.3164 320.174Z" fill="#FEB8B8"/>
<path d="M71.7803 349.315L91.2159 349.213V348.968C91.2155 348.468 91.1661 347.97 91.0686 347.48C90.8776 346.514 90.4967 345.595 89.9481 344.777C89.3912 343.947 88.6768 343.236 87.8456 342.682C87.0262 342.136 86.1065 341.759 85.1401 341.572C84.6502 341.478 84.1522 341.432 83.6534 341.435L71.7793 341.493L71.7803 349.315Z" fill="#2F2E41"/>
<path d="M73.6962 224.859L88.6607 280.705L83.183 334.238L71.055 334.572L73.6957 286.235L58.5652 262.112L55.2838 334.901L44.2808 334.123L38.1623 271.54C36.0836 266.653 34.5592 261.549 33.6175 256.322C32.8774 252.22 32.5175 248.058 32.5422 243.89C32.5547 241.083 32.7703 238.282 33.1874 235.507C33.3364 234.472 33.5382 233.447 33.7918 232.433L38.2536 227.91L73.6962 224.859Z" fill="#2F2E41"/>
<path d="M53.8679 234.2C56.3843 234.2 58.746 234.119 60.8893 233.96C63.0766 233.81 65.2524 233.523 67.404 233.102C69.2358 232.76 71.0198 232.198 72.7172 231.429C74.0837 230.839 75.2719 229.902 76.1636 228.71L76.2657 228.562L72.1756 201.943L67.7649 172.012C67.4751 170.031 66.4668 168.226 64.9321 166.94C63.3974 165.655 61.4434 164.978 59.4423 165.04L45.6283 165.463C43.5759 165.526 41.6325 166.402 40.2257 167.898C38.8189 169.393 38.0639 171.387 38.1268 173.439C38.1291 173.517 38.1327 173.595 38.1374 173.672L39.9507 203.438L33.2617 232.801L33.7355 232.867C33.9261 232.892 34.6601 232.989 35.8101 233.118C37.313 233.287 38.8479 233.44 40.3715 233.571C42.527 233.757 44.6369 233.903 46.6412 234.006C49.1812 234.134 51.6176 234.197 53.8679 234.2Z" fill="#CCCCCC"/>
<path d="M61.5341 159.752H61.5449C62.1302 159.751 62.6912 159.518 63.1047 159.103C63.5182 158.689 63.7505 158.128 63.7505 157.542V145.227C63.7527 143.021 63.3112 140.836 62.4523 138.804C60.7698 134.837 57.6214 131.673 53.6632 129.971C51.1602 128.897 48.4301 128.461 45.7173 128.702C43.0044 128.942 40.3936 129.852 38.1185 131.349C35.8435 132.846 33.9752 134.884 32.6811 137.28C31.387 139.677 30.7074 142.357 30.7031 145.08V157.415C30.7027 157.712 30.7622 158.005 30.8779 158.279C31.1047 158.812 31.5286 159.237 32.0613 159.465C32.3346 159.582 32.6287 159.642 32.9259 159.643L61.5341 159.752Z" fill="#2F2E41"/>
<path d="M39.767 141.004C38.6147 143.108 38.1118 145.507 38.3221 147.898C38.5323 150.288 39.4462 152.562 40.9483 154.434C42.4504 156.305 44.4733 157.689 46.7616 158.411C49.0499 159.133 51.5009 159.161 53.805 158.491C55.331 158.053 56.7548 157.316 57.994 156.324C59.2331 155.331 60.263 154.102 61.0238 152.709C62.1733 150.605 62.6743 148.208 62.4634 145.82C62.2526 143.432 61.3394 141.159 59.839 139.29C58.3386 137.42 56.3182 136.036 54.0324 135.313C51.7467 134.59 49.2981 134.559 46.9952 135.226C45.468 135.663 44.0428 136.398 42.8022 137.39C41.5616 138.382 40.5302 139.611 39.768 141.004L39.767 141.004Z" fill="#FEB8B8"/>
<path d="M67.6579 146.23C67.6594 144.485 67.31 142.757 66.6307 141.15C65.3007 138.014 62.8114 135.512 59.6819 134.166C58.0763 133.478 56.3487 133.12 54.6019 133.113L52.1371 133.101H52.0541C48.6069 133.103 45.3018 134.475 42.8657 136.914C40.4297 139.353 39.0624 142.659 39.0645 146.107V146.352L44.279 146.373L46.0569 141.406L46.4124 146.383L49.1056 146.395L50.0022 143.891L50.1819 146.4L67.6554 146.478L67.6579 146.23Z" fill="#2F2E41"/>
<path d="M88.6501 172.138C89.4527 172.335 90.2032 172.704 90.8498 173.219C91.355 173.619 91.7869 174.103 92.1264 174.651C92.7963 175.735 93.0915 177.009 92.9665 178.277C92.9034 178.918 92.7296 179.542 92.4529 180.124C92.1119 180.848 91.621 181.492 91.0128 182.012C90.4046 182.533 89.6929 182.919 88.9246 183.144C88.1564 183.37 87.349 183.429 86.556 183.32C85.7629 183.21 85.0021 182.933 84.3238 182.508C84.2737 182.475 84.2246 182.443 84.1765 182.41C84.1284 182.377 84.0803 182.343 84.0321 182.308C83.9847 182.273 83.9379 182.238 83.8917 182.203C83.8455 182.167 83.7999 182.131 83.7547 182.094L54.9816 192.335C54.0962 192.649 53.1325 192.668 52.2355 192.388C51.3386 192.108 50.5569 191.544 50.0081 190.781L43.1836 181.335L51.4325 175.782L55.7593 180.697L82.0931 175.459C82.1219 175.39 82.1517 175.322 82.1825 175.255C82.2132 175.187 82.246 175.12 82.2807 175.053C82.3134 174.988 82.3484 174.921 82.3857 174.854C82.4231 174.786 82.4612 174.721 82.5002 174.657C83.1285 173.642 84.0619 172.852 85.1668 172.4C86.2716 171.947 87.4912 171.856 88.651 172.139L88.6501 172.138Z" fill="#FEB8B8"/>
<path d="M55.2963 177.596C54.4355 176.521 53.234 175.127 52.0094 173.743C50.7849 172.359 49.546 170.988 48.6097 169.962C47.6733 168.936 47.0439 168.257 47.0439 168.257C46.1798 166.951 44.8903 165.984 43.3942 165.521C41.8981 165.057 40.2877 165.126 38.8367 165.715C37.3856 166.305 36.1833 167.378 35.4339 168.754C34.6846 170.129 34.4344 171.721 34.7259 173.26C34.8924 174.146 35.2365 174.989 35.7374 175.739C35.7374 175.739 36.6762 176.966 38.0942 178.8C39.5123 180.635 41.4071 183.075 43.3196 185.502C45.232 187.928 47.1632 190.343 48.6519 192.124C50.1406 193.906 51.189 195.058 51.3363 194.959L56.5297 179.521C56.6765 179.422 56.157 178.67 55.2963 177.596Z" fill="#CCCCCC"/>
<path d="M52.2124 159.363C52.2941 159.762 52.2625 160.175 52.1211 160.556C52.0501 160.751 51.952 160.935 51.8299 161.103C51.7255 161.246 51.6045 161.376 51.4695 161.491C51.0693 161.829 50.5617 162.013 50.0377 162.011C50.005 162.011 49.9723 162.01 49.9395 162.008C49.9068 162.006 49.8741 162.004 49.8413 162.001C49.8086 161.999 49.7759 161.995 49.7431 161.99C49.7104 161.986 49.6777 161.981 49.6449 161.975L47.7943 161.638L45.245 156.192V161.181L36.8301 159.666V138.496L50.9368 138.563L50.5881 138.968C49.4306 140.328 48.6704 141.98 48.3914 143.743C48.1177 145.529 48.1521 147.349 48.493 149.123C48.8244 150.918 49.3274 152.678 49.995 154.377C50.5786 155.882 51.2485 157.353 52.0013 158.781C52.0986 158.964 52.1696 159.16 52.2124 159.363Z" fill="#2F2E41"/>
<path d="M363.197 350.5H0.265625V349.466H363.733L363.197 350.5Z" fill="#CACACA"/>
<path d="M266.998 83.4275H265.083V30.9008C265.083 22.838 261.881 15.1055 256.179 9.40419C250.478 3.70293 242.745 0.5 234.683 0.5H123.395C119.403 0.499936 115.45 1.28621 111.762 2.81394C108.073 4.34166 104.722 6.58091 101.899 9.40384C99.0757 12.2268 96.8363 15.5781 95.3085 19.2665C93.7806 22.9548 92.9942 26.908 92.9941 30.9003V319.066C92.9941 323.058 93.7805 327.011 95.3083 330.699C96.836 334.388 99.0754 337.739 101.898 340.562C104.721 343.385 108.073 345.625 111.761 347.152C115.449 348.68 119.403 349.466 123.395 349.466H234.681C242.744 349.466 250.477 346.263 256.178 340.562C261.879 334.861 265.082 327.128 265.082 319.066V120.817H266.997L266.998 83.4275Z" fill="#3F3D56"/>
<path d="M258.885 28.8646V321.101C258.884 327.214 256.455 333.077 252.133 337.4C247.811 341.723 241.949 344.152 235.836 344.155H122.265C116.15 344.156 110.284 341.727 105.959 337.404C101.634 333.081 99.203 327.216 99.2012 321.101V28.8646C99.203 22.7494 101.634 16.8852 105.959 12.562C110.284 8.23877 116.149 5.8105 122.264 5.81128H136.041C135.365 7.47481 135.107 9.27904 135.291 11.0654C135.475 12.8517 136.096 14.5655 137.097 16.0561C138.099 17.5466 139.451 18.7683 141.035 19.6138C142.62 20.4593 144.388 20.9026 146.183 20.9049H210.932C212.728 20.9026 214.495 20.4593 216.08 19.6138C217.664 18.7683 219.016 17.5466 220.018 16.0561C221.02 14.5655 221.64 12.8517 221.824 11.0654C222.008 9.27904 221.75 7.47481 221.074 5.81128H235.831C241.944 5.81232 247.807 8.24088 252.13 12.563C256.453 16.8852 258.882 22.7472 258.885 28.8602V28.8646Z" fill="white"/>
<path d="M180.26 145.777C167.329 145.782 154.926 140.65 145.779 131.511C136.632 122.371 131.49 109.973 131.484 97.0422V96.999C131.484 96.8968 131.484 96.7893 131.49 96.6872C131.638 69.9763 153.518 48.2246 180.26 48.2246C193.196 48.2239 205.602 53.362 214.75 62.5087C223.898 71.6553 229.037 84.0612 229.038 96.9973C229.039 109.933 223.9 122.34 214.754 131.487C205.607 140.635 193.201 145.775 180.265 145.775H180.26V145.777ZM180.26 49.2508C167.654 49.279 155.568 54.2806 146.628 63.169C137.689 72.0573 132.618 84.1143 132.517 96.7201C132.512 96.8291 132.512 96.9165 132.512 96.9995C132.511 106.444 135.311 115.678 140.557 123.531C145.803 131.385 153.261 137.507 161.986 141.123C170.712 144.738 180.314 145.685 189.577 143.843C198.841 142.002 207.351 137.455 214.03 130.777C220.709 124.099 225.259 115.591 227.102 106.328C228.946 97.0643 228.002 87.4624 224.388 78.7359C220.775 70.0095 214.655 62.5505 206.803 57.3022C198.95 52.0539 189.717 49.252 180.273 49.2508H180.26Z" fill="#CCCCCC"/>
<path d="M230.697 197.059H129.777C129.282 197.059 128.806 196.862 128.456 196.511C128.106 196.161 127.909 195.686 127.908 195.19V170.157C127.909 169.661 128.106 169.186 128.456 168.836C128.807 168.486 129.282 168.289 129.777 168.288H230.697C231.193 168.289 231.668 168.486 232.018 168.836C232.369 169.186 232.566 169.661 232.566 170.157V195.191C232.566 195.686 232.369 196.161 232.018 196.512C231.668 196.862 231.193 197.059 230.697 197.06V197.059ZM129.777 169.035C129.48 169.036 129.195 169.154 128.984 169.364C128.774 169.574 128.656 169.86 128.656 170.157V195.191C128.656 195.488 128.774 195.773 128.984 195.984C129.195 196.194 129.48 196.312 129.777 196.312H230.697C230.995 196.312 231.28 196.194 231.49 195.984C231.7 195.773 231.819 195.488 231.819 195.191V170.157C231.819 169.86 231.7 169.574 231.49 169.364C231.28 169.154 230.995 169.036 230.697 169.035H129.777Z" fill="#E6E6E6"/>
<path d="M142.859 190.523C147.194 190.523 150.708 187.008 150.708 182.673C150.708 178.338 147.194 174.824 142.859 174.824C138.524 174.824 135.01 178.338 135.01 182.673C135.01 187.008 138.524 190.523 142.859 190.523Z" fill="#CCCCCC"/>
<path d="M160.988 177.44C160.641 177.44 160.308 177.578 160.063 177.824C159.818 178.069 159.68 178.402 159.68 178.749C159.68 179.096 159.818 179.428 160.063 179.674C160.308 179.919 160.641 180.057 160.988 180.057H222.661C223.008 180.07 223.346 179.945 223.6 179.709C223.855 179.474 224.006 179.146 224.019 178.8C224.032 178.453 223.907 178.115 223.671 177.86C223.435 177.606 223.108 177.455 222.761 177.442C222.742 177.441 222.723 177.441 222.704 177.441H160.988V177.44Z" fill="#E6E6E6"/>
<path d="M160.988 185.289C160.641 185.289 160.308 185.427 160.063 185.672C159.818 185.918 159.68 186.251 159.68 186.598C159.68 186.945 159.818 187.277 160.063 187.523C160.308 187.768 160.641 187.906 160.988 187.906H222.661C223.008 187.919 223.346 187.794 223.6 187.558C223.855 187.323 224.006 186.995 224.019 186.648C224.032 186.302 223.907 185.964 223.671 185.709C223.435 185.455 223.108 185.304 222.761 185.291C222.742 185.29 222.723 185.29 222.704 185.29H160.988V185.289Z" fill="#E6E6E6"/>
<path d="M230.697 238.922H129.777C129.282 238.922 128.806 238.725 128.456 238.374C128.106 238.024 127.909 237.549 127.908 237.053V212.02C127.909 211.524 128.106 211.049 128.456 210.699C128.807 210.349 129.282 210.152 129.777 210.151H230.697C231.193 210.152 231.668 210.349 232.018 210.699C232.369 211.049 232.566 211.524 232.566 212.02V237.054C232.565 237.549 232.368 238.024 232.018 238.374C231.668 238.724 231.193 238.921 230.697 238.922ZM129.777 210.898C129.48 210.898 129.195 211.017 128.984 211.227C128.774 211.437 128.656 211.722 128.656 212.02V237.054C128.656 237.351 128.774 237.636 128.984 237.847C129.195 238.057 129.48 238.175 129.777 238.175H230.697C230.995 238.175 231.28 238.057 231.49 237.847C231.7 237.636 231.819 237.351 231.819 237.054V212.02C231.819 211.722 231.7 211.437 231.49 211.227C231.28 211.017 230.995 210.898 230.697 210.898H129.777Z" fill="#E6E6E6"/>
<path d="M142.859 232.386C147.194 232.386 150.708 228.872 150.708 224.537C150.708 220.201 147.194 216.687 142.859 216.687C138.524 216.687 135.01 220.201 135.01 224.537C135.01 228.872 138.524 232.386 142.859 232.386Z" fill="#CCCCCC"/>
<path d="M160.988 219.302C160.641 219.302 160.308 219.44 160.063 219.685C159.818 219.931 159.68 220.263 159.68 220.61C159.68 220.957 159.818 221.29 160.063 221.535C160.308 221.781 160.641 221.919 160.988 221.919H222.661C223.003 221.917 223.331 221.781 223.574 221.54C223.817 221.3 223.956 220.973 223.962 220.631C223.968 220.289 223.839 219.959 223.604 219.71C223.369 219.462 223.046 219.316 222.704 219.302H160.988V219.302Z" fill="#E6E6E6"/>
<path d="M160.988 227.153C160.641 227.153 160.308 227.29 160.063 227.536C159.818 227.781 159.68 228.114 159.68 228.461C159.68 228.808 159.818 229.141 160.063 229.386C160.308 229.631 160.641 229.769 160.988 229.769H222.661C223.003 229.767 223.331 229.631 223.574 229.391C223.817 229.15 223.956 228.824 223.962 228.482C223.968 228.14 223.839 227.809 223.604 227.561C223.369 227.313 223.046 227.166 222.704 227.153H160.988V227.153Z" fill="#E6E6E6"/>
<path d="M230.697 280.785H129.777C129.282 280.784 128.806 280.587 128.456 280.237C128.106 279.886 127.909 279.411 127.908 278.916V253.882C127.909 253.387 128.106 252.912 128.456 252.561C128.807 252.211 129.282 252.014 129.777 252.013H230.697C231.193 252.014 231.668 252.211 232.018 252.561C232.369 252.912 232.566 253.387 232.566 253.882V278.916C232.566 279.412 232.369 279.887 232.018 280.237C231.668 280.587 231.193 280.784 230.697 280.785V280.785ZM129.777 252.761C129.48 252.761 129.195 252.879 128.984 253.09C128.774 253.3 128.656 253.585 128.656 253.882V278.916C128.656 279.214 128.774 279.499 128.984 279.709C129.195 279.919 129.48 280.038 129.777 280.038H230.697C230.995 280.038 231.28 279.919 231.49 279.709C231.7 279.499 231.819 279.214 231.819 278.916V253.882C231.819 253.585 231.7 253.3 231.49 253.09C231.28 252.879 230.995 252.761 230.697 252.761H129.777Z" fill="#E6E6E6"/>
<path d="M142.859 274.249C147.194 274.249 150.708 270.735 150.708 266.4C150.708 262.065 147.194 258.55 142.859 258.55C138.524 258.55 135.01 262.065 135.01 266.4C135.01 270.735 138.524 274.249 142.859 274.249Z" fill="#CCCCCC"/>
<path d="M160.988 261.166C160.641 261.166 160.308 261.304 160.063 261.549C159.818 261.794 159.68 262.127 159.68 262.474C159.68 262.821 159.818 263.154 160.063 263.399C160.308 263.645 160.641 263.782 160.988 263.782H222.661C223.008 263.796 223.346 263.671 223.6 263.435C223.855 263.199 224.006 262.872 224.019 262.525C224.032 262.178 223.907 261.84 223.671 261.586C223.435 261.331 223.108 261.18 222.761 261.167C222.742 261.166 222.723 261.166 222.704 261.166H160.988V261.166Z" fill="#E6E6E6"/>
<path d="M160.988 269.016C160.641 269.016 160.308 269.153 160.063 269.399C159.818 269.644 159.68 269.977 159.68 270.324C159.68 270.671 159.818 271.004 160.063 271.249C160.308 271.494 160.641 271.632 160.988 271.632H222.661C222.833 271.639 223.004 271.611 223.165 271.552C223.326 271.492 223.474 271.401 223.6 271.285C223.726 271.168 223.828 271.027 223.9 270.871C223.972 270.715 224.012 270.546 224.019 270.375C224.025 270.203 223.998 270.032 223.938 269.871C223.879 269.709 223.788 269.562 223.671 269.435C223.555 269.309 223.414 269.208 223.258 269.136C223.102 269.064 222.933 269.024 222.761 269.017C222.742 269.016 222.723 269.016 222.704 269.016H160.988V269.016Z" fill="#E6E6E6"/>
<path d="M119.762 212.849H138.368C139.531 204.262 136.964 196.246 138.368 190.522H119.762C116.259 197.965 116.259 205.407 119.762 212.849Z" fill="#FF6584"/>
<path d="M240.555 255.934H221.949C222.647 247.349 224.895 239.332 221.949 233.606H240.555C244.058 241.049 244.058 248.491 240.555 255.934Z" fill="#F9343A"/>
<path d="M206.139 299.192H187.533C188.231 290.607 190.479 282.59 187.533 276.865H206.139C209.642 284.307 209.642 291.749 206.139 299.192Z" fill="#F9343A"/>
<path d="M205.186 139.071C197.537 143.71 188.707 146.032 179.765 145.754C170.824 145.476 162.154 142.611 154.809 137.505C156.349 134.264 158.776 131.526 161.809 129.608C164.842 127.69 168.356 126.671 171.945 126.669H187.391C191.27 126.668 195.055 127.857 198.237 130.075C201.42 132.293 203.845 135.433 205.187 139.073L205.186 139.071Z" fill="#F9343A"/>
<path d="M159.189 94.292C161.525 86.8468 166.838 80.0183 174.185 77.4995C181.532 74.9806 194.35 77.335 197.815 84.3215C202.808 94.3907 200.565 106.721 197.917 117.654C196.536 117.581 195.143 117.523 193.743 117.471L191.767 110.882V117.406C180.859 117.069 169.503 117.28 158.141 117.499C157.125 109.76 156.853 101.737 159.189 94.292Z" fill="#2F2E41"/>
<path d="M175.198 118.258C184.436 118.258 191.925 110.769 191.925 101.531C191.925 92.2927 184.436 84.8037 175.198 84.8037C165.96 84.8037 158.471 92.2927 158.471 101.531C158.471 110.769 165.96 118.258 175.198 118.258Z" fill="#FEB8B8"/>
<path d="M164.286 81.3775C167.314 79.5316 170.782 78.5331 174.328 78.4863C177.873 78.4396 181.367 79.3463 184.442 81.1117C187.517 82.877 190.062 85.4362 191.81 88.5216C193.557 91.607 194.444 95.1053 194.377 98.6507C185.569 99.0558 176.316 99.1614 166.934 99.1795L164.715 93.7524L163.408 99.183C160.55 99.183 157.686 99.1792 154.816 99.1717C154.699 95.6363 155.512 92.1321 157.174 89.0095C158.836 85.8868 161.288 83.2552 164.286 81.3775Z" fill="#2F2E41"/>
<path d="M331.344 334.706C331.213 339.609 330.392 344.468 328.905 349.142C328.871 349.25 328.835 349.357 328.8 349.465H319.695C319.705 349.367 319.715 349.26 319.724 349.142C320.331 342.163 323.831 299.689 319.646 292.426C320.013 293.015 332.048 312.532 331.344 334.706Z" fill="#F0F0F0"/>
<path d="M329.884 348.789C329.725 349.016 329.559 349.243 329.39 349.466H315.107C315.216 349.273 315.341 349.047 315.486 348.789C317.846 344.53 324.83 331.8 331.313 318.599C338.28 304.414 344.672 289.691 344.133 284.363C344.299 285.565 349.118 322.201 329.884 348.789Z" fill="#F0F0F0"/>
</svg>
