<svg width="32" height="32" viewBox="0 0 32 32" fill="none" xmlns="http://www.w3.org/2000/svg">
<path fill-rule="evenodd" clip-rule="evenodd" d="M20.0527 5.402C21.3993 5.938 21.8113 7.80467 22.362 8.40467C22.9127 9.00467 23.7007 9.20867 24.1367 9.20867C26.454 9.20867 28.3327 11.0873 28.3327 13.4033V21.13C28.3327 24.2367 25.8127 26.7567 22.706 26.7567H9.29268C6.18468 26.7567 3.66602 24.2367 3.66602 21.13V13.4033C3.66602 11.0873 5.54468 9.20867 7.86202 9.20867C8.29668 9.20867 9.08468 9.00467 9.63668 8.40467C10.1873 7.80467 10.598 5.938 11.9447 5.402C13.2927 4.866 18.706 4.866 20.0527 5.402Z" stroke="#F9343A" stroke-width="2" stroke-linecap="round" stroke-linejoin="round"/>
<path d="M23.3267 12.6667H23.3387" stroke="#F9343A" stroke-width="2.66667" stroke-linecap="round" stroke-linejoin="round"/>
<path fill-rule="evenodd" clip-rule="evenodd" d="M20.2371 17.5043C20.2371 15.163 18.3398 13.2656 15.9984 13.2656C13.6571 13.2656 11.7598 15.163 11.7598 17.5043C11.7598 19.8456 13.6571 21.743 15.9984 21.743C18.3398 21.743 20.2371 19.8456 20.2371 17.5043Z" stroke="#F9343A" stroke-width="2" stroke-linecap="round" stroke-linejoin="round"/>
</svg>
