<svg width="20" height="20" viewBox="0 0 20 20" fill="none" xmlns="http://www.w3.org/2000/svg">
<path fill-rule="evenodd" clip-rule="evenodd" d="M14.5334 5.197C14.5667 5.25527 14.625 5.29689 14.7 5.29689C16.7 5.29689 18.3334 6.92841 18.3334 8.92619V13.8707C18.3334 15.8685 16.7 17.5 14.7 17.5H5.30002C3.29169 17.5 1.66669 15.8685 1.66669 13.8707V8.92619C1.66669 6.92841 3.29169 5.29689 5.30002 5.29689C5.36669 5.29689 5.43335 5.2636 5.45835 5.197L5.50835 5.09711C5.53708 5.03665 5.56657 4.97455 5.5965 4.9115C5.80968 4.46246 6.04554 3.96567 6.19169 3.6737C6.57502 2.92453 7.22502 2.50832 8.03335 2.5H11.9584C12.7667 2.50832 13.425 2.92453 13.8084 3.6737C13.9396 3.93592 14.1396 4.35833 14.3323 4.76545C14.3721 4.84942 14.4115 4.93274 14.45 5.01387L14.5334 5.197ZM13.925 8.39345C13.925 8.80966 14.2584 9.14262 14.675 9.14262C15.0917 9.14262 15.4334 8.80966 15.4334 8.39345C15.4334 7.97725 15.0917 7.63596 14.675 7.63596C14.2584 7.63596 13.925 7.97725 13.925 8.39345ZM8.55835 9.68368C8.95002 9.29245 9.45835 9.08435 10 9.08435C10.5417 9.08435 11.05 9.29245 11.4334 9.67536C11.8167 10.0583 12.025 10.566 12.025 11.1071C12.0167 12.2225 11.1167 13.1299 10 13.1299C9.45835 13.1299 8.95002 12.9218 8.56669 12.5388C8.18335 12.1559 7.97502 11.6482 7.97502 11.1071V11.0988C7.96669 10.5744 8.17502 10.0666 8.55835 9.68368ZM12.3084 13.4212C11.7167 14.0122 10.9 14.3785 10 14.3785C9.12502 14.3785 8.30835 14.0372 7.68335 13.4212C7.06669 12.7969 6.72502 11.9811 6.72502 11.1071C6.71669 10.2414 7.05835 9.42564 7.67502 8.80133C8.30002 8.17703 9.12502 7.83574 10 7.83574C10.875 7.83574 11.7 8.17703 12.3167 8.79301C12.9334 9.41731 13.275 10.2414 13.275 11.1071C13.2667 12.0144 12.9 12.8302 12.3084 13.4212Z" fill="white"/>
</svg>
