<svg width="20" height="20" viewBox="0 0 20 20" fill="none" xmlns="http://www.w3.org/2000/svg">
<path d="M6.54538 18.3041C7.78062 18.3076 8.96594 17.8168 9.83719 16.9412L12.2871 14.4913H12.287C12.5122 14.2661 12.6002 13.9379 12.5177 13.6303C12.4353 13.3227 12.195 13.0824 11.8874 13C11.5798 12.9175 11.2517 13.0055 11.0264 13.2307L8.5765 15.6807H8.57666C8.04333 16.2454 7.304 16.5704 6.52724 16.5815C5.75048 16.5926 5.00228 16.289 4.45297 15.7397C3.90366 15.1904 3.60009 14.4422 3.6111 13.6654C3.62229 12.8887 3.94729 12.1493 4.51199 11.616L6.96193 9.16605V9.1662C7.1872 8.94094 7.27513 8.61284 7.19263 8.30525C7.1103 7.99765 6.86996 7.75733 6.56235 7.67497C6.25475 7.59247 5.9265 7.6804 5.7014 7.90567L3.25145 10.3556V10.3555C2.37868 11.229 1.88851 12.4134 1.88867 13.6483C1.88898 14.8833 2.37976 16.0673 3.253 16.9404C4.12624 17.8135 5.31049 18.3041 6.54541 18.3041L6.54538 18.3041Z" fill="white"/>
<path d="M17.1932 2.9987C16.3191 2.12653 15.1349 1.63672 13.9003 1.63672C12.6655 1.63672 11.4813 2.12653 10.6074 2.9987L8.15746 5.44865H8.15762C7.93236 5.67376 7.84443 6.00202 7.92692 6.3096C8.00926 6.6172 8.24959 6.85752 8.5572 6.93989C8.8648 7.02238 9.1929 6.93445 9.41816 6.70918L11.8681 4.25924H11.8679C12.6006 3.56743 13.6419 3.30972 14.6128 3.57988C15.5834 3.84988 16.342 4.60846 16.612 5.57914C16.8822 6.54994 16.6244 7.5913 15.9327 8.32395L13.4827 10.7739V10.7737C13.2574 10.999 13.1695 11.3271 13.252 11.6347C13.3343 11.9423 13.5747 12.1826 13.8823 12.265C14.1899 12.3475 14.5181 12.2595 14.7432 12.0343L17.1932 9.58433V9.58449C18.0654 8.71061 18.5552 7.52636 18.5552 6.2916C18.5552 5.057 18.0654 3.87276 17.1932 2.99872L17.1932 2.9987Z" fill="white"/>
<path d="M13.3156 6.87654C13.1484 6.70938 12.9218 6.61523 12.6853 6.61523C12.4488 6.61523 12.2221 6.70938 12.055 6.87654L7.12824 11.8033C6.90313 12.0284 6.8152 12.3567 6.89753 12.6643C6.98003 12.9719 7.22021 13.212 7.52782 13.2946C7.83542 13.3769 8.16367 13.289 8.38877 13.0639L13.3156 8.13708C13.4827 7.97007 13.5769 7.74326 13.5769 7.50679C13.5769 7.27033 13.4827 7.04366 13.3156 6.87651L13.3156 6.87654Z" fill="white"/>
</svg>
