<svg width="20" height="21" viewBox="0 0 20 21" fill="none" xmlns="http://www.w3.org/2000/svg">
<path fill-rule="evenodd" clip-rule="evenodd" d="M14.6016 6.36325V7.64103C16.0369 8.08904 17.0827 9.38836 17.0827 10.9402V15.0543C17.0827 16.9756 15.4899 18.5332 13.5262 18.5332H6.47335C4.50881 18.5332 2.91602 16.9756 2.91602 15.0543V10.9402C2.91602 9.38836 3.96264 8.08904 5.39709 7.64103V6.36325C5.40556 3.8789 7.46324 1.86658 9.98665 1.86658C12.5439 1.86658 14.6016 3.8789 14.6016 6.36325ZM10.0036 3.31578C11.7226 3.31578 13.1197 4.68217 13.1197 6.36325V7.46133H6.87896V6.34669C6.88742 4.67389 8.28462 3.31578 10.0036 3.31578ZM10.7403 13.9124C10.7403 14.3181 10.41 14.6411 9.99511 14.6411C9.58866 14.6411 9.25841 14.3181 9.25841 13.9124V12.0739C9.25841 11.6764 9.58866 11.3535 9.99511 11.3535C10.41 11.3535 10.7403 11.6764 10.7403 12.0739V13.9124Z" fill="#9E9E9E"/>
</svg>
