<svg width="28" height="28" viewBox="0 0 28 28" fill="none" xmlns="http://www.w3.org/2000/svg">
<path fill-rule="evenodd" clip-rule="evenodd" d="M13.2062 25.6654H7.50582C4.65448 25.6654 2.33398 23.3449 2.33398 20.4912V7.50736C2.33398 4.6537 4.65448 2.33203 7.50582 2.33203H13.1933C16.047 2.33203 18.3687 4.6537 18.3687 7.50736V8.5947C18.3687 9.0777 17.9767 9.4697 17.4937 9.4697C17.0107 9.4697 16.6187 9.0777 16.6187 8.5947V7.50736C16.6187 5.61736 15.0822 4.08203 13.1933 4.08203H7.50582C5.61932 4.08203 4.08398 5.61736 4.08398 7.50736V20.4912C4.08398 22.38 5.61932 23.9154 7.50582 23.9154H13.2062C15.0868 23.9154 16.6187 22.3847 16.6187 20.504V19.4039C16.6187 18.9209 17.0107 18.5289 17.4937 18.5289C17.9767 18.5289 18.3687 18.9209 18.3687 19.4039V20.504C18.3687 23.3507 16.0517 25.6654 13.2062 25.6654Z" fill="#212121"/>
<mask id="mask0_2575_64807" style="mask-type:alpha" maskUnits="userSpaceOnUse" x="10" y="13" width="17" height="2">
<path fill-rule="evenodd" clip-rule="evenodd" d="M10.4961 13.125H26.2938V14.875H10.4961V13.125Z" fill="white"/>
</mask>
<g mask="url(#mask0_2575_64807)">
<path fill-rule="evenodd" clip-rule="evenodd" d="M25.4189 14.875H11.3711C10.8881 14.875 10.4961 14.483 10.4961 14C10.4961 13.517 10.8881 13.125 11.3711 13.125H25.4189C25.9019 13.125 26.2939 13.517 26.2939 14C26.2939 14.483 25.9019 14.875 25.4189 14.875Z" fill="#212121"/>
</g>
<mask id="mask1_2575_64807" style="mask-type:alpha" maskUnits="userSpaceOnUse" x="21" y="9" width="6" height="10">
<path fill-rule="evenodd" clip-rule="evenodd" d="M21.1289 9.72266H26.2942V18.2752H21.1289V9.72266Z" fill="white"/>
</mask>
<g mask="url(#mask1_2575_64807)">
<path fill-rule="evenodd" clip-rule="evenodd" d="M22.0036 18.2752C21.7796 18.2752 21.5545 18.19 21.3841 18.0174C21.0435 17.6744 21.0446 17.1214 21.3865 16.7807L24.1795 13.9982L21.3865 11.2169C21.0446 10.8762 21.0423 10.3232 21.3841 9.9802C21.7248 9.6372 22.2778 9.6372 22.6208 9.97787L26.0368 13.3787C26.2025 13.542 26.2946 13.766 26.2946 13.9982C26.2946 14.2304 26.2025 14.4544 26.0368 14.6177L22.6208 18.0197C22.4505 18.19 22.2265 18.2752 22.0036 18.2752Z" fill="#212121"/>
</g>
</svg>
