<svg width="32" height="33" viewBox="0 0 32 33" fill="none" xmlns="http://www.w3.org/2000/svg">
<path d="M26.666 5.6665H5.33268C3.86202 5.6665 2.66602 6.8625 2.66602 8.33317V24.3332C2.66602 25.8038 3.86202 26.9998 5.33268 26.9998H26.666C28.1367 26.9998 29.3327 25.8038 29.3327 24.3332V8.33317C29.3327 6.8625 28.1367 5.6665 26.666 5.6665ZM11.6193 10.9998C13.154 10.9998 14.286 12.1318 14.286 13.6665C14.286 15.2012 13.154 16.3332 11.6193 16.3332C10.0847 16.3332 8.95268 15.2012 8.95268 13.6665C8.95268 12.1318 10.0833 10.9998 11.6193 10.9998ZM16.5727 21.6665H6.66602V21.0465C6.66602 19.2158 8.90068 17.3332 11.6193 17.3332C14.338 17.3332 16.5727 19.2158 16.5727 21.0465V21.6665ZM25.3327 20.3332H19.9993V17.6665H25.3327V20.3332ZM25.3327 14.9998H18.666V12.3332H25.3327V14.9998Z" fill="url(#paint0_linear_1062_24579)"/>
<defs>
<linearGradient id="paint0_linear_1062_24579" x1="29.3327" y1="26.9998" x2="-1.072" y2="15.9804" gradientUnits="userSpaceOnUse">
<stop stop-color="#FF4D67"/>
<stop offset="1" stop-color="#FF8A9B"/>
</linearGradient>
</defs>
</svg>
