<svg width="64" height="64" viewBox="0 0 64 64" fill="none" xmlns="http://www.w3.org/2000/svg">
<path d="M31.9948 5.33203C17.2972 5.33203 5.32812 17.2954 5.32812 32.0141C5.32812 46.702 17.2972 58.6654 31.9948 58.6654C46.6923 58.6654 58.6615 46.702 58.6615 32.0141C58.6615 17.2954 46.6923 5.33203 31.9948 5.33203Z" fill="white"/>
<path fill-rule="evenodd" clip-rule="evenodd" d="M5.32812 32.0141C5.32812 17.2954 17.2972 5.33203 31.9948 5.33203C46.6923 5.33203 58.6615 17.2954 58.6615 32.0141C58.6615 46.702 46.6923 58.6654 31.9948 58.6654C17.2972 58.6654 5.32812 46.702 5.32812 32.0141ZM41.7786 34.7121C42.0617 34.4291 42.4221 33.9918 42.4993 33.8889C42.9112 33.3486 43.1171 32.6797 43.1171 32.0133C43.1171 31.2646 42.8854 30.57 42.4478 30.004C42.412 29.9681 42.3418 29.8917 42.2502 29.7921C42.079 29.6058 41.8333 29.3383 41.5984 29.1035C39.4877 26.8395 33.9794 23.1347 31.0965 22.0027C30.6589 21.8252 29.5521 21.4367 28.9601 21.411C28.3938 21.411 27.8532 21.5396 27.3384 21.7969C26.6949 22.1571 26.1801 22.7231 25.897 23.392C25.7168 23.8551 25.4337 25.2444 25.4337 25.2701C25.1505 26.788 24.9961 29.2579 24.9961 31.985C24.9961 34.5861 25.1505 36.9504 25.3822 38.4941C25.3886 38.5005 25.4107 38.6109 25.4451 38.7824C25.5497 39.3038 25.7675 40.39 26 40.8353C26.5662 41.9159 27.6731 42.5848 28.8571 42.5848H28.9601C29.7323 42.5591 31.3539 41.8901 31.3539 41.8644C34.0823 40.7324 39.462 37.2077 41.6241 34.8665L41.7786 34.7121Z" fill="#F9343A"/>
</svg>
