<svg width="20" height="20" viewBox="0 0 20 20" fill="none" xmlns="http://www.w3.org/2000/svg">
<path d="M13.8846 1.6665H6.10964C3.26797 1.6665 1.66797 3.2665 1.66797 6.10817V13.8915C1.66797 16.7165 3.26797 18.3332 6.10964 18.3332H13.893C16.7263 18.3332 18.3346 16.7165 18.3346 13.8915V6.10817C18.3346 3.2665 16.718 1.6665 13.8846 1.6665Z" fill="#F9343A"/>
<path d="M13.052 10.6916H10.6853V13.05C10.6853 13.4333 10.377 13.7416 9.99362 13.7416C9.61029 13.7416 9.30195 13.4333 9.30195 13.05V10.6916H6.94362C6.56029 10.6833 6.25195 10.375 6.25195 9.99163C6.25195 9.80747 6.32695 9.6333 6.45195 9.49997C6.58529 9.37497 6.76029 9.29997 6.94362 9.29997H9.30195V6.94997C9.30195 6.56663 9.61029 6.2583 9.99362 6.2583C10.377 6.2583 10.6853 6.56663 10.6853 6.94997V9.29997H13.052C13.4353 9.29997 13.7436 9.6083 13.7436 9.99163C13.7436 10.375 13.4353 10.6833 13.052 10.6916Z" fill="white"/>
</svg>
