<svg width="25" height="24" viewBox="0 0 25 24" fill="none" xmlns="http://www.w3.org/2000/svg">
<path fill-rule="evenodd" clip-rule="evenodd" d="M17.0984 15.5364C17.1793 17.3684 15.7007 18.9176 13.7961 18.9955C13.6558 19.0014 6.81682 18.9876 6.81682 18.9876C4.92148 19.1315 3.26266 17.7695 3.11316 15.9444C3.1019 15.8084 3.10497 8.47024 3.10497 8.47024C3.02101 6.6362 4.49756 5.08304 6.40315 5.00222C6.54548 4.99532 13.3753 5.00814 13.3753 5.00814C15.2798 4.86622 16.9438 6.23806 17.0912 8.07209C17.1015 8.20415 17.0984 15.5364 17.0984 15.5364Z" stroke="#E86E76" stroke-width="2.25" stroke-linecap="round" stroke-linejoin="round"/>
<path d="M17.1016 9.98179L20.3946 7.28679C21.2106 6.61879 22.4346 7.20079 22.4336 8.25379L22.4216 15.6028C22.4206 16.6558 21.1956 17.2328 20.3816 16.5648L17.1016 13.8698" stroke="#E86E76" stroke-width="2.25" stroke-linecap="round" stroke-linejoin="round"/>
</svg>
