<svg width="24" height="24" viewBox="0 0 24 24" fill="none" xmlns="http://www.w3.org/2000/svg">
<path fill-rule="evenodd" clip-rule="evenodd" d="M21.21 7.89705V16.048C21.21 19.068 19.32 21.198 16.3 21.198H7.65C4.63 21.198 2.75 19.068 2.75 16.048V7.89705C2.75 4.87705 4.64 2.74805 7.65 2.74805H16.3C19.32 2.74805 21.21 4.87705 21.21 7.89705Z" stroke="#E86E76" stroke-width="2.25" stroke-linecap="round" stroke-linejoin="round"/>
<path d="M5.28125 16.4303L6.80925 14.8173C7.34025 14.2543 8.22525 14.2273 8.78925 14.7573C8.80625 14.7743 9.72625 15.7093 9.72625 15.7093C10.2813 16.2743 11.1883 16.2833 11.7533 15.7293C11.7903 15.6933 14.0872 12.9073 14.0872 12.9073C14.6792 12.1883 15.7422 12.0853 16.4622 12.6783C16.5102 12.7183 18.6803 14.9453 18.6803 14.9453" stroke="#E86E76" stroke-width="2.25" stroke-linecap="round" stroke-linejoin="round"/>
<path fill-rule="evenodd" clip-rule="evenodd" d="M10.3127 9.13095C10.3127 10.1 9.52769 10.885 8.55869 10.885C7.58969 10.885 6.80469 10.1 6.80469 9.13095C6.80469 8.16195 7.58969 7.37695 8.55869 7.37695C9.52769 7.37795 10.3127 8.16195 10.3127 9.13095Z" stroke="#E86E76" stroke-width="2.25" stroke-linecap="round" stroke-linejoin="round"/>
</svg>
