<svg width="24" height="24" viewBox="0 0 24 24" fill="none" xmlns="http://www.w3.org/2000/svg">
<path fill-rule="evenodd" clip-rule="evenodd" d="M12 2.74609C17.108 2.74609 21.25 6.88709 21.25 11.9961C21.25 17.1041 17.108 21.2461 12 21.2461C6.891 21.2461 2.75 17.1041 2.75 11.9961C2.75 6.88709 6.891 2.74609 12 2.74609Z" stroke="#D8D8D8" stroke-width="2.25" stroke-linecap="round" stroke-linejoin="round"/>
<path fill-rule="evenodd" clip-rule="evenodd" d="M12.1356 5.48242C11.7496 5.48242 11.4358 5.79533 11.4358 6.18223V6.90137C10.7954 7.01578 10.22 7.28103 9.76634 7.65155C9.11229 8.18501 8.7071 8.93329 8.7071 9.76748C8.7071 10.6028 9.11227 11.35 9.76634 11.8843C10.22 12.2538 10.7954 12.5201 11.4358 12.6334V15.6559C11.1321 15.5708 10.8641 15.4337 10.6463 15.2563C10.3134 14.9847 10.1067 14.6186 10.1067 14.2226C10.1067 13.8365 9.79292 13.5227 9.40684 13.5227C9.02077 13.5227 8.70703 13.8365 8.70703 14.2226C8.70703 15.0578 9.11221 15.805 9.76628 16.3394C10.22 16.7088 10.7953 16.9751 11.4358 17.0885V17.8085C11.4358 18.1946 11.7495 18.5083 12.1356 18.5083C12.5216 18.5083 12.8354 18.1954 12.8354 17.8085V17.0885C13.4758 16.9751 14.0512 16.7099 14.5049 16.3394C15.1589 15.805 15.5641 15.0578 15.5641 14.2226C15.5641 13.3881 15.1589 12.6409 14.5049 12.1066C14.0512 11.7372 13.4758 11.4708 12.8354 11.3575V8.33498C13.1391 8.419 13.4071 8.55725 13.6249 8.73465C13.9578 9.00625 14.1646 9.37316 14.1646 9.76835C14.1646 10.1544 14.4783 10.4682 14.8644 10.4682C15.2504 10.4682 15.5642 10.1553 15.5642 9.76835C15.5642 8.93394 15.159 8.18673 14.5049 7.65242C14.0512 7.28192 13.4759 7.01561 12.8354 6.90224V6.18223C12.8354 5.79616 12.5217 5.48242 12.1356 5.48242ZM11.422 11.1484C11.1183 11.0644 10.8503 10.9261 10.6325 10.7487C10.2996 10.4771 10.0928 10.111 10.0928 9.71499C10.0928 9.31984 10.2994 8.95291 10.6325 8.68129C10.8503 8.50389 11.1191 8.36585 11.422 8.28162V11.1484ZM12.829 12.7741V15.6409C13.1319 15.5566 13.4008 15.4186 13.6186 15.2412C13.9517 14.9696 14.1582 14.6027 14.1582 14.2075C14.1582 13.8115 13.9514 13.4454 13.6186 13.1738C13.4008 12.9964 13.1328 12.8581 12.829 12.7741Z" fill="#D8D8D8"/>
</svg>
