<svg width="25" height="24" viewBox="0 0 25 24" fill="none" xmlns="http://www.w3.org/2000/svg">
<path fill-rule="evenodd" clip-rule="evenodd" d="M6.91211 4.5H12.7042C15.1262 4.5 16.8172 6.16904 16.8172 8.56091V15.4391C16.8172 17.831 15.1262 19.5 12.7042 19.5H6.91211C4.49009 19.5 2.79907 17.831 2.79907 15.4391V8.56091C2.79907 6.16904 4.49009 4.5 6.91211 4.5ZM20.7565 6.87879C21.1955 6.65544 21.7105 6.67879 22.1295 6.94275C22.5485 7.20569 22.7985 7.66255 22.7985 8.16204V15.8382C22.7985 16.3387 22.5485 16.7945 22.1295 17.0575C21.9005 17.2006 21.6445 17.2737 21.3865 17.2737C21.1715 17.2737 20.9565 17.223 20.7555 17.1204L19.2745 16.3732C18.7265 16.095 18.3865 15.5367 18.3865 14.9164V9.08285C18.3865 8.46153 18.7265 7.90316 19.2745 7.62701L20.7565 6.87879Z" fill="#F9343A"/>
</svg>
