<svg width="18" height="21" viewBox="0 0 18 21" fill="none" xmlns="http://www.w3.org/2000/svg">
<path fill-rule="evenodd" clip-rule="evenodd" d="M4.7688 7.64941H13.2312C15.5886 7.64941 17.5 9.51862 17.5 11.8241V16.7609C17.5 19.0664 15.5886 20.9356 13.2312 20.9356H4.7688C2.41136 20.9356 0.5 19.0664 0.5 16.7609V11.8241C0.5 9.51862 2.41136 7.64941 4.7688 7.64941ZM8.99492 16.265C9.49283 16.265 9.88912 15.8775 9.88912 15.3906V13.1845C9.88912 12.7075 9.49283 12.3199 8.99492 12.3199C8.50717 12.3199 8.11088 12.7075 8.11088 13.1845V15.3906C8.11088 15.8775 8.50717 16.265 8.99492 16.265Z" fill="#F9343A"/>
<path d="M14.522 6.3315V7.80222C14.1663 7.70285 13.7904 7.65316 13.4042 7.65316H12.7437V6.3315C12.7437 4.31423 11.0671 2.67457 9.00436 2.67457C6.9416 2.67457 5.26497 4.30429 5.25481 6.31162V7.65316H4.60448C4.20818 7.65316 3.83221 7.70285 3.47656 7.81216V6.3315C3.48672 3.35031 5.95594 0.935547 8.98403 0.935547C12.0528 0.935547 14.522 3.35031 14.522 6.3315Z" fill="#F9343A"/>
</svg>
