<svg width="28" height="28" viewBox="0 0 28 28" fill="none" xmlns="http://www.w3.org/2000/svg">
<path d="M4.66602 13.6797C4.66602 13.2367 4.9952 12.8706 5.42228 12.8127L5.54102 12.8047L23.041 12.8047C23.5243 12.8047 23.916 13.1964 23.916 13.6797C23.916 14.1227 23.5868 14.4888 23.1597 14.5467L23.041 14.5547L5.54102 14.5547C5.05777 14.5547 4.66602 14.1629 4.66602 13.6797Z" fill="#F9343A"/>
<path d="M15.365 7.26991C15.0226 6.92894 15.0214 6.37492 15.3624 6.03248C15.6723 5.72117 16.1584 5.69188 16.5015 5.9453L16.5998 6.02981L23.6581 13.0578C23.9704 13.3687 23.9988 13.8565 23.7433 14.1996L23.6582 14.2979L16.5999 21.327C16.2574 21.668 15.7034 21.6669 15.3624 21.3245C15.0524 21.0132 15.0252 20.527 15.2801 20.185L15.365 20.087L21.8004 13.6775L15.365 7.26991Z" fill="#F9343A"/>
</svg>
