<svg width="17" height="16" viewBox="0 0 17 16" fill="none" xmlns="http://www.w3.org/2000/svg">
<path fill-rule="evenodd" clip-rule="evenodd" d="M10.1435 5.17494C10.1435 6.93745 8.70125 8.34988 6.90151 8.34988C5.10242 8.34988 3.65949 6.93745 3.65949 5.17494C3.65949 3.41243 5.10242 2 6.90151 2C8.70125 2 10.1435 3.41243 10.1435 5.17494ZM2.00195 11.9449C2.00195 10.3134 4.25897 9.90516 6.90151 9.90516C9.5584 9.90516 11.8011 10.3274 11.8011 11.9602C11.8011 13.5918 9.54405 14 6.90151 14C4.24462 14 2.00195 13.5777 2.00195 11.9449ZM11.4509 5.2325C11.4509 6.13004 11.1756 6.96754 10.6929 7.66321C10.6427 7.73476 10.687 7.83122 10.7744 7.84656C10.8958 7.86636 11.0204 7.8785 11.1476 7.88105C12.4131 7.91363 13.5488 7.11574 13.8625 5.91412C14.3276 4.13117 12.963 2.53029 11.2245 2.53029C11.036 2.53029 10.8553 2.54945 10.6792 2.58459C10.6551 2.5897 10.629 2.60119 10.6159 2.62164C10.599 2.64783 10.6114 2.68169 10.6283 2.70404C11.1508 3.42144 11.4509 4.29471 11.4509 5.2325ZM13.5468 9.13487C14.3974 9.29777 14.9565 9.62931 15.188 10.1129C15.3844 10.509 15.3844 10.9689 15.188 11.365C14.8338 12.1137 13.691 12.3545 13.2467 12.4165C13.1548 12.4293 13.081 12.3526 13.0908 12.2619C13.3178 10.187 11.5129 9.20322 11.0458 8.97708C11.0262 8.96622 11.0217 8.95089 11.0236 8.94066C11.0249 8.93428 11.0334 8.92405 11.0484 8.92214C12.0589 8.90297 13.1456 9.03904 13.5468 9.13487Z" fill="#F9343A"/>
</svg>
