<svg width="24" height="24" viewBox="0 0 24 24" fill="none" xmlns="http://www.w3.org/2000/svg">
<path fill-rule="evenodd" clip-rule="evenodd" d="M22.001 12C22.001 6.47676 17.5231 2 12.001 2C6.47773 2 2.00098 6.47676 2.00098 12C2.00098 17.5222 6.47773 22 12.001 22C17.5231 22 22.001 17.5222 22.001 12ZM11.3905 5.7214C11.3905 5.30312 11.7296 4.96484 12.147 4.96484C12.5644 4.96484 12.9036 5.30401 12.9036 5.7214V6.49979C13.596 6.62235 14.218 6.91025 14.7084 7.31079C15.4155 7.88842 15.8536 8.69621 15.8536 9.59828C15.8536 10.0166 15.5144 10.3548 15.097 10.3548C14.6797 10.3548 14.3405 10.0157 14.3405 9.59828C14.3405 9.17104 14.1169 8.77439 13.7571 8.48076C13.5216 8.28899 13.2319 8.13952 12.9035 8.04869V11.3163C13.5959 11.4388 14.2179 11.7267 14.7084 12.1261C15.4155 12.7038 15.8535 13.5116 15.8535 14.4136C15.8535 15.3166 15.4154 16.1244 14.7084 16.7021C14.2179 17.1026 13.5959 17.3894 12.9035 17.512V18.2903C12.9035 18.7086 12.5643 19.0469 12.147 19.0469C11.7296 19.0469 11.3904 18.7077 11.3904 18.2903V17.512C10.698 17.3894 10.076 17.1015 9.58556 16.7021C8.87846 16.1244 8.44043 15.3166 8.44043 14.4136C8.44043 13.9963 8.7796 13.6571 9.19698 13.6571C9.61436 13.6571 9.95353 13.9963 9.95353 14.4136C9.95353 14.8418 10.177 15.2375 10.5369 15.5312C10.7724 15.7229 11.0621 15.8712 11.3905 15.9632V12.6957C10.6981 12.5731 10.0761 12.2852 9.58563 11.8858C8.87853 11.3081 8.4405 10.5004 8.4405 9.59734C8.4405 8.69551 8.87855 7.88656 9.58563 7.30985C10.0761 6.90928 10.6981 6.62252 11.3905 6.49885V5.7214ZM10.522 10.6581C10.7574 10.8499 11.0472 10.9994 11.3755 11.0902V7.99101C11.0481 8.08207 10.7574 8.2313 10.522 8.42307C10.1619 8.71672 9.93859 9.1134 9.93859 9.5406C9.93859 9.96876 10.1621 10.3645 10.522 10.6581ZM12.8966 15.947V12.8478C13.225 12.9386 13.5147 13.0881 13.7502 13.2798C14.1101 13.5735 14.3336 13.9692 14.3336 14.3974C14.3336 14.8246 14.1103 15.2212 13.7502 15.5149C13.5147 15.7067 13.2241 15.8559 12.8966 15.947Z" fill="#F9343A"/>
</svg>
