<svg width="20" height="21" viewBox="0 0 20 21" fill="none" xmlns="http://www.w3.org/2000/svg">
<path fill-rule="evenodd" clip-rule="evenodd" d="M11.2087 4.56811H13.767C16.842 4.56811 18.342 6.20978 18.3337 9.57645V13.6348C18.3337 16.8514 16.3503 18.8348 13.1253 18.8348H6.86699C3.65866 18.8348 1.66699 16.8514 1.66699 13.6264V7.36811C1.66699 3.91811 3.20033 2.16811 6.22533 2.16811H7.54199C8.31782 2.15978 9.04199 2.51811 9.51699 3.12644L10.2503 4.10144C10.4837 4.39311 10.8337 4.56811 11.2087 4.56811ZM6.14199 13.2431H13.8587C14.2003 13.2431 14.4753 12.9598 14.4753 12.6181C14.4753 12.2681 14.2003 11.9931 13.8587 11.9931H6.14199C5.79199 11.9931 5.51699 12.2681 5.51699 12.6181C5.51699 12.9598 5.79199 13.2431 6.14199 13.2431Z" fill="#F9343A"/>
</svg>
