<svg width="17" height="16" viewBox="0 0 17 16" fill="none" xmlns="http://www.w3.org/2000/svg">
<path fill-rule="evenodd" clip-rule="evenodd" d="M6.14386 3.48953C5.99515 3.69038 6.01223 3.97688 6.20011 4.1587C6.40011 4.3587 6.72678 4.3587 6.92678 4.1587L7.98678 3.09203V5.85203H9.01345V3.09203L10.0734 4.1587L10.1309 4.20828C10.3318 4.35704 10.6183 4.34052 10.8001 4.1587C10.9001 4.0587 10.9534 3.92536 10.9534 3.79203C10.9534 3.66536 10.9001 3.53203 10.8001 3.43203L8.86011 1.48536L8.79963 1.43102C8.71345 1.36616 8.60678 1.33203 8.50011 1.33203C8.36011 1.33203 8.23345 1.38536 8.13345 1.48536L6.19345 3.43203L6.14386 3.48953ZM4.65409 5.85545C3.08525 5.92955 1.83331 7.24926 1.83331 8.85701V12.1671L1.83654 12.3088C1.90938 13.9053 3.20684 15.1855 4.79998 15.1855H12.2066L12.3459 15.1822C13.9147 15.1081 15.1666 13.7882 15.1666 12.1739V8.87058L15.1634 8.72836C15.0902 7.12594 13.7866 5.85216 12.2 5.85216H9.01331V9.92193L9.00856 9.99348C8.9741 10.2504 8.75665 10.4442 8.49998 10.4442C8.21331 10.4442 7.98665 10.2136 7.98665 9.92193V5.85216H4.79331L4.65409 5.85545Z" fill="#F9343A"/>
</svg>
