<svg width="18" height="17" viewBox="0 0 18 17" fill="none" xmlns="http://www.w3.org/2000/svg">
<path fill-rule="evenodd" clip-rule="evenodd" d="M13.3161 2.1763C13.3161 1.06797 14.2161 0.167969 15.3244 0.167969C16.4328 0.167969 17.3328 1.06797 17.3328 2.1763C17.3328 3.28464 16.4328 4.18464 15.3244 4.18464C14.2161 4.18464 13.3161 3.28464 13.3161 2.1763ZM10.1077 10.8007L12.516 7.69322L12.4827 7.70989C12.616 7.52655 12.641 7.29322 12.5493 7.08489C12.4585 6.87655 12.2577 6.73488 12.0418 6.71822C11.816 6.69322 11.5919 6.79322 11.4577 6.97655L9.44185 9.58489L7.13268 7.76822C6.99102 7.65988 6.82435 7.61738 6.65768 7.63488C6.49185 7.65988 6.34185 7.75072 6.24102 7.88405L3.77518 11.0932L3.72435 11.1682C3.58268 11.4341 3.64935 11.7757 3.89935 11.9599C4.01602 12.0349 4.14102 12.0849 4.28268 12.0849C4.47518 12.0932 4.65768 11.9924 4.77435 11.8349L6.86602 9.14239L9.24102 10.9266L9.31602 10.9757C9.58268 11.1174 9.91602 11.0516 10.1077 10.8007ZM11.8743 1.65155C11.841 1.85989 11.8243 2.06822 11.8243 2.27655C11.8243 4.15155 13.341 5.66739 15.2077 5.66739C15.416 5.66739 15.616 5.64322 15.8244 5.60989V12.3341C15.8244 15.1599 14.1577 16.8349 11.3243 16.8349H5.16685C2.33268 16.8349 0.666016 15.1599 0.666016 12.3341V6.16822C0.666016 3.33489 2.33268 1.65155 5.16685 1.65155H11.8743Z" fill="#F9343A"/>
</svg>
