<svg width="24" height="24" viewBox="0 0 24 24" fill="none" xmlns="http://www.w3.org/2000/svg">
<mask id="path-1-inside-1_2358_75874" fill="white">
<path fill-rule="evenodd" clip-rule="evenodd" d="M11.9997 23.6673C5.56667 23.6673 0.333008 18.4337 0.333008 12.0007C0.333008 5.56765 5.56667 0.333984 11.9997 0.333984C18.4327 0.333984 23.6663 5.56765 23.6663 12.0007C23.6663 18.4337 18.4327 23.6673 11.9997 23.6673Z"/>
</mask>
<path fill-rule="evenodd" clip-rule="evenodd" d="M11.9997 23.6673C5.56667 23.6673 0.333008 18.4337 0.333008 12.0007C0.333008 5.56765 5.56667 0.333984 11.9997 0.333984C18.4327 0.333984 23.6663 5.56765 23.6663 12.0007C23.6663 18.4337 18.4327 23.6673 11.9997 23.6673Z" fill="white"/>
<path d="M11.9997 21.6673C6.67124 21.6673 2.33301 17.3291 2.33301 12.0007H-1.66699C-1.66699 19.5382 4.4621 25.6673 11.9997 25.6673V21.6673ZM2.33301 12.0007C2.33301 6.67222 6.67124 2.33398 11.9997 2.33398V-1.66602C4.4621 -1.66602 -1.66699 4.46308 -1.66699 12.0007H2.33301ZM11.9997 2.33398C17.3281 2.33398 21.6663 6.67222 21.6663 12.0007H25.6663C25.6663 4.46308 19.5372 -1.66602 11.9997 -1.66602V2.33398ZM21.6663 12.0007C21.6663 17.3291 17.3281 21.6673 11.9997 21.6673V25.6673C19.5372 25.6673 25.6663 19.5382 25.6663 12.0007H21.6663Z" fill="#F9343A" mask="url(#path-1-inside-1_2358_75874)"/>
<path fill-rule="evenodd" clip-rule="evenodd" d="M16.6061 13.1829C15.9609 13.1829 15.4336 12.6614 15.4336 12.0163C15.4336 11.3711 15.9504 10.8496 16.5944 10.8496H16.6061C17.2513 10.8496 17.7728 11.3711 17.7728 12.0163C17.7728 12.6614 17.2513 13.1829 16.6061 13.1829Z" fill="#F9343A"/>
<path fill-rule="evenodd" clip-rule="evenodd" d="M11.9282 13.1829C11.283 13.1829 10.7568 12.6614 10.7568 12.0163C10.7568 11.3711 11.2725 10.8496 11.9177 10.8496H11.9282C12.5733 10.8496 13.0948 11.3711 13.0948 12.0163C13.0948 12.6614 12.5733 13.1829 11.9282 13.1829Z" fill="#F9343A"/>
<path fill-rule="evenodd" clip-rule="evenodd" d="M7.25062 13.1829C6.60546 13.1829 6.07812 12.6614 6.07812 12.0163C6.07812 11.3711 6.59496 10.8496 7.24012 10.8496H7.25062C7.89579 10.8496 8.41729 11.3711 8.41729 12.0163C8.41729 12.6614 7.89579 13.1829 7.25062 13.1829Z" fill="#F9343A"/>
</svg>
