<svg width="24" height="24" viewBox="0 0 24 24" fill="none" xmlns="http://www.w3.org/2000/svg">
<path fill-rule="evenodd" clip-rule="evenodd" d="M7.66521 21.9961H16.3318C19.7221 21.9961 21.999 19.618 21.999 16.0794V7.91281C21.999 4.37421 19.7221 1.99609 16.3328 1.99609H7.66521C4.27592 1.99609 1.99902 4.37421 1.99902 7.91281V16.0794C1.99902 19.618 4.27592 21.9961 7.66521 21.9961ZM8.49788 10.998C7.11924 10.998 5.99902 9.87632 5.99902 8.49805C5.99902 7.11978 7.11924 5.99805 8.49788 5.99805C9.87552 5.99805 10.9967 7.11978 10.9967 8.49805C10.9967 9.87632 9.87552 10.998 8.49788 10.998ZM19.8193 14.9336C20.1542 15.7922 19.9802 16.8242 19.6223 17.6745C19.1979 18.6859 18.3854 19.4516 17.3617 19.786C16.9072 19.9346 16.4306 19.9996 15.9549 19.9996H7.52718C6.68853 19.9996 5.94641 19.7984 5.33804 19.4237C4.95693 19.1885 4.88955 18.6456 5.17212 18.2937C5.64474 17.7055 6.11133 17.1152 6.58194 16.5197C7.47891 15.3804 8.08326 15.0502 8.75499 15.3402C9.0275 15.4599 9.30102 15.6394 9.58258 15.8293C10.3327 16.3391 11.3755 17.0398 12.7491 16.2793C13.6891 15.7528 14.2343 14.8497 14.7091 14.0633L14.7171 14.0502C14.7507 13.995 14.784 13.9398 14.8173 13.8848C14.9768 13.6208 15.1343 13.3603 15.3124 13.1203C15.5356 12.82 16.3632 11.8809 17.4351 12.5497C18.1179 12.9707 18.6921 13.5404 19.3065 14.1503C19.5408 14.3835 19.7077 14.6487 19.8193 14.9336Z" fill="#F9343A"/>
</svg>
