<svg width="356" height="355" viewBox="0 0 356 355" fill="none" xmlns="http://www.w3.org/2000/svg">
<path d="M170.915 0.344727H156.742V14.5171H170.915V0.344727Z" fill="black"/>
<path d="M199.26 0.344727H185.088V14.5171H199.26V0.344727Z" fill="black"/>
<path d="M213.432 0.344727H199.26V14.5171H213.432V0.344727Z" fill="black"/>
<path d="M128.397 14.5171H114.225V28.6895H128.397V14.5171Z" fill="black"/>
<path d="M170.915 14.5171H156.742V28.6895H170.915V14.5171Z" fill="black"/>
<path d="M199.26 14.5171H185.088V28.6895H199.26V14.5171Z" fill="black"/>
<path d="M213.432 14.5171H199.26V28.6895H213.432V14.5171Z" fill="black"/>
<path d="M128.397 28.6895H114.225V42.8619H128.397V28.6895Z" fill="black"/>
<path d="M156.743 28.6895H142.57V42.8619H156.743V28.6895Z" fill="black"/>
<path d="M170.915 28.6895H156.742V42.8619H170.915V28.6895Z" fill="black"/>
<path d="M213.432 28.6895H199.26V42.8619H213.432V28.6895Z" fill="black"/>
<path d="M241.776 28.6895H227.604V42.8619H241.776V28.6895Z" fill="black"/>
<path d="M128.397 42.8621H114.225V57.0345H128.397V42.8621Z" fill="black"/>
<path d="M199.26 42.8621H185.088V57.0345H199.26V42.8621Z" fill="black"/>
<path d="M227.604 42.8621H213.432V57.0345H227.604V42.8621Z" fill="black"/>
<path d="M241.776 42.8621H227.604V57.0345H241.776V42.8621Z" fill="black"/>
<path d="M170.915 57.0344H156.742V71.2068H170.915V57.0344Z" fill="black"/>
<path d="M185.086 57.0344H170.914V71.2068H185.086V57.0344Z" fill="black"/>
<path d="M199.26 57.0344H185.088V71.2068H199.26V57.0344Z" fill="black"/>
<path d="M142.569 71.2068H128.396V85.3792H142.569V71.2068Z" fill="black"/>
<path d="M170.915 71.2068H156.742V85.3792H170.915V71.2068Z" fill="black"/>
<path d="M199.26 71.2068H185.088V85.3792H199.26V71.2068Z" fill="black"/>
<path d="M213.432 71.2068H199.26V85.3792H213.432V71.2068Z" fill="black"/>
<path d="M241.776 71.2068H227.604V85.3792H241.776V71.2068Z" fill="black"/>
<path d="M128.397 85.3792H114.225V99.5516H128.397V85.3792Z" fill="black"/>
<path d="M156.743 85.3792H142.57V99.5516H156.743V85.3792Z" fill="black"/>
<path d="M185.086 85.3792H170.914V99.5516H185.086V85.3792Z" fill="black"/>
<path d="M213.432 85.3792H199.26V99.5516H213.432V85.3792Z" fill="black"/>
<path d="M241.776 85.3792H227.604V99.5516H241.776V85.3792Z" fill="black"/>
<path d="M128.397 99.5515H114.225V113.724H128.397V99.5515Z" fill="black"/>
<path d="M142.569 99.5515H128.396V113.724H142.569V99.5515Z" fill="black"/>
<path d="M170.915 99.5515H156.742V113.724H170.915V99.5515Z" fill="black"/>
<path d="M185.086 99.5515H170.914V113.724H185.086V99.5515Z" fill="black"/>
<path d="M213.432 99.5515H199.26V113.724H213.432V99.5515Z" fill="black"/>
<path d="M241.776 99.5515H227.604V113.724H241.776V99.5515Z" fill="black"/>
<path d="M15.0181 113.724H0.845703V127.897H15.0181V113.724Z" fill="black"/>
<path d="M100.053 113.724H85.8809V127.897H100.053V113.724Z" fill="black"/>
<path d="M128.397 113.724H114.225V127.897H128.397V113.724Z" fill="black"/>
<path d="M156.743 113.724H142.57V127.897H156.743V113.724Z" fill="black"/>
<path d="M170.915 113.724H156.742V127.897H170.915V113.724Z" fill="black"/>
<path d="M185.086 113.724H170.914V127.897H185.086V113.724Z" fill="black"/>
<path d="M199.26 113.724H185.088V127.897H199.26V113.724Z" fill="black"/>
<path d="M213.432 113.724H199.26V127.897H213.432V113.724Z" fill="black"/>
<path d="M227.604 113.724H213.432V127.897H227.604V113.724Z" fill="black"/>
<path d="M255.95 113.724H241.777V127.897H255.95V113.724Z" fill="black"/>
<path d="M270.122 113.724H255.949V127.897H270.122V113.724Z" fill="black"/>
<path d="M312.639 113.724H298.467V127.897H312.639V113.724Z" fill="black"/>
<path d="M326.811 113.724H312.639V127.897H326.811V113.724Z" fill="black"/>
<path d="M340.983 113.724H326.811V127.897H340.983V113.724Z" fill="black"/>
<path d="M29.19 127.896H15.0176V142.069H29.19V127.896Z" fill="black"/>
<path d="M71.7076 127.896H57.5352V142.069H71.7076V127.896Z" fill="black"/>
<path d="M85.8794 127.896H71.707V142.069H85.8794V127.896Z" fill="black"/>
<path d="M128.397 127.896H114.225V142.069H128.397V127.896Z" fill="black"/>
<path d="M227.604 127.896H213.432V142.069H227.604V127.896Z" fill="black"/>
<path d="M255.95 127.896H241.777V142.069H255.95V127.896Z" fill="black"/>
<path d="M284.294 127.896H270.121V142.069H284.294V127.896Z" fill="black"/>
<path d="M298.467 127.896H284.295V142.069H298.467V127.896Z" fill="black"/>
<path d="M312.639 127.896H298.467V142.069H312.639V127.896Z" fill="black"/>
<path d="M326.811 127.896H312.639V142.069H326.811V127.896Z" fill="black"/>
<path d="M340.983 127.896H326.811V142.069H340.983V127.896Z" fill="black"/>
<path d="M15.0181 142.069H0.845703V156.241H15.0181V142.069Z" fill="black"/>
<path d="M85.8794 142.069H71.707V156.241H85.8794V142.069Z" fill="black"/>
<path d="M100.053 142.069H85.8809V156.241H100.053V142.069Z" fill="black"/>
<path d="M114.225 142.069H100.053V156.241H114.225V142.069Z" fill="black"/>
<path d="M213.432 142.069H199.26V156.241H213.432V142.069Z" fill="black"/>
<path d="M227.604 142.069H213.432V156.241H227.604V142.069Z" fill="black"/>
<path d="M241.776 142.069H227.604V156.241H241.776V142.069Z" fill="black"/>
<path d="M270.122 142.069H255.949V156.241H270.122V142.069Z" fill="black"/>
<path d="M284.294 142.069H270.121V156.241H284.294V142.069Z" fill="black"/>
<path d="M312.639 142.069H298.467V156.241H312.639V142.069Z" fill="black"/>
<path d="M340.983 142.069H326.811V156.241H340.983V142.069Z" fill="black"/>
<path d="M355.157 142.069H340.984V156.241H355.157V142.069Z" fill="black"/>
<path d="M15.0181 156.241H0.845703V170.414H15.0181V156.241Z" fill="black"/>
<path d="M29.19 156.241H15.0176V170.414H29.19V156.241Z" fill="black"/>
<path d="M71.7076 156.241H57.5352V170.414H71.7076V156.241Z" fill="black"/>
<path d="M114.225 156.241H100.053V170.414H114.225V156.241Z" fill="black"/>
<path d="M241.776 156.241H227.604V170.414H241.776V156.241Z" fill="black"/>
<path d="M255.95 156.241H241.777V170.414H255.95V156.241Z" fill="black"/>
<path d="M284.294 156.241H270.121V170.414H284.294V156.241Z" fill="black"/>
<path d="M312.639 156.241H298.467V170.414H312.639V156.241Z" fill="black"/>
<path d="M355.157 156.241H340.984V170.414H355.157V156.241Z" fill="black"/>
<path d="M43.3638 170.414H29.1914V184.586H43.3638V170.414Z" fill="black"/>
<path d="M71.7076 170.414H57.5352V184.586H71.7076V170.414Z" fill="black"/>
<path d="M100.053 170.414H85.8809V184.586H100.053V170.414Z" fill="black"/>
<path d="M156.743 170.414H142.57V184.586H156.743V170.414Z" fill="black"/>
<path d="M185.086 170.414H170.914V184.586H185.086V170.414Z" fill="black"/>
<path d="M213.432 170.414H199.26V184.586H213.432V170.414Z" fill="black"/>
<path d="M241.776 170.414H227.604V184.586H241.776V170.414Z" fill="black"/>
<path d="M270.122 170.414H255.949V184.586H270.122V170.414Z" fill="black"/>
<path d="M355.157 170.414H340.984V184.586H355.157V170.414Z" fill="black"/>
<path d="M15.0181 184.586H0.845703V198.759H15.0181V184.586Z" fill="black"/>
<path d="M29.19 184.586H15.0176V198.759H29.19V184.586Z" fill="black"/>
<path d="M43.3638 184.586H29.1914V198.759H43.3638V184.586Z" fill="black"/>
<path d="M156.743 184.586H142.57V198.759H156.743V184.586Z" fill="black"/>
<path d="M199.26 184.586H185.088V198.759H199.26V184.586Z" fill="black"/>
<path d="M227.604 184.586H213.432V198.759H227.604V184.586Z" fill="black"/>
<path d="M241.776 184.586H227.604V198.759H241.776V184.586Z" fill="black"/>
<path d="M284.294 184.586H270.121V198.759H284.294V184.586Z" fill="black"/>
<path d="M340.983 184.586H326.811V198.759H340.983V184.586Z" fill="black"/>
<path d="M15.0181 198.759H0.845703V212.931H15.0181V198.759Z" fill="black"/>
<path d="M100.053 198.759H85.8809V212.931H100.053V198.759Z" fill="black"/>
<path d="M114.225 198.759H100.053V212.931H114.225V198.759Z" fill="black"/>
<path d="M128.397 198.759H114.225V212.931H128.397V198.759Z" fill="black"/>
<path d="M170.915 198.759H156.742V212.931H170.915V198.759Z" fill="black"/>
<path d="M185.086 198.759H170.914V212.931H185.086V198.759Z" fill="black"/>
<path d="M199.26 198.759H185.088V212.931H199.26V198.759Z" fill="black"/>
<path d="M213.432 198.759H199.26V212.931H213.432V198.759Z" fill="black"/>
<path d="M227.604 198.759H213.432V212.931H227.604V198.759Z" fill="black"/>
<path d="M241.776 198.759H227.604V212.931H241.776V198.759Z" fill="black"/>
<path d="M255.95 198.759H241.777V212.931H255.95V198.759Z" fill="black"/>
<path d="M270.122 198.759H255.949V212.931H270.122V198.759Z" fill="black"/>
<path d="M284.294 198.759H270.121V212.931H284.294V198.759Z" fill="black"/>
<path d="M298.467 198.759H284.295V212.931H298.467V198.759Z" fill="black"/>
<path d="M312.639 198.759H298.467V212.931H312.639V198.759Z" fill="black"/>
<path d="M340.983 198.759H326.811V212.931H340.983V198.759Z" fill="black"/>
<path d="M355.157 198.759H340.984V212.931H355.157V198.759Z" fill="black"/>
<path d="M15.0181 212.931H0.845703V227.103H15.0181V212.931Z" fill="black"/>
<path d="M57.5357 212.931H43.3633V227.103H57.5357V212.931Z" fill="black"/>
<path d="M71.7076 212.931H57.5352V227.103H71.7076V212.931Z" fill="black"/>
<path d="M128.397 212.931H114.225V227.103H128.397V212.931Z" fill="black"/>
<path d="M170.915 212.931H156.742V227.103H170.915V212.931Z" fill="black"/>
<path d="M213.432 212.931H199.26V227.103H213.432V212.931Z" fill="black"/>
<path d="M241.776 212.931H227.604V227.103H241.776V212.931Z" fill="black"/>
<path d="M255.95 212.931H241.777V227.103H255.95V212.931Z" fill="black"/>
<path d="M270.122 212.931H255.949V227.103H270.122V212.931Z" fill="black"/>
<path d="M284.294 212.931H270.121V227.103H284.294V212.931Z" fill="black"/>
<path d="M312.639 212.931H298.467V227.103H312.639V212.931Z" fill="black"/>
<path d="M326.811 212.931H312.639V227.103H326.811V212.931Z" fill="black"/>
<path d="M355.157 212.931H340.984V227.103H355.157V212.931Z" fill="black"/>
<path d="M15.0181 227.103H0.845703V241.276H15.0181V227.103Z" fill="black"/>
<path d="M57.5357 227.103H43.3633V241.276H57.5357V227.103Z" fill="black"/>
<path d="M85.8794 227.103H71.707V241.276H85.8794V227.103Z" fill="black"/>
<path d="M100.053 227.103H85.8809V241.276H100.053V227.103Z" fill="black"/>
<path d="M128.397 227.103H114.225V241.276H128.397V227.103Z" fill="black"/>
<path d="M142.569 227.103H128.396V241.276H142.569V227.103Z" fill="black"/>
<path d="M156.743 227.103H142.57V241.276H156.743V227.103Z" fill="black"/>
<path d="M170.915 227.103H156.742V241.276H170.915V227.103Z" fill="black"/>
<path d="M185.086 227.103H170.914V241.276H185.086V227.103Z" fill="black"/>
<path d="M199.26 227.103H185.088V241.276H199.26V227.103Z" fill="black"/>
<path d="M213.432 227.103H199.26V241.276H213.432V227.103Z" fill="black"/>
<path d="M227.604 227.103H213.432V241.276H227.604V227.103Z" fill="black"/>
<path d="M241.776 227.103H227.604V241.276H241.776V227.103Z" fill="black"/>
<path d="M255.95 227.103H241.777V241.276H255.95V227.103Z" fill="black"/>
<path d="M270.122 227.103H255.949V241.276H270.122V227.103Z" fill="black"/>
<path d="M284.294 227.103H270.121V241.276H284.294V227.103Z" fill="black"/>
<path d="M298.467 227.103H284.295V241.276H298.467V227.103Z" fill="black"/>
<path d="M326.811 227.103H312.639V241.276H326.811V227.103Z" fill="black"/>
<path d="M128.397 241.276H114.225V255.448H128.397V241.276Z" fill="black"/>
<path d="M185.086 241.276H170.914V255.448H185.086V241.276Z" fill="black"/>
<path d="M241.776 241.276H227.604V255.448H241.776V241.276Z" fill="black"/>
<path d="M298.467 241.276H284.295V255.448H298.467V241.276Z" fill="black"/>
<path d="M170.915 255.448H156.742V269.621H170.915V255.448Z" fill="black"/>
<path d="M241.776 255.448H227.604V269.621H241.776V255.448Z" fill="black"/>
<path d="M270.122 255.448H255.949V269.621H270.122V255.448Z" fill="black"/>
<path d="M298.467 255.448H284.295V269.621H298.467V255.448Z" fill="black"/>
<path d="M355.157 255.448H340.984V269.621H355.157V255.448Z" fill="black"/>
<path d="M142.569 269.621H128.396V283.793H142.569V269.621Z" fill="black"/>
<path d="M170.915 269.621H156.742V283.793H170.915V269.621Z" fill="black"/>
<path d="M185.086 269.621H170.914V283.793H185.086V269.621Z" fill="black"/>
<path d="M227.604 269.621H213.432V283.793H227.604V269.621Z" fill="black"/>
<path d="M241.776 269.621H227.604V283.793H241.776V269.621Z" fill="black"/>
<path d="M298.467 269.621H284.295V283.793H298.467V269.621Z" fill="black"/>
<path d="M340.983 269.621H326.811V283.793H340.983V269.621Z" fill="black"/>
<path d="M355.157 269.621H340.984V283.793H355.157V269.621Z" fill="black"/>
<path d="M142.569 283.793H128.396V297.965H142.569V283.793Z" fill="black"/>
<path d="M199.26 283.793H185.088V297.965H199.26V283.793Z" fill="black"/>
<path d="M213.432 283.793H199.26V297.965H213.432V283.793Z" fill="black"/>
<path d="M227.604 283.793H213.432V297.965H227.604V283.793Z" fill="black"/>
<path d="M241.776 283.793H227.604V297.965H241.776V283.793Z" fill="black"/>
<path d="M255.95 283.793H241.777V297.965H255.95V283.793Z" fill="black"/>
<path d="M270.122 283.793H255.949V297.965H270.122V283.793Z" fill="black"/>
<path d="M284.294 283.793H270.121V297.965H284.294V283.793Z" fill="black"/>
<path d="M298.467 283.793H284.295V297.965H298.467V283.793Z" fill="black"/>
<path d="M326.811 283.793H312.639V297.965H326.811V283.793Z" fill="black"/>
<path d="M170.915 297.965H156.742V312.138H170.915V297.965Z" fill="black"/>
<path d="M213.432 297.965H199.26V312.138H213.432V297.965Z" fill="black"/>
<path d="M255.95 297.965H241.777V312.138H255.95V297.965Z" fill="black"/>
<path d="M270.122 297.965H255.949V312.138H270.122V297.965Z" fill="black"/>
<path d="M340.983 297.965H326.811V312.138H340.983V297.965Z" fill="black"/>
<path d="M355.157 297.965H340.984V312.138H355.157V297.965Z" fill="black"/>
<path d="M156.743 312.138H142.57V326.31H156.743V312.138Z" fill="black"/>
<path d="M185.086 312.138H170.914V326.31H185.086V312.138Z" fill="black"/>
<path d="M241.776 312.138H227.604V326.31H241.776V312.138Z" fill="black"/>
<path d="M255.95 312.138H241.777V326.31H255.95V312.138Z" fill="black"/>
<path d="M312.639 312.138H298.467V326.31H312.639V312.138Z" fill="black"/>
<path d="M326.811 312.138H312.639V326.31H326.811V312.138Z" fill="black"/>
<path d="M355.157 312.138H340.984V326.31H355.157V312.138Z" fill="black"/>
<path d="M142.569 326.31H128.396V340.483H142.569V326.31Z" fill="black"/>
<path d="M156.743 326.31H142.57V340.483H156.743V326.31Z" fill="black"/>
<path d="M170.915 326.31H156.742V340.483H170.915V326.31Z" fill="black"/>
<path d="M213.432 326.31H199.26V340.483H213.432V326.31Z" fill="black"/>
<path d="M241.776 326.31H227.604V340.483H241.776V326.31Z" fill="black"/>
<path d="M270.122 326.31H255.949V340.483H270.122V326.31Z" fill="black"/>
<path d="M284.294 326.31H270.121V340.483H284.294V326.31Z" fill="black"/>
<path d="M298.467 326.31H284.295V340.483H298.467V326.31Z" fill="black"/>
<path d="M355.157 326.31H340.984V340.483H355.157V326.31Z" fill="black"/>
<path d="M128.397 340.483H114.225V354.655H128.397V340.483Z" fill="black"/>
<path d="M185.086 340.483H170.914V354.655H185.086V340.483Z" fill="black"/>
<path d="M241.776 340.483H227.604V354.655H241.776V340.483Z" fill="black"/>
<path d="M255.95 340.483H241.777V354.655H255.95V340.483Z" fill="black"/>
<path d="M312.639 340.483H298.467V354.655H312.639V340.483Z" fill="black"/>
<path d="M355.157 340.483H340.984V354.655H355.157V340.483Z" fill="black"/>
<path d="M85.1716 0.344727H15.7267H0.845703V15.2258V84.6706V99.5516H15.7267H85.1716H100.053V84.6706V15.2258V0.344727H85.1716ZM85.1716 84.6706H15.7267V15.2258H85.1716V84.6706Z" fill="black"/>
<path d="M340.275 0.344727H270.83H255.949V15.2258V84.6706V99.5516H270.83H340.275H355.156V84.6706V15.2258V0.344727H340.275ZM340.275 84.6706H270.83V15.2258H340.275V84.6706Z" fill="black"/>
<path d="M85.1716 255.448H15.7267H0.845703V270.329V339.774V354.655H15.7267H85.1716H100.053V339.774V270.329V255.448H85.1716ZM85.1716 339.774H15.7267V270.329H85.1716V339.774Z" fill="black"/>
<path d="M50.0332 70.373C61.5438 70.373 70.875 61.0418 70.875 49.5312C70.875 38.0206 61.5438 28.6895 50.0332 28.6895C38.5226 28.6895 29.1914 38.0206 29.1914 49.5312C29.1914 61.0418 38.5226 70.373 50.0332 70.373Z" fill="black"/>
<path d="M305.137 70.373C316.647 70.373 325.978 61.0418 325.978 49.5312C325.978 38.0206 316.647 28.6895 305.137 28.6895C293.626 28.6895 284.295 38.0206 284.295 49.5312C284.295 61.0418 293.626 70.373 305.137 70.373Z" fill="black"/>
<path d="M50.0332 325.477C61.5438 325.477 70.875 316.145 70.875 304.635C70.875 293.124 61.5438 283.793 50.0332 283.793C38.5226 283.793 29.1914 293.124 29.1914 304.635C29.1914 316.145 38.5226 325.477 50.0332 325.477Z" fill="black"/>
</svg>
