<svg width="44" height="44" viewBox="0 0 44 44" fill="none" xmlns="http://www.w3.org/2000/svg">
<path fill-rule="evenodd" clip-rule="evenodd" d="M15.4514 5.5C16.2214 5.5 16.8466 6.11304 16.8466 6.8699C16.8466 7.62496 16.2233 8.238 15.4514 8.238L12.4649 8.2398C9.98626 8.24339 7.96959 10.2227 7.96959 12.6551V16.0637C7.96959 16.8187 7.34259 17.4336 6.57259 17.4336C5.80259 17.4336 5.17742 16.8187 5.17742 16.0637V12.6551C5.17742 8.71441 8.44626 5.50539 12.4631 5.5018L15.4496 5.5H15.4514ZM28.6018 5.5004H31.5223C35.5501 5.5004 38.8244 8.71121 38.8244 12.6609V16.0641C38.8244 16.8191 38.2011 17.434 37.4293 17.434C36.6593 17.434 36.0341 16.8191 36.0341 16.0641V12.6609C36.0341 10.2213 34.0101 8.2366 31.5223 8.2366H28.6018C27.8318 8.2366 27.2066 7.62536 27.2066 6.8703C27.2066 6.11344 27.8318 5.5004 28.6018 5.5004ZM27.0653 12.3615H16.938C14.6206 12.3848 12.758 14.2419 12.7781 16.5161V18.7993C12.7836 19.0653 13.0018 19.2829 13.2731 19.2919H30.7265C30.9996 19.2847 31.2178 19.0671 31.227 18.7993V16.5161C31.2288 15.4177 30.7961 14.3624 30.0151 13.5768C29.2396 12.7983 28.1745 12.3615 27.0653 12.3615ZM3.23098 22.0758H40.7722C41.5422 22.0758 42.1673 22.6888 42.1673 23.4457C42.1673 24.2007 41.5422 24.812 40.7722 24.812H38.8251V31.3379C38.8251 35.2894 35.549 38.5002 31.523 38.5002H28.6025C27.8307 38.5002 27.2055 37.8871 27.2055 37.1303C27.2055 36.3752 27.8307 35.7622 28.6025 35.7622H31.523C34.0108 35.7622 36.0348 33.7792 36.0348 31.3379V24.812H31.226V26.6295C31.2443 28.9037 29.3835 30.7626 27.0643 30.7842H16.937C14.6196 30.7626 12.7588 28.9037 12.7772 26.6295V24.812H7.96832V31.3451C7.96832 33.7774 9.98682 35.7568 12.4673 35.7604L15.452 35.7622C16.222 35.7622 16.8472 36.3752 16.8472 37.1303C16.8453 37.8871 16.222 38.5002 15.4502 38.5002L12.4637 38.4984C8.44682 38.4948 5.17615 35.2858 5.17615 31.3451V24.812H3.23098C2.46098 24.812 1.83398 24.2007 1.83398 23.4457C1.83398 22.6888 2.46098 22.0758 3.23098 22.0758Z" fill="white"/>
</svg>
