<svg width="28" height="28" viewBox="0 0 28 28" fill="none" xmlns="http://www.w3.org/2000/svg">
<path fill-rule="evenodd" clip-rule="evenodd" d="M24.2746 8.89466L23.5485 7.63456C22.9341 6.56832 21.5727 6.20049 20.505 6.81228V6.81228C19.9968 7.11168 19.3903 7.19663 18.8194 7.04838C18.2484 6.90014 17.7599 6.53088 17.4615 6.02205C17.2696 5.69862 17.1664 5.33024 17.1625 4.95416V4.95416C17.1798 4.35121 16.9523 3.76692 16.5319 3.3344C16.1114 2.90187 15.5338 2.65795 14.9306 2.6582H13.4676C12.8767 2.6582 12.3101 2.89368 11.8932 3.31255C11.4763 3.73142 11.2436 4.29914 11.2464 4.89009V4.89009C11.2289 6.11019 10.2348 7.09006 9.01453 7.08993C8.63845 7.08603 8.27007 6.98288 7.94664 6.79093V6.79093C6.87894 6.17913 5.5175 6.54696 4.90317 7.6132L4.12361 8.89466C3.51002 9.95957 3.87284 11.3202 4.9352 11.9381V11.9381C5.62576 12.3368 6.05116 13.0736 6.05116 13.871C6.05116 14.6684 5.62576 15.4052 4.9352 15.8039V15.8039C3.87419 16.4177 3.51097 17.775 4.12361 18.8367V18.8367L4.86045 20.1075C5.14829 20.6269 5.63124 21.0101 6.20243 21.1725C6.77362 21.3348 7.38595 21.2628 7.90393 20.9725V20.9725C8.41313 20.6753 9.01992 20.5939 9.58943 20.7463C10.1589 20.8987 10.644 21.2723 10.9367 21.7841C11.1287 22.1075 11.2318 22.4759 11.2357 22.8519V22.8519C11.2357 24.0846 12.235 25.0838 13.4676 25.0838H14.9306C16.1591 25.0838 17.1566 24.0911 17.1625 22.8626V22.8626C17.1597 22.2698 17.3939 21.7005 17.8131 21.2813C18.2322 20.8621 18.8016 20.6279 19.3944 20.6307C19.7696 20.6408 20.1364 20.7435 20.4623 20.9298V20.9298C21.5272 21.5433 22.8878 21.1805 23.5058 20.1182V20.1182L24.2746 18.8367C24.5723 18.3259 24.6539 17.7175 24.5016 17.1462C24.3493 16.575 23.9755 16.088 23.463 15.7932V15.7932C22.9506 15.4984 22.5768 15.0115 22.4245 14.4402C22.2722 13.869 22.3538 13.2606 22.6515 12.7497C22.845 12.4118 23.1251 12.1317 23.463 11.9381V11.9381C24.519 11.3205 24.881 9.96786 24.2746 8.90534V8.90534V8.89466Z" stroke="#212121" stroke-width="1.5" stroke-linecap="round" stroke-linejoin="round"/>
<ellipse cx="14.2044" cy="13.8704" rx="3.07552" ry="3.07551" stroke="#212121" stroke-width="1.5" stroke-linecap="round" stroke-linejoin="round"/>
</svg>
