<svg width="276" height="180" viewBox="0 0 276 180" fill="none" xmlns="http://www.w3.org/2000/svg">
<rect x="67" y="17" width="144" height="144" rx="72" fill="url(#paint0_linear_2645_54638)"/>
<path fill-rule="evenodd" clip-rule="evenodd" d="M138.331 113.37C138.603 113.513 138.908 113.585 139.212 113.583C139.516 113.58 139.818 113.505 140.093 113.361L148.864 108.672C151.351 107.346 153.299 105.864 154.819 104.138C158.123 100.377 159.927 95.5774 159.895 90.6283L159.791 74.3034C159.781 72.4231 158.546 70.7453 156.719 70.1354L140.402 64.6608C139.42 64.3281 138.343 64.3353 137.378 64.6777L121.123 70.3475C119.306 70.9815 118.094 72.6714 118.104 74.5541L118.208 90.867C118.24 95.8233 120.106 100.601 123.464 104.323C124.999 106.025 126.964 107.486 129.478 108.79L138.331 113.37ZM136.009 94.1838C136.375 94.5358 136.85 94.7093 137.326 94.7045C137.801 94.7021 138.274 94.5237 138.635 94.1669L148.22 84.7172C148.94 84.006 148.933 82.8634 148.205 82.1619C147.475 81.4604 146.3 81.4652 145.579 82.1763L137.298 90.3388L133.908 87.0796C133.178 86.3781 132.005 86.3853 131.282 87.0965C130.562 87.8076 130.569 88.9503 131.299 89.6518L136.009 94.1838Z" fill="white"/>
<circle cx="223.434" cy="27.5" r="7.5" fill="#E86E76"/>
<circle cx="65" cy="10" r="10" fill="#E86E76"/>
<circle cx="55" cy="133" r="5" fill="#E86E76"/>
<circle cx="210.5" cy="160.5" r="2.5" fill="#E86E76"/>
<circle cx="151.5" cy="4.5" r="2.5" fill="#E86E76"/>
<circle cx="107.5" cy="176.5" r="3.5" fill="#E86E76"/>
<circle cx="167" cy="171" r="1" fill="#E86E76"/>
<circle cx="215.5" cy="110.5" r="2.5" fill="#E86E76"/>
<circle cx="46" cy="75" r="1" fill="#E86E76"/>
<defs>
<linearGradient id="paint0_linear_2645_54638" x1="211" y1="161" x2="39.6529" y2="111.319" gradientUnits="userSpaceOnUse">
<stop stop-color="#FF4D67"/>
<stop offset="1" stop-color="#FF8A9B"/>
</linearGradient>
</defs>
</svg>
