<svg width="21" height="25" viewBox="0 0 21 25" fill="none" xmlns="http://www.w3.org/2000/svg">
<mask id="mask0_2645_92065" style="mask-type:alpha" maskUnits="userSpaceOnUse" x="0" y="0" width="21" height="25">
<path fill-rule="evenodd" clip-rule="evenodd" d="M0.664062 0.333984H20.4587V24.0822H0.664062V0.333984Z" fill="white"/>
</mask>
<g mask="url(#mask0_2645_92065)">
<path fill-rule="evenodd" clip-rule="evenodd" d="M10.5603 2.08398C9.57101 2.08398 3.32934 4.28198 2.60951 4.88282C2.39717 5.09632 2.38901 5.46732 2.43451 7.95115C2.45551 9.14815 2.48467 10.7745 2.48467 13.0262C2.48467 19.094 9.16034 21.7878 10.5592 22.2837C11.9568 21.7855 18.636 19.0765 18.636 13.0262C18.636 10.7722 18.6652 9.14465 18.6873 7.94765C18.7317 5.46615 18.7235 5.09515 18.4983 4.87115C17.7925 4.28198 11.5497 2.08398 10.5603 2.08398ZM10.5594 24.0827C10.4743 24.0827 10.3891 24.071 10.3063 24.0453C9.91543 23.9275 0.73376 21.0552 0.73376 13.0262C0.73376 10.7897 0.704593 9.17148 0.683593 7.98382C0.629926 5.01698 0.61826 4.39865 1.38476 3.63332C2.30059 2.71515 9.23643 0.333984 10.5594 0.333984C11.8813 0.333984 18.8171 2.71515 19.7353 3.63332C20.5006 4.39865 20.4889 5.01698 20.4353 7.98032C20.4143 9.16798 20.3851 10.7862 20.3851 13.0262C20.3851 21.0552 11.2034 23.9275 10.8126 24.0453C10.7298 24.071 10.6446 24.0827 10.5594 24.0827Z" fill="#F9343A"/>
</g>
<path fill-rule="evenodd" clip-rule="evenodd" d="M9.74039 14.9403C9.50822 14.9403 9.28539 14.8482 9.12089 14.6837L6.91356 12.474C6.57289 12.1322 6.57289 11.5768 6.91472 11.2362C7.25539 10.8943 7.81072 10.8943 8.15256 11.2362L9.74039 12.8263L13.6697 8.897C14.0116 8.55517 14.5646 8.55517 14.9064 8.897C15.2482 9.23883 15.2482 9.793 14.9064 10.1348L10.3587 14.6837C10.1954 14.8482 9.97256 14.9403 9.74039 14.9403Z" fill="#F9343A"/>
</svg>
