<svg width="26" height="26" viewBox="0 0 26 26" fill="none" xmlns="http://www.w3.org/2000/svg">
<path d="M21.7063 13.0889C21.5834 13.1748 21.3925 13.3003 21.1527 13.4581L21.1498 13.46M21.7063 13.0889L23.5573 17.3701M21.7063 13.0889C22.1695 12.7605 22.4929 12.4108 22.6957 12.0202M21.7063 13.0889L22.6957 12.0202M21.1498 13.46C21.0146 13.549 20.8145 13.6817 20.6208 13.8115M21.1498 13.46L21.2323 13.5853C21.2323 13.5853 21.2323 13.5853 21.2324 13.5852M21.1498 13.46L21.2324 13.5852M20.6208 13.8115C20.5629 13.8516 20.5137 13.9034 20.4765 13.9637M20.6208 13.8115L20.7044 13.9361C20.7047 13.9359 20.705 13.9357 20.7053 13.9355C20.7056 13.9353 20.7058 13.9352 20.7061 13.935L20.6208 13.8115ZM20.4765 13.9637C20.439 14.0416 20.4363 14.1279 20.4884 14.2791M20.4765 13.9637L20.6041 14.0425C20.6056 14.0401 20.6071 14.0378 20.6086 14.0354C20.6096 14.0331 20.6106 14.0308 20.6117 14.0287L20.4765 13.9637ZM20.4884 14.2791C20.614 14.5622 20.7644 14.8332 20.9379 15.0889C21.5473 15.9971 22.4299 16.7634 23.5573 17.3701M20.4884 14.2791L20.6302 14.2302C20.6295 14.2282 20.6288 14.2263 20.6282 14.2243C20.6273 14.2223 20.6264 14.2203 20.6255 14.2183L20.4884 14.2791ZM23.5573 17.3701L23.6284 17.238C23.6283 17.2379 23.6281 17.2378 23.628 17.2378C23.628 17.2377 23.6279 17.2377 23.6279 17.2377L23.5573 17.3701ZM21.2324 13.5852L21.2375 13.5818C21.4754 13.4254 21.6676 13.299 21.7922 13.2118L21.793 13.2113C22.2702 12.873 22.6122 12.5064 22.8287 12.0896C22.8288 12.0895 22.8288 12.0895 22.8289 12.0894L22.6957 12.0202M21.2324 13.5852L20.8063 8.92925C21.73 8.92925 22.492 9.43854 22.799 10.2577M22.6957 12.0202C22.8362 11.7511 22.9182 11.4544 22.936 11.1503C22.9538 10.8462 22.9071 10.5418 22.799 10.2577M22.799 10.2577L22.9394 10.205M22.799 10.2577L22.9392 10.2043C22.9393 10.2046 22.9394 10.2048 22.9394 10.205M22.9394 10.205C22.609 9.32338 21.7883 8.77931 20.8065 8.77924M22.9394 10.205L20.8065 8.77924M20.8065 8.77924C20.612 8.77901 20.418 8.79869 20.2275 8.83796M20.8065 8.77924C20.8064 8.77924 20.8064 8.77924 20.8063 8.77924L20.2275 8.83796M20.2275 8.83796C20.2312 8.33442 20.2194 7.80265 20.1718 7.2806M20.2275 8.83796L20.1718 7.2806M20.1718 7.2806C19.994 5.19645 19.272 4.09448 18.5199 3.22086L18.5188 3.21966C18.0362 2.67107 17.4676 2.20699 16.836 1.84617L16.836 1.84616L16.8345 1.84529C15.6591 1.19231 14.3407 0.849991 13.0006 0.849991C11.6605 0.849991 10.3421 1.19231 9.16673 1.84529L9.16673 1.84528L9.16514 1.84619C8.53303 2.20753 7.96438 2.67267 7.48223 3.22264L7.48129 3.22372C6.73006 4.09733 6.00707 5.20122 5.82932 7.28381L5.82932 7.28391C5.7851 7.80595 5.77072 8.33662 5.77379 8.84058C5.58353 8.80142 5.38983 8.78179 5.19562 8.78202M20.1718 7.2806L5.1958 8.78202C5.19574 8.78202 5.19568 8.78202 5.19562 8.78202M5.19562 8.78202C4.21437 8.78209 3.39156 9.32476 3.06278 10.2075M5.19562 8.78202L3.06278 10.2075M3.06278 10.2075C2.94645 10.5122 2.89595 10.8386 2.91465 11.1648C2.93336 11.4911 3.02092 11.8096 3.1715 12.0988C3.38795 12.5155 3.73078 12.884 4.20734 13.2206M3.06278 10.2075L6.39366 23.1555M4.20734 13.2206C4.20723 13.2205 4.20711 13.2204 4.207 13.2204L4.29403 13.0982L4.20749 13.2207C4.20744 13.2207 4.20739 13.2206 4.20734 13.2206ZM4.20734 13.2206C4.33277 13.3099 4.52722 13.4377 4.7682 13.5947C4.79015 13.6092 4.81373 13.6247 4.83866 13.6412C4.96272 13.723 5.12007 13.8267 5.27434 13.9311L5.27624 13.9324C5.32123 13.9619 5.36003 14.0003 5.39025 14.0456C5.40266 14.0747 5.41041 14.1198 5.36524 14.2483C5.24539 14.5152 5.10255 14.7707 4.93838 15.012L4.938 15.0125C4.35596 15.8764 3.52115 16.6135 2.44699 17.2059C2.36793 17.2485 2.28628 17.2898 2.2036 17.3317C1.71148 17.581 1.18271 17.8489 0.94429 18.5063L0.944221 18.5065C0.731598 19.0953 0.876761 19.7549 1.39687 20.2981C1.58589 20.4984 1.80514 20.667 2.04644 20.7975C2.53071 21.0677 3.04568 21.2768 3.57992 21.4204L3.58105 21.4207C3.6691 21.4436 3.75295 21.4809 3.82934 21.5312C3.88142 21.5806 3.90841 21.6435 3.95338 21.765L3.95715 21.7752C4.00215 21.8969 4.06035 22.0542 4.1859 22.2385C4.31459 22.4332 4.4781 22.6019 4.66809 22.7358L4.66827 22.736C5.20452 23.1127 5.80637 23.1344 6.39146 23.1554L6.39332 23.1555C6.39343 23.1555 6.39355 23.1555 6.39366 23.1555M6.39366 23.1555C6.92602 23.1759 7.5103 23.1999 8.17826 23.426L8.18006 23.4266M6.39366 23.1555L8.18006 23.4266M8.18006 23.4266C8.44427 23.5123 8.72455 23.6861 9.07192 23.9084L9.07308 23.9091M8.18006 23.4266L9.07308 23.9091M9.07308 23.9091C9.90123 24.4286 11.066 25.1529 13.002 25.1529C14.938 25.1529 16.1074 24.4248 16.9441 23.9039L16.9441 23.9038L16.9443 23.9037M9.07308 23.9091L16.9443 23.9037M16.9443 23.9037C17.2904 23.6876 17.5724 23.5148 17.8266 23.4288C18.4859 23.2072 19.0642 23.1821 19.5933 23.1591L19.6117 23.1583L19.6123 23.1583L19.6317 23.1575C20.2087 23.1349 20.8029 23.1116 21.3363 22.739L21.3367 22.7386M16.9443 23.9037L21.3367 22.7386M21.3367 22.7386C21.5614 22.5804 21.7488 22.3739 21.8857 22.1341M21.3367 22.7386L24.6394 20.2575M24.6394 20.2575L24.6381 20.259C24.4441 20.4782 24.2143 20.6622 23.9589 20.8028C23.468 21.0764 22.9457 21.2876 22.4039 21.4315C22.3224 21.4537 22.2448 21.4891 22.1742 21.5363C22.1274 21.5807 22.0998 21.6368 22.0623 21.7357C22.0571 21.7494 22.0517 21.7638 22.0461 21.7788C22.0107 21.8744 21.9655 21.9963 21.8857 22.1341M24.6394 20.2575L24.6448 20.2512C25.1299 19.7122 25.2635 19.0713 25.0552 18.4982C24.8704 17.9858 24.5176 17.7197 24.1434 17.5075L24.6394 20.2575ZM21.8857 22.1341C21.8856 22.1343 21.8855 22.1345 21.8854 22.1346L21.7556 22.0594L21.8859 22.1337C21.8858 22.1338 21.8857 22.134 21.8857 22.1341ZM17.3069 21.8392L17.3069 21.8392C18.0945 21.5752 18.7921 21.5201 19.3366 21.4952C19.413 21.4917 19.4856 21.4888 19.5546 21.4861C19.7345 21.479 19.8898 21.4728 20.0247 21.4592C20.2141 21.4402 20.3296 21.4089 20.3961 21.3631C20.4405 21.3318 20.4707 21.2843 20.4933 21.2069C20.5135 21.138 20.5236 21.061 20.5359 20.9677C20.5384 20.9492 20.5409 20.9301 20.5436 20.9102C20.574 20.6868 20.6246 20.3892 20.9115 20.2019C21.1729 20.0311 21.4678 19.9514 21.7833 19.8662C21.8178 19.8569 21.8525 19.8475 21.8875 19.8379C22.2479 19.7392 22.6611 19.6146 23.1582 19.336L17.3069 21.8392ZM17.3069 21.8392C16.9747 21.9507 16.6759 22.1134 16.3836 22.2897M17.3069 21.8392L16.3836 22.2897M2.76772 18.9017L2.76762 18.9018C2.71571 18.9273 2.66225 18.9563 2.6189 18.9893C2.57337 19.0239 2.55507 19.0509 2.5499 19.0665L2.54973 19.067C2.54794 19.0723 2.54222 19.089 2.57176 19.1299C2.60693 19.1787 2.6845 19.2486 2.8398 19.3357C3.33657 19.6131 3.74979 19.7368 4.11038 19.8349C4.14479 19.8443 4.17897 19.8535 4.21291 19.8626C4.52925 19.9476 4.82496 20.027 5.08685 20.1981C5.37376 20.3854 5.42489 20.6833 5.45554 20.9071C5.45832 20.9273 5.4609 20.9469 5.4634 20.9657C5.47572 21.0587 5.48588 21.1354 5.5059 21.204C5.52855 21.2817 5.55873 21.3288 5.60255 21.3595C5.66912 21.4061 5.78471 21.4379 5.97462 21.4571C6.11077 21.4709 6.26777 21.477 6.44971 21.4841C6.51733 21.4868 6.58839 21.4895 6.6631 21.4929C7.20767 21.5173 7.90518 21.5715 8.69146 21.8355L2.76772 18.9017ZM2.76772 18.9017C6.53836 17.0482 7.15424 14.1768 7.1856 13.9297L7.18562 13.9296M2.76772 18.9017L7.18562 13.9296M7.18562 13.9296C7.18678 13.9203 7.18799 13.911 7.18922 13.9015C7.2037 13.7892 7.22032 13.6603 7.19562 13.5294C7.16706 13.3781 7.08758 13.2367 6.932 13.0908C6.78306 12.9511 6.40901 12.6955 6.04661 12.4548C5.90724 12.3622 5.76828 12.2709 5.64052 12.1871C5.42786 12.0474 5.24623 11.9282 5.1454 11.857C4.88303 11.6711 4.71082 11.4963 4.6218 11.3246C4.53678 11.1607 4.52301 10.9914 4.59625 10.7945C4.68867 10.549 4.91386 10.4439 5.19123 10.4439C5.27934 10.4441 5.36717 10.4541 5.45319 10.4735L5.45407 10.4737M7.18562 13.9296L5.45407 10.4737M5.45407 10.4737C5.73874 10.5364 6.02207 10.6407 6.28103 10.7423C6.32579 10.7598 6.37026 10.7775 6.41412 10.7949C6.6162 10.8752 6.80552 10.9504 6.95255 10.9866M5.45407 10.4737L7.10916 11.0079M7.10916 11.0079L7.10916 11.0078C7.0563 11.007 7.00375 10.9998 6.95255 10.9866M7.10916 11.0079H7.11171M7.10916 11.0079H7.11171M6.95255 10.9866C6.95223 10.9865 6.9519 10.9864 6.95158 10.9864L6.98928 10.8412L6.95352 10.9868C6.95319 10.9868 6.95287 10.9867 6.95255 10.9866ZM7.11171 11.0079C7.22478 11.0079 7.34136 10.9778 7.41753 10.8754C7.48654 10.7826 7.49633 10.6628 7.48988 10.5514L7.48987 10.5514M7.11171 11.0079L7.48987 10.5514M7.48987 10.5514C7.48699 10.5018 7.48382 10.4488 7.48045 10.3927C7.43887 9.69816 7.36852 8.52322 7.46217 7.42715L7.46218 7.42711M7.48987 10.5514L7.46218 7.42711M7.46218 7.42711C7.59974 5.81178 8.10829 5.02146 8.71371 4.31646C9.00005 3.98407 10.3683 2.51326 12.9947 2.51326C15.6211 2.51326 16.993 3.97949 17.2795 4.31019C17.8866 5.01509 18.395 5.80435 18.5308 7.42044L18.5308 7.42062M7.46218 7.42711L18.5308 7.42062M18.5308 7.42062C18.6279 8.56059 18.5512 9.77984 18.5084 10.4605C18.5066 10.4894 18.5048 10.5173 18.5031 10.5441M18.5308 7.42062L18.8837 11.0014M18.8837 11.0014L18.8813 11.0014C18.7743 11.0014 18.6552 10.9775 18.5764 10.8756C18.5045 10.7825 18.4959 10.6596 18.5031 10.5441M18.8837 11.0014C18.9366 11.0005 18.9892 10.9934 19.0404 10.9801M18.8837 11.0014L20.5407 10.467M18.5031 10.5441L18.6529 10.5536L18.5031 10.5442C18.5031 10.5442 18.5031 10.5442 18.5031 10.5441ZM20.5407 10.467L20.54 10.4672C20.2571 10.5299 19.9737 10.6342 19.714 10.7358C19.6702 10.753 19.6267 10.7702 19.5838 10.7872C19.3799 10.868 19.1886 10.9437 19.0404 10.9801M20.5407 10.467C20.6267 10.4476 20.7146 10.4376 20.8027 10.4374C21.0819 10.4374 21.3052 10.5438 21.3978 10.7883C21.4709 10.9847 21.4573 11.1537 21.3724 11.3175C21.2835 11.4891 21.1112 11.6642 20.8484 11.8505L20.8484 11.8505M20.5407 10.467L20.8484 11.8505M19.0404 10.9801C19.0401 10.9802 19.0397 10.9803 19.0394 10.9804L19.0037 10.8347M19.0404 10.9801C19.0408 10.98 19.0412 10.9799 19.0415 10.9798L19.0037 10.8347M19.0037 10.8347C19.141 10.8011 19.3201 10.7302 19.5245 10.6493C19.8166 10.5337 20.1603 10.3977 20.5076 10.3207L19.0037 10.8347ZM20.8484 11.8505C20.7453 11.9236 20.5564 12.0479 20.3363 12.1927M20.8484 11.8505L20.3363 12.1927M16.3836 22.2897C16.2801 22.3521 16.1785 22.4154 16.0766 22.4789M16.3836 22.2897L16.0766 22.4789M16.0766 22.4789C15.8861 22.5978 15.6943 22.7174 15.4857 22.8335M16.0766 22.4789L15.4857 22.8335M15.4857 22.8335C14.8573 23.183 14.11 23.479 12.9992 23.479M15.4857 22.8335L12.9992 23.479M12.9992 23.479C11.8885 23.479 11.1466 23.1835 10.5209 22.8338M12.9992 23.479L10.5209 22.8338M10.5209 22.8338C10.3163 22.7195 10.128 22.6018 9.94059 22.4846M10.5209 22.8338L9.94059 22.4846M9.94059 22.4846C9.83563 22.419 9.73093 22.3535 9.62375 22.2889M9.94059 22.4846L9.62375 22.2889M9.62375 22.2889C9.3303 22.112 9.02894 21.9484 8.69164 21.8356L9.62375 22.2889ZM20.3363 12.1927C20.2121 12.2743 20.0781 12.3625 19.9438 12.4518M20.3363 12.1927L19.9438 12.4518M19.9438 12.4518C19.5806 12.6933 19.2063 12.9488 19.0618 13.0843M19.9438 12.4518L19.0618 13.0843M19.0618 13.0843C18.9101 13.2268 18.8316 13.368 18.8019 13.5186M19.0618 13.0843L18.8019 13.5186M18.8019 13.5186C18.7746 13.6573 18.7918 13.7933 18.8069 13.9126M18.8019 13.5186L18.8069 13.9126M18.8069 13.9126L18.8082 13.9229M18.8069 13.9126L18.8082 13.9229M18.8082 13.9229C18.8396 14.174 19.4546 17.0444 23.2259 18.8951C23.2792 18.9216 23.3335 18.9513 23.3775 18.9849C23.4238 19.0202 23.4427 19.0477 23.4481 19.064L23.4483 19.0644C23.4502 19.0702 23.456 19.0872 23.4263 19.1287C23.3912 19.1777 23.3137 19.2481 23.1587 19.3357L18.8082 13.9229ZM23.9518 17.4053C23.9506 17.4048 23.9495 17.4042 23.9483 17.4037L23.8853 17.5398L23.955 17.407C23.9539 17.4064 23.9528 17.4059 23.9518 17.4053Z" fill="#F9343A" stroke="#F9343A" stroke-width="0.300018"/>
</svg>
