<svg width="380" height="192" viewBox="0 0 380 192" fill="none" xmlns="http://www.w3.org/2000/svg">
<g clip-path="url(#clip0_1559_106401)">
<path d="M3.745 15.182C3.12433 15.182 2.55733 15.028 2.044 14.72C1.53067 14.412 1.12 14.0013 0.812 13.488C0.504 12.97 0.35 12.3983 0.35 11.773C0.35 11.423 0.389667 11.1173 0.469 10.856C0.553 10.5947 0.676667 10.3123 0.84 10.009L3.612 5.2H4.977L2.996 8.637C3.39733 8.511 3.79633 8.46667 4.193 8.504C4.58967 8.54133 4.96533 8.64867 5.32 8.826C5.67933 9.00333 5.99667 9.23667 6.272 9.526C6.54733 9.81533 6.76433 10.1513 6.923 10.534C7.08167 10.912 7.161 11.325 7.161 11.773C7.161 12.2443 7.07 12.6853 6.888 13.096C6.71067 13.5067 6.46567 13.8683 6.153 14.181C5.845 14.4937 5.48333 14.7387 5.068 14.916C4.65267 15.0933 4.21167 15.182 3.745 15.182ZM3.745 14.006C4.17433 14.006 4.557 13.901 4.893 13.691C5.23367 13.481 5.49967 13.2057 5.691 12.865C5.887 12.5243 5.985 12.1603 5.985 11.773C5.985 11.367 5.88467 10.996 5.684 10.66C5.488 10.324 5.21967 10.0557 4.879 9.855C4.543 9.64967 4.16967 9.547 3.759 9.547C3.32967 9.547 2.947 9.652 2.611 9.862C2.275 10.072 2.009 10.345 1.813 10.681C1.62167 11.017 1.526 11.381 1.526 11.773C1.526 12.1977 1.62867 12.578 1.834 12.914C2.03933 13.25 2.31 13.516 2.646 13.712C2.98667 13.908 3.353 14.006 3.745 14.006ZM15.1382 15H13.6192L10.5252 10.751L9.79022 11.633V15H8.61422V5.2H9.79022V9.806L13.6472 5.2H15.1802L11.2952 9.827L15.1382 15Z" fill="#616161"/>
<path d="M4.774 59V56.354H0.56V55.164L4.48 49.2H5.95V55.178H6.923V56.354H5.95V59H4.774ZM1.939 55.164L4.774 55.178L4.753 50.852L1.939 55.164ZM15.3296 59H13.8106L10.7166 54.751L9.98162 55.633V59H8.80562V49.2H9.98162V53.806L13.8386 49.2H15.3716L11.4866 53.827L15.3296 59Z" fill="#616161"/>
<path d="M0.56 103V101.957C0.919333 101.635 1.323 101.276 1.771 100.879C2.219 100.478 2.66467 100.06 3.108 99.626C3.556 99.1873 3.96667 98.7533 4.34 98.324C4.71333 97.8947 5.01433 97.4887 5.243 97.106C5.47167 96.7187 5.586 96.3803 5.586 96.091C5.586 95.7457 5.502 95.4307 5.334 95.146C5.166 94.8567 4.93967 94.6257 4.655 94.453C4.375 94.2803 4.06233 94.194 3.717 94.194C3.37167 94.194 3.05433 94.2803 2.765 94.453C2.48033 94.6257 2.25167 94.8567 2.079 95.146C1.911 95.4307 1.827 95.7457 1.827 96.091H0.651C0.651 95.517 0.791 94.999 1.071 94.537C1.351 94.0703 1.722 93.7017 2.184 93.431C2.646 93.1557 3.157 93.018 3.717 93.018C4.277 93.018 4.78567 93.1557 5.243 93.431C5.705 93.7063 6.07367 94.0773 6.349 94.544C6.62433 95.006 6.762 95.5217 6.762 96.091C6.762 96.4177 6.68267 96.77 6.524 97.148C6.36533 97.5213 6.14833 97.9063 5.873 98.303C5.59767 98.6997 5.285 99.101 4.935 99.507C4.585 99.9083 4.21633 100.305 3.829 100.697C3.44167 101.089 3.05667 101.465 2.674 101.824H6.888V103H0.56ZM15.2886 103H13.7696L10.6756 98.751L9.94061 99.633V103H8.76461V93.2H9.94061V97.806L13.7976 93.2H15.3306L11.4456 97.827L15.2886 103Z" fill="#616161"/>
<path d="M4.193 147.182C3.60967 147.182 3.087 147.051 2.625 146.79C2.163 146.524 1.76633 146.158 1.435 145.691C1.10367 145.224 0.851667 144.685 0.679 144.074C0.506333 143.458 0.42 142.8 0.42 142.1C0.42 141.4 0.506333 140.742 0.679 140.126C0.851667 139.51 1.10367 138.971 1.435 138.509C1.76633 138.042 2.163 137.678 2.625 137.417C3.087 137.151 3.60967 137.018 4.193 137.018C4.77167 137.018 5.292 137.151 5.754 137.417C6.22067 137.678 6.615 138.042 6.937 138.509C7.26367 138.971 7.51333 139.51 7.686 140.126C7.86333 140.742 7.952 141.4 7.952 142.1C7.952 142.8 7.86333 143.458 7.686 144.074C7.51333 144.685 7.26367 145.224 6.937 145.691C6.615 146.158 6.22067 146.524 5.754 146.79C5.292 147.051 4.77167 147.182 4.193 147.182ZM4.193 146.006C4.77633 146.006 5.264 145.826 5.656 145.467C6.05267 145.103 6.349 144.625 6.545 144.032C6.741 143.439 6.839 142.795 6.839 142.1C6.839 141.367 6.73633 140.707 6.531 140.119C6.33033 139.526 6.03167 139.057 5.635 138.712C5.243 138.367 4.76233 138.194 4.193 138.194C3.745 138.194 3.353 138.299 3.017 138.509C2.68567 138.719 2.41033 139.006 2.191 139.37C1.97167 139.734 1.806 140.152 1.694 140.623C1.58667 141.09 1.533 141.582 1.533 142.1C1.533 142.795 1.63333 143.442 1.834 144.039C2.03467 144.632 2.331 145.108 2.723 145.467C3.11967 145.826 3.60967 146.006 4.193 146.006Z" fill="#616161"/>
<path d="M36.291 187.182C35.7637 187.182 35.255 187.1 34.765 186.937C34.275 186.769 33.8457 186.531 33.477 186.223C33.113 185.915 32.854 185.549 32.7 185.124L33.799 184.711C33.8923 184.972 34.065 185.201 34.317 185.397C34.5737 185.588 34.8747 185.738 35.22 185.845C35.5653 185.952 35.9223 186.006 36.291 186.006C36.711 186.006 37.1007 185.938 37.46 185.803C37.824 185.663 38.118 185.469 38.342 185.222C38.566 184.975 38.678 184.685 38.678 184.354C38.678 184.013 38.5613 183.736 38.328 183.521C38.0947 183.302 37.796 183.129 37.432 183.003C37.068 182.872 36.6877 182.772 36.291 182.702C35.6143 182.59 35.0077 182.431 34.471 182.226C33.939 182.016 33.5167 181.724 33.204 181.351C32.896 180.978 32.742 180.485 32.742 179.874C32.742 179.305 32.9053 178.808 33.232 178.383C33.5633 177.958 33.9997 177.629 34.541 177.396C35.0823 177.163 35.6657 177.046 36.291 177.046C36.809 177.046 37.3107 177.128 37.796 177.291C38.286 177.45 38.7177 177.683 39.091 177.991C39.4643 178.299 39.7327 178.675 39.896 179.118L38.783 179.524C38.6897 179.258 38.5147 179.029 38.258 178.838C38.006 178.642 37.7073 178.493 37.362 178.39C37.0213 178.283 36.6643 178.229 36.291 178.229C35.8757 178.224 35.4883 178.292 35.129 178.432C34.7697 178.572 34.478 178.766 34.254 179.013C34.03 179.26 33.918 179.547 33.918 179.874C33.918 180.266 34.0207 180.567 34.226 180.777C34.436 180.982 34.7207 181.136 35.08 181.239C35.4393 181.342 35.843 181.433 36.291 181.512C36.9257 181.619 37.5137 181.79 38.055 182.023C38.5963 182.252 39.0303 182.557 39.357 182.94C39.6883 183.323 39.854 183.794 39.854 184.354C39.854 184.923 39.6883 185.42 39.357 185.845C39.0303 186.27 38.5963 186.599 38.055 186.832C37.5137 187.065 36.9257 187.182 36.291 187.182ZM41.2639 184.34V180H42.4399V184.081C42.4399 184.436 42.5262 184.758 42.6989 185.047C42.8716 185.336 43.1026 185.567 43.3919 185.74C43.6859 185.908 44.0079 185.992 44.3579 185.992C44.7126 185.992 45.0322 185.908 45.3169 185.74C45.6062 185.567 45.8372 185.336 46.0099 185.047C46.1826 184.758 46.2689 184.436 46.2689 184.081V180H47.4449L47.4519 187H46.2759L46.2689 186.111C46.0216 186.438 45.7089 186.699 45.3309 186.895C44.9529 187.086 44.5446 187.182 44.1059 187.182C43.5832 187.182 43.1049 187.056 42.6709 186.804C42.2416 186.547 41.8986 186.204 41.6419 185.775C41.3899 185.346 41.2639 184.867 41.2639 184.34ZM55.2464 182.646V187H54.0704V182.905C54.0704 182.55 53.984 182.228 53.8114 181.939C53.6387 181.65 53.4077 181.421 53.1184 181.253C52.829 181.08 52.507 180.994 52.1524 180.994C51.8024 180.994 51.4804 181.08 51.1864 181.253C50.897 181.421 50.666 181.65 50.4934 181.939C50.3207 182.228 50.2344 182.55 50.2344 182.905V187H49.0584V180H50.2344V180.875C50.4817 180.548 50.7944 180.289 51.1724 180.098C51.5504 179.902 51.961 179.804 52.4044 179.804C52.927 179.804 53.403 179.932 53.8324 180.189C54.2664 180.441 54.6094 180.782 54.8614 181.211C55.118 181.64 55.2464 182.119 55.2464 182.646Z" fill="#616161"/>
<path d="M87.1735 187L89.0705 177.2H89.9735L92.6195 184.158L95.2585 177.2H96.1615L98.0655 187H96.8685L95.4895 179.888L93.0045 186.468H92.2275L89.7425 179.888L88.3705 187H87.1735ZM102.416 187.182C101.772 187.182 101.184 187.016 100.652 186.685C100.125 186.354 99.7027 185.91 99.3854 185.355C99.0727 184.795 98.9164 184.177 98.9164 183.5C98.9164 182.987 99.0074 182.508 99.1894 182.065C99.3714 181.617 99.6211 181.225 99.9384 180.889C100.26 180.548 100.634 180.282 101.058 180.091C101.483 179.9 101.936 179.804 102.416 179.804C103.06 179.804 103.646 179.97 104.173 180.301C104.705 180.632 105.128 181.078 105.44 181.638C105.758 182.198 105.916 182.819 105.916 183.5C105.916 184.009 105.825 184.485 105.643 184.928C105.461 185.371 105.209 185.763 104.887 186.104C104.57 186.44 104.199 186.704 103.774 186.895C103.354 187.086 102.902 187.182 102.416 187.182ZM102.416 186.006C102.855 186.006 103.249 185.892 103.599 185.663C103.954 185.43 104.232 185.124 104.432 184.746C104.638 184.363 104.74 183.948 104.74 183.5C104.74 183.043 104.635 182.623 104.425 182.24C104.22 181.857 103.942 181.552 103.592 181.323C103.242 181.094 102.85 180.98 102.416 180.98C101.978 180.98 101.583 181.097 101.233 181.33C100.883 181.559 100.606 181.864 100.4 182.247C100.195 182.63 100.092 183.047 100.092 183.5C100.092 183.967 100.197 184.391 100.407 184.774C100.617 185.152 100.9 185.453 101.254 185.677C101.609 185.896 101.996 186.006 102.416 186.006ZM113.463 182.646V187H112.287V182.905C112.287 182.55 112.2 182.228 112.028 181.939C111.855 181.65 111.624 181.421 111.335 181.253C111.045 181.08 110.723 180.994 110.369 180.994C110.019 180.994 109.697 181.08 109.403 181.253C109.113 181.421 108.882 181.65 108.71 181.939C108.537 182.228 108.451 182.55 108.451 182.905V187H107.275V180H108.451V180.875C108.698 180.548 109.011 180.289 109.389 180.098C109.767 179.902 110.177 179.804 110.621 179.804C111.143 179.804 111.619 179.932 112.049 180.189C112.483 180.441 112.826 180.782 113.078 181.211C113.334 181.64 113.463 182.119 113.463 182.646Z" fill="#616161"/>
<path d="M152.92 177.2V178.376H149.658V187H148.482V178.376H145.227V177.2H152.92ZM153.288 184.34V180H154.464V184.081C154.464 184.436 154.55 184.758 154.723 185.047C154.895 185.336 155.126 185.567 155.416 185.74C155.71 185.908 156.032 185.992 156.382 185.992C156.736 185.992 157.056 185.908 157.341 185.74C157.63 185.567 157.861 185.336 158.034 185.047C158.206 184.758 158.293 184.436 158.293 184.081V180H159.469L159.476 187H158.3L158.293 186.111C158.045 186.438 157.733 186.699 157.355 186.895C156.977 187.086 156.568 187.182 156.13 187.182C155.607 187.182 155.129 187.056 154.695 186.804C154.265 186.547 153.922 186.204 153.666 185.775C153.414 185.346 153.288 184.867 153.288 184.34ZM164.094 187.182C163.45 187.182 162.862 187.016 162.33 186.685C161.803 186.354 161.38 185.91 161.063 185.355C160.75 184.795 160.594 184.177 160.594 183.5C160.594 182.987 160.685 182.508 160.867 182.065C161.049 181.617 161.299 181.225 161.616 180.889C161.938 180.548 162.311 180.282 162.736 180.091C163.161 179.9 163.613 179.804 164.094 179.804C164.621 179.804 165.104 179.911 165.543 180.126C165.986 180.336 166.364 180.63 166.677 181.008C166.994 181.386 167.23 181.825 167.384 182.324C167.543 182.823 167.601 183.358 167.559 183.927H161.847C161.903 184.324 162.034 184.678 162.239 184.991C162.444 185.299 162.706 185.544 163.023 185.726C163.345 185.908 163.702 186.001 164.094 186.006C164.514 186.006 164.894 185.899 165.235 185.684C165.576 185.465 165.851 185.166 166.061 184.788L167.258 185.068C166.978 185.689 166.556 186.197 165.991 186.594C165.426 186.986 164.794 187.182 164.094 187.182ZM161.812 183.003H166.376C166.339 182.611 166.213 182.254 165.998 181.932C165.783 181.605 165.51 181.344 165.179 181.148C164.848 180.952 164.486 180.854 164.094 180.854C163.702 180.854 163.343 180.95 163.016 181.141C162.689 181.332 162.419 181.591 162.204 181.918C161.994 182.24 161.863 182.602 161.812 183.003Z" fill="#616161"/>
<path d="M201.898 187L199.392 177.2H200.603L202.577 184.935L204.544 177.2H205.601L207.575 184.935L209.542 177.2H210.753L208.261 187H206.889L205.076 179.902L203.263 187H201.898ZM214.454 187.182C213.81 187.182 213.222 187.016 212.69 186.685C212.163 186.354 211.74 185.91 211.423 185.355C211.11 184.795 210.954 184.177 210.954 183.5C210.954 182.987 211.045 182.508 211.227 182.065C211.409 181.617 211.659 181.225 211.976 180.889C212.298 180.548 212.671 180.282 213.096 180.091C213.521 179.9 213.973 179.804 214.454 179.804C214.981 179.804 215.464 179.911 215.903 180.126C216.346 180.336 216.724 180.63 217.037 181.008C217.354 181.386 217.59 181.825 217.744 182.324C217.903 182.823 217.961 183.358 217.919 183.927H212.207C212.263 184.324 212.394 184.678 212.599 184.991C212.804 185.299 213.066 185.544 213.383 185.726C213.705 185.908 214.062 186.001 214.454 186.006C214.874 186.006 215.254 185.899 215.595 185.684C215.936 185.465 216.211 185.166 216.421 184.788L217.618 185.068C217.338 185.689 216.916 186.197 216.351 186.594C215.786 186.986 215.154 187.182 214.454 187.182ZM212.172 183.003H216.736C216.699 182.611 216.573 182.254 216.358 181.932C216.143 181.605 215.87 181.344 215.539 181.148C215.208 180.952 214.846 180.854 214.454 180.854C214.062 180.854 213.703 180.95 213.376 181.141C213.049 181.332 212.779 181.591 212.564 181.918C212.354 182.24 212.223 182.602 212.172 183.003ZM224.893 176.5H226.069V187H224.893V185.81C224.655 186.221 224.335 186.552 223.934 186.804C223.532 187.056 223.061 187.182 222.52 187.182C222.011 187.182 221.535 187.086 221.092 186.895C220.648 186.704 220.256 186.44 219.916 186.104C219.58 185.763 219.316 185.371 219.125 184.928C218.933 184.485 218.838 184.009 218.838 183.5C218.838 182.991 218.933 182.515 219.125 182.072C219.316 181.624 219.58 181.232 219.916 180.896C220.256 180.555 220.648 180.289 221.092 180.098C221.535 179.907 222.011 179.811 222.52 179.811C223.061 179.811 223.532 179.937 223.934 180.189C224.335 180.441 224.655 180.772 224.893 181.183V176.5ZM222.534 186.041C222.996 186.041 223.395 185.929 223.731 185.705C224.071 185.476 224.333 185.168 224.515 184.781C224.701 184.394 224.795 183.967 224.795 183.5C224.795 183.024 224.701 182.595 224.515 182.212C224.328 181.825 224.064 181.519 223.724 181.295C223.388 181.066 222.991 180.952 222.534 180.952C222.072 180.952 221.652 181.066 221.274 181.295C220.9 181.524 220.602 181.832 220.378 182.219C220.154 182.602 220.042 183.029 220.042 183.5C220.042 183.971 220.156 184.401 220.385 184.788C220.613 185.171 220.917 185.476 221.295 185.705C221.673 185.929 222.086 186.041 222.534 186.041Z" fill="#616161"/>
<path d="M265.586 177.2V178.376H262.324V187H261.148V178.376H257.893V177.2H265.586ZM273.38 182.646V187H272.204V182.905C272.204 182.55 272.118 182.228 271.945 181.939C271.772 181.65 271.541 181.421 271.252 181.253C270.963 181.08 270.641 180.994 270.286 180.994C269.936 180.994 269.614 181.08 269.32 181.253C269.031 181.421 268.8 181.65 268.627 181.939C268.454 182.228 268.368 182.55 268.368 182.905V187H267.192V176.5H268.368V180.875C268.615 180.548 268.928 180.289 269.306 180.098C269.684 179.902 270.095 179.804 270.538 179.804C271.061 179.804 271.537 179.932 271.966 180.189C272.4 180.441 272.743 180.782 272.995 181.211C273.252 181.64 273.38 182.119 273.38 182.646ZM274.7 184.34V180H275.876V184.081C275.876 184.436 275.962 184.758 276.135 185.047C276.307 185.336 276.538 185.567 276.828 185.74C277.122 185.908 277.444 185.992 277.794 185.992C278.148 185.992 278.468 185.908 278.753 185.74C279.042 185.567 279.273 185.336 279.446 185.047C279.618 184.758 279.705 184.436 279.705 184.081V180H280.881L280.888 187H279.712L279.705 186.111C279.457 186.438 279.145 186.699 278.767 186.895C278.389 187.086 277.98 187.182 277.542 187.182C277.019 187.182 276.541 187.056 276.107 186.804C275.677 186.547 275.334 186.204 275.078 185.775C274.826 185.346 274.7 184.867 274.7 184.34Z" fill="#616161"/>
<path d="M313.507 187V177.2H319.254V178.376H314.683V181.162H318.582V182.338H314.683V187H313.507ZM320.16 187V180H321.336V180.875C321.583 180.548 321.896 180.289 322.274 180.098C322.652 179.902 323.062 179.804 323.506 179.804C323.776 179.804 324.038 179.839 324.29 179.909L323.814 181.085C323.622 181.024 323.436 180.994 323.254 180.994C322.904 180.994 322.582 181.08 322.288 181.253C321.998 181.421 321.767 181.65 321.595 181.939C321.422 182.228 321.336 182.55 321.336 182.905V187H320.16ZM325.35 180H326.526V187H325.35V180ZM325.952 178.859C325.765 178.859 325.609 178.798 325.483 178.677C325.357 178.556 325.294 178.404 325.294 178.222C325.294 178.04 325.357 177.888 325.483 177.767C325.609 177.646 325.763 177.585 325.945 177.585C326.127 177.585 326.281 177.646 326.407 177.767C326.533 177.888 326.596 178.04 326.596 178.222C326.596 178.404 326.533 178.556 326.407 178.677C326.286 178.798 326.134 178.859 325.952 178.859Z" fill="#616161"/>
<path d="M362.291 187.182C361.764 187.182 361.255 187.1 360.765 186.937C360.275 186.769 359.846 186.531 359.477 186.223C359.113 185.915 358.854 185.549 358.7 185.124L359.799 184.711C359.892 184.972 360.065 185.201 360.317 185.397C360.574 185.588 360.875 185.738 361.22 185.845C361.565 185.952 361.922 186.006 362.291 186.006C362.711 186.006 363.101 185.938 363.46 185.803C363.824 185.663 364.118 185.469 364.342 185.222C364.566 184.975 364.678 184.685 364.678 184.354C364.678 184.013 364.561 183.736 364.328 183.521C364.095 183.302 363.796 183.129 363.432 183.003C363.068 182.872 362.688 182.772 362.291 182.702C361.614 182.59 361.008 182.431 360.471 182.226C359.939 182.016 359.517 181.724 359.204 181.351C358.896 180.978 358.742 180.485 358.742 179.874C358.742 179.305 358.905 178.808 359.232 178.383C359.563 177.958 360 177.629 360.541 177.396C361.082 177.163 361.666 177.046 362.291 177.046C362.809 177.046 363.311 177.128 363.796 177.291C364.286 177.45 364.718 177.683 365.091 177.991C365.464 178.299 365.733 178.675 365.896 179.118L364.783 179.524C364.69 179.258 364.515 179.029 364.258 178.838C364.006 178.642 363.707 178.493 363.362 178.39C363.021 178.283 362.664 178.229 362.291 178.229C361.876 178.224 361.488 178.292 361.129 178.432C360.77 178.572 360.478 178.766 360.254 179.013C360.03 179.26 359.918 179.547 359.918 179.874C359.918 180.266 360.021 180.567 360.226 180.777C360.436 180.982 360.721 181.136 361.08 181.239C361.439 181.342 361.843 181.433 362.291 181.512C362.926 181.619 363.514 181.79 364.055 182.023C364.596 182.252 365.03 182.557 365.357 182.94C365.688 183.323 365.854 183.794 365.854 184.354C365.854 184.923 365.688 185.42 365.357 185.845C365.03 186.27 364.596 186.599 364.055 186.832C363.514 187.065 362.926 187.182 362.291 187.182ZM373.145 180H374.321V187H373.145L373.096 185.817C372.876 186.223 372.573 186.552 372.186 186.804C371.803 187.056 371.346 187.182 370.814 187.182C370.3 187.182 369.82 187.086 369.372 186.895C368.924 186.699 368.527 186.431 368.182 186.09C367.841 185.745 367.575 185.348 367.384 184.9C367.192 184.452 367.097 183.969 367.097 183.451C367.097 182.952 367.19 182.48 367.377 182.037C367.563 181.594 367.822 181.206 368.154 180.875C368.49 180.539 368.877 180.278 369.316 180.091C369.754 179.9 370.226 179.804 370.73 179.804C371.28 179.804 371.763 179.935 372.179 180.196C372.594 180.453 372.93 180.786 373.187 181.197L373.145 180ZM370.793 186.041C371.255 186.041 371.654 185.929 371.99 185.705C372.33 185.476 372.592 185.168 372.774 184.781C372.96 184.394 373.054 183.967 373.054 183.5C373.054 183.024 372.96 182.595 372.774 182.212C372.587 181.825 372.323 181.519 371.983 181.295C371.647 181.066 371.25 180.952 370.793 180.952C370.331 180.952 369.911 181.066 369.533 181.295C369.155 181.524 368.854 181.832 368.63 182.219C368.41 182.602 368.301 183.029 368.301 183.5C368.301 183.971 368.415 184.401 368.644 184.788C368.872 185.171 369.176 185.476 369.554 185.705C369.932 185.929 370.345 186.041 370.793 186.041ZM379.546 181.176H377.957L377.95 187H376.774L376.781 181.176H375.577V180H376.781L376.774 177.802H377.95L377.957 180H379.546V181.176Z" fill="#616161"/>
<path d="M0 165H380V163H0V165Z" fill="#EEEEEE" mask="url(#path-5-inside-1_1559_106401)"/>
<path d="M29 78.5C29 78.5 43.5 116 86.5 116C129.5 116 131 79 153 74C175 69 183.5 91 202 91C220.5 91 231.5 49.5 260 57C288.5 64.5 282 29 325 39C368 49 377.5 25 377.5 25" stroke="#F1979D" stroke-width="4" stroke-linecap="round" stroke-linejoin="round"/>
</g>
<defs>
<clipPath id="clip0_1559_106401">
<rect width="380" height="192" fill="white"/>
</clipPath>
</defs>
</svg>
