<svg width="21" height="20" viewBox="0 0 21 20" fill="none" xmlns="http://www.w3.org/2000/svg">
<path fill-rule="evenodd" clip-rule="evenodd" d="M6.17 0H14.84C18.23 0 20.5 2.38 20.5 5.92V14.091C20.5 17.62 18.23 20 14.84 20H6.17C2.78 20 0.5 17.62 0.5 14.091V5.92C0.5 2.38 2.78 0 6.17 0ZM9.93 12.99L14.68 8.24C15.02 7.9 15.02 7.35 14.68 7C14.34 6.66 13.78 6.66 13.44 7L9.31 11.13L7.56 9.38C7.22 9.04 6.66 9.04 6.32 9.38C5.98 9.72 5.98 10.27 6.32 10.62L8.7 12.99C8.87 13.16 9.09 13.24 9.31 13.24C9.54 13.24 9.76 13.16 9.93 12.99Z" fill="#F9343A"/>
</svg>
