<svg width="28" height="28" viewBox="0 0 28 28" fill="none" xmlns="http://www.w3.org/2000/svg">
<path fill-rule="evenodd" clip-rule="evenodd" d="M14.0007 3.20898C19.96 3.20898 24.7923 8.04015 24.7923 14.0007C24.7923 19.96 19.96 24.7923 14.0007 24.7923C8.04015 24.7923 3.20898 19.96 3.20898 14.0007C3.20898 8.04015 8.04015 3.20898 14.0007 3.20898Z" stroke="#212121" stroke-width="1.5" stroke-linecap="round" stroke-linejoin="round"/>
<path fill-rule="evenodd" clip-rule="evenodd" d="M14.1582 6.40234C13.7078 6.40234 13.3418 6.7674 13.3418 7.21879V8.05779C12.5946 8.19126 11.9234 8.50072 11.3941 8.933C10.631 9.55537 10.1583 10.4284 10.1583 11.4016C10.1583 12.3761 10.631 13.2478 11.3941 13.8712C11.9234 14.3022 12.5946 14.6129 13.3418 14.7452V18.2714C12.9874 18.1722 12.6748 18.0121 12.4207 17.8052C12.0323 17.4883 11.7911 17.0612 11.7911 16.5992C11.7911 16.1487 11.4251 15.7827 10.9746 15.7827C10.5242 15.7827 10.1582 16.1488 10.1582 16.5992C10.1582 17.5737 10.6309 18.4454 11.394 19.0688C11.9233 19.4998 12.5945 19.8105 13.3417 19.9428V20.7828C13.3417 21.2332 13.7078 21.5992 14.1582 21.5992C14.6086 21.5992 14.9746 21.2342 14.9746 20.7828V19.9428C15.7218 19.8105 16.393 19.501 16.9223 19.0688C17.6854 18.4454 18.1581 17.5737 18.1581 16.5992C18.1581 15.6257 17.6854 14.7539 16.9223 14.1306C16.393 13.6995 15.7218 13.3888 14.9746 13.2566V9.73033C15.329 9.82835 15.6416 9.98965 15.8957 10.1966C16.2841 10.5135 16.5253 10.9415 16.5253 11.4026C16.5253 11.853 16.8914 12.219 17.3418 12.219C17.7922 12.219 18.1582 11.854 18.1582 11.4026C18.1582 10.4291 17.6855 9.55737 16.9224 8.93401C16.3931 8.50176 15.7219 8.19107 14.9747 8.0588V7.21879C14.9747 6.76837 14.6086 6.40234 14.1582 6.40234ZM13.3257 13.0126C12.9713 12.9146 12.6586 12.7533 12.4045 12.5463C12.0162 12.2295 11.775 11.8024 11.775 11.3403C11.775 10.8793 12.0159 10.4512 12.4045 10.1344C12.6586 9.92739 12.9723 9.76635 13.3257 9.66808V13.0126ZM14.9672 14.9093V18.2539C15.3206 18.1556 15.6342 17.9946 15.8883 17.7876C16.2769 17.4707 16.5179 17.0426 16.5179 16.5816C16.5179 16.1195 16.2767 15.6925 15.8883 15.3756C15.6342 15.1687 15.3215 15.0074 14.9672 14.9093Z" fill="#212121"/>
</svg>
