<svg width="21" height="21" viewBox="0 0 21 21" fill="none" xmlns="http://www.w3.org/2000/svg">
<path d="M11.5822 15.841V15.3069L11.5821 15.307C13.1613 14.9679 14.1355 13.8937 14.136 12.4755C14.136 10.5234 12.6468 9.95607 11.249 9.57704C9.67868 9.16955 9.17481 8.87689 9.17481 8.37476C9.17481 8.00696 9.50088 7.57824 10.4197 7.57824C11.1522 7.57824 11.5043 7.79067 11.8148 7.97809L11.8148 7.97809L11.8155 7.9785L11.8449 7.99612L11.8449 7.99613C11.8917 8.02422 11.9375 8.05176 11.9863 8.07862C12.2015 8.20047 12.424 8.32606 12.7735 8.32606C13.1506 8.32606 13.7497 8.05664 13.7497 7.3328C13.7497 6.91708 13.5203 6.5353 13.1218 6.28661C12.6458 5.98248 12.1407 5.78098 11.5823 5.67312V5.15526C11.5823 4.56398 11.1545 4.13477 10.5659 4.13477C9.97722 4.13477 9.54991 4.56399 9.54991 5.15526V5.6896C8.03605 6.01598 7.10262 7.0389 7.10262 8.38775C7.10262 10.2674 8.57353 10.8956 9.85619 11.2325C11.5988 11.6839 12.05 11.9526 12.05 12.5418C12.05 13.1883 11.2722 13.418 10.6057 13.418C9.58682 13.418 9.05259 13.0362 8.58326 12.6377C8.33241 12.4527 8.08458 12.3626 7.8263 12.3626C7.43775 12.3626 6.86328 12.6871 6.86328 13.383C6.86328 13.8335 7.25579 14.2138 7.3694 14.3129C7.75822 14.6925 8.44753 15.1699 9.54972 15.3422V15.841C9.54972 16.4328 9.97705 16.862 10.5657 16.862C11.1549 16.862 11.5822 16.4323 11.5822 15.841Z" fill="white"/>
<path fill-rule="evenodd" clip-rule="evenodd" d="M10.7264 2.77184C6.34002 2.77184 2.77184 6.34002 2.77184 10.7264C2.77184 15.1127 6.34002 18.6809 10.7264 18.6809C15.1127 18.6809 18.6809 15.1127 18.6809 10.7264C18.6809 6.34002 15.1127 2.77184 10.7264 2.77184ZM10.7264 20.0446C5.5882 20.0446 1.4082 15.8646 1.4082 10.7264C1.4082 5.5882 5.5882 1.4082 10.7264 1.4082C15.8646 1.4082 20.0446 5.5882 20.0446 10.7264C20.0446 15.8646 15.8646 20.0446 10.7264 20.0446Z" fill="white"/>
</svg>
