<svg width="25" height="23" viewBox="0 0 25 23" fill="none" xmlns="http://www.w3.org/2000/svg">
<path d="M8.04752 22.2C17.1042 22.2 22.0578 13.7352 22.0578 6.3946C22.0578 6.15417 22.0578 5.91483 22.0434 5.67657C23.007 4.89021 23.8389 3.91655 24.5 2.80118C23.6014 3.25063 22.648 3.54525 21.6718 3.67517C22.6998 2.98101 23.4692 1.88909 23.8366 0.602675C22.8701 1.24978 21.8126 1.70579 20.7099 1.95102C19.9675 1.06045 18.9856 0.47073 17.9162 0.27313C16.8468 0.0755294 15.7494 0.281061 14.794 0.857918C13.8385 1.43478 13.0782 2.3508 12.6307 3.46424C12.1833 4.57768 12.0735 5.82645 12.3186 7.01733C10.3609 6.90654 8.44576 6.33259 6.69745 5.33272C4.94915 4.33284 3.40676 2.9294 2.1704 1.21349C1.54073 2.43638 1.34787 3.88404 1.6311 5.26171C1.91433 6.63938 2.65234 7.84348 3.69488 8.62884C2.91123 8.60294 2.14465 8.36445 1.46 7.93355V8.00395C1.46031 9.28647 1.85385 10.5294 2.57387 11.5219C3.29389 12.5144 4.29606 13.1954 5.4104 13.4493C4.68548 13.6724 3.92487 13.705 3.18704 13.5446C3.50181 14.6483 4.11443 15.6134 4.93924 16.3051C5.76405 16.9967 6.75983 17.3804 7.78736 17.4023C6.76644 18.3076 5.59731 18.9769 4.34687 19.372C3.09643 19.7671 1.78921 19.8802 0.5 19.7048C2.75183 21.3349 5.37192 22.1996 8.04752 22.1957" fill="#1DA1F2"/>
</svg>
