<svg width="62" height="21" viewBox="0 0 62 21" fill="none" xmlns="http://www.w3.org/2000/svg">
<path fill-rule="evenodd" clip-rule="evenodd" d="M45.2792 1.32425C44.3005 0.932521 42.7483 0.5 40.8289 0.5C35.9291 0.5 32.4787 3.13619 32.4576 6.90515C32.4169 9.68587 34.928 11.2304 36.806 12.1575C38.7257 13.105 39.3782 13.7234 39.3782 14.5679C39.3587 15.8649 37.827 16.4628 36.3985 16.4628C34.4176 16.4628 33.3562 16.1545 31.7432 15.4329L31.0898 15.1236L30.3955 19.4696C31.5592 20.0045 33.7032 20.4792 35.9291 20.5C41.1353 20.5 44.5246 17.9046 44.5648 13.8882C44.5846 11.6842 43.2586 9.99548 40.4 8.61552C38.6646 7.72967 37.6018 7.13236 37.6018 6.22598C37.6222 5.402 38.5007 4.55803 40.4597 4.55803C42.0727 4.5167 43.2578 4.90788 44.1556 5.29934L44.6044 5.50493L45.2792 1.32425ZM27.2927 20.2111H22.3311L25.4344 0.850586H30.3958L27.2927 20.2111ZM57.9974 0.851562H54.1595C52.976 0.851562 52.0769 1.20141 51.5662 2.45791L44.1963 20.2118H49.4024C49.4024 20.2118 50.2595 17.8223 50.4438 17.3076H56.8141C56.9566 17.9873 57.4062 20.2118 57.4062 20.2118H62.0002L57.9974 0.851562ZM51.873 13.3535C52.2817 12.2412 53.854 7.93655 53.854 7.93655C53.8457 7.9532 53.9102 7.77274 54.0062 7.50415L54.007 7.50198L54.0072 7.50153C54.1496 7.10318 54.3608 6.51258 54.5068 6.08301L54.8535 7.75123C54.8535 7.75123 55.7931 12.3855 55.9972 13.3535H51.873ZM18.1865 0.850586L13.3274 14.0526L12.7964 11.3754C12.7965 11.3756 12.7966 11.3757 12.7966 11.3759L11.0612 2.47802C10.7755 1.2415 9.89753 0.891374 8.8155 0.850586H0.832645L0.750977 1.24177C2.69784 1.74407 4.43915 2.46787 5.96491 3.36782L10.3873 20.1906H15.6341L23.433 0.850586H18.1865Z" fill="white"/>
</svg>
