<svg width="25" height="24" viewBox="0 0 25 24" fill="none" xmlns="http://www.w3.org/2000/svg">
<mask id="mask0_2351_71732" style="mask-type:alpha" maskUnits="userSpaceOnUse" x="2" y="5" width="16" height="16">
<path fill-rule="evenodd" clip-rule="evenodd" d="M2.5 5H18.0003V20.5013H2.5V5Z" fill="white"/>
</mask>
<g mask="url(#mask0_2351_71732)">
<path fill-rule="evenodd" clip-rule="evenodd" d="M7.34711 6.50135C6.90811 6.50135 6.62511 6.50135 6.57611 6.50335C5.83811 6.53435 5.15711 6.84735 4.66611 7.38335C4.20811 7.88435 3.97211 8.52435 4.00311 9.18835C4.00311 12.0813 4.00411 16.4233 4.01111 16.6613C4.12511 18.0463 5.42311 19.1053 6.90911 18.9913C9.65911 18.9953 13.7331 19.0043 13.9241 18.9973C14.6591 18.9673 15.3411 18.6553 15.8321 18.1203C16.2911 17.6213 16.5271 16.9813 16.4981 16.3203C16.4971 16.3093 16.4971 16.2983 16.4971 16.2873C16.4981 13.4273 16.4981 9.08835 16.4911 8.85535C16.3781 7.46335 15.0741 6.39135 13.5801 6.50835C11.5141 6.50535 8.69511 6.50135 7.34711 6.50135ZM6.64611 20.5013C4.53211 20.5023 2.68811 18.8823 2.51411 16.7573C2.51111 16.7163 2.50111 16.5913 2.50411 9.22235C2.45611 8.19135 2.83011 7.16735 3.56011 6.37035C4.32211 5.53835 5.37311 5.05335 6.52011 5.00435C6.65911 4.99435 11.4671 5.00635 13.5261 5.01035C15.7761 4.85235 17.8071 6.52235 17.9881 8.76335C17.9961 8.87235 17.9991 11.3973 17.9971 16.2723C18.0391 17.3283 17.6631 18.3453 16.9371 19.1353C16.1741 19.9663 15.1221 20.4493 13.9761 20.4963C13.8361 20.5063 9.02611 20.4933 6.96411 20.4893C6.85811 20.4973 6.75211 20.5013 6.64611 20.5013Z" fill="#757575"/>
</g>
<path fill-rule="evenodd" clip-rule="evenodd" d="M21.3179 18.3493C20.8669 18.3493 20.4219 18.1943 20.0549 17.8933L16.7739 15.1973C16.4539 14.9343 16.4079 14.4613 16.6709 14.1413C16.9329 13.8223 17.4059 13.7743 17.7259 14.0383L21.0059 16.7343C21.2269 16.9143 21.4489 16.8403 21.5349 16.7983C21.6209 16.7583 21.8199 16.6333 21.8199 16.3493L21.8319 9.00031C21.8329 8.71631 21.6329 8.59131 21.5469 8.55031C21.4619 8.51031 21.2369 8.43531 21.0179 8.61531L17.7249 11.3103C17.4029 11.5733 16.9319 11.5263 16.6699 11.2043C16.4069 10.8843 16.4549 10.4123 16.7749 10.1503L20.0679 7.45431C20.6719 6.95931 21.4849 6.86231 22.1899 7.19531C22.8949 7.53031 23.3329 8.22231 23.3319 9.00231L23.3199 16.3513C23.3189 17.1313 22.8799 17.8233 22.1759 18.1553C21.8999 18.2863 21.6079 18.3493 21.3179 18.3493Z" fill="#757575"/>
</svg>
