<svg width="32" height="32" viewBox="0 0 32 32" fill="none" xmlns="http://www.w3.org/2000/svg">
<path fill-rule="evenodd" clip-rule="evenodd" d="M10.9694 11.6141H21.6429C24.7862 11.6141 27.3346 14.1069 27.3346 17.1815V23.7653C27.3346 26.8399 24.7862 29.3327 21.6429 29.3327H10.3583C7.21644 29.3327 4.66797 26.8399 4.66797 23.7653V17.1815C4.66797 14.6529 6.40218 12.5418 8.76233 11.8632L8.61465 11.8805V9.84887C8.64175 5.8877 11.9354 2.66602 15.9729 2.66602C19.1297 2.66602 21.9193 4.61546 22.949 7.50318C23.0574 7.79473 23.0303 8.11279 22.8948 8.39109C22.7593 8.6694 22.5168 8.88143 22.2174 8.97553C21.6077 9.18624 20.9303 8.86951 20.6999 8.25989C20.009 6.2972 18.1135 4.9852 15.9999 4.9852C13.2347 4.9852 11.0005 7.15994 10.9856 9.82236V11.6114L10.9694 11.6141ZM15.994 23.1043C16.6579 23.1043 17.1863 22.5875 17.1863 21.9381V18.9961C17.1863 18.3599 16.6579 17.8431 15.994 17.8431C15.3437 17.8431 14.8153 18.3599 14.8153 18.9961V21.9381C14.8153 22.5875 15.3437 23.1043 15.994 23.1043Z" fill="white"/>
</svg>
