<svg width="20" height="20" viewBox="0 0 20 20" fill="none" xmlns="http://www.w3.org/2000/svg">
<path fill-rule="evenodd" clip-rule="evenodd" d="M5.09404 3.75H9.92075C11.9391 3.75 13.3483 5.14086 13.3483 7.13409V12.8659C13.3483 14.8591 11.9391 16.25 9.92075 16.25H5.09404C3.07568 16.25 1.6665 14.8591 1.6665 12.8659V7.13409C1.6665 5.14086 3.07568 3.75 5.09404 3.75ZM16.6315 5.73249C16.9973 5.54636 17.4265 5.56582 17.7757 5.78579C18.1248 6.00491 18.3332 6.38562 18.3332 6.80186V13.1986C18.3332 13.6157 18.1248 13.9956 17.7757 14.2147C17.5848 14.334 17.3715 14.3949 17.1565 14.3949C16.9773 14.3949 16.7982 14.3526 16.6307 14.2672L15.3965 13.6445C14.9398 13.4127 14.6565 12.9474 14.6565 12.4305V7.5692C14.6565 7.05144 14.9398 6.58612 15.3965 6.35601L16.6315 5.73249Z" fill="white"/>
</svg>
