<svg width="20" height="17" viewBox="0 0 20 17" fill="none" xmlns="http://www.w3.org/2000/svg">
<path d="M19.334 8.32007C19.334 8.76305 19.0048 9.12914 18.5777 9.18708L18.459 9.19507L0.958982 9.19507C0.475735 9.19507 0.0839825 8.80332 0.0839825 8.32007C0.0839825 7.87709 0.413162 7.511 0.840252 7.45306L0.958982 7.44507L18.459 7.44507C18.9422 7.44507 19.334 7.83682 19.334 8.32007Z" fill="white"/>
<path d="M8.63496 14.7284C8.97741 15.0694 8.9786 15.6234 8.63763 15.9658C8.32765 16.2771 7.84161 16.3064 7.49851 16.053L7.40019 15.9685L0.34186 8.94048C0.0296164 8.62958 0.00121212 8.14178 0.256659 7.79869L0.341808 7.70043L7.40014 0.671262C7.74256 0.330261 8.29658 0.331408 8.63758 0.673824C8.94758 0.985111 8.97481 1.47128 8.71994 1.8133L8.63501 1.91126L2.19964 8.32078L8.63496 14.7284Z" fill="white"/>
</svg>
