<svg width="20" height="20" viewBox="0 0 20 20" fill="none" xmlns="http://www.w3.org/2000/svg">
<path fill-rule="evenodd" clip-rule="evenodd" d="M10.1455 12.6805H9.85404C7.85122 12.6805 6.22782 11.0766 6.22782 9.09962V5.2469C6.22782 3.26912 7.85122 1.66602 9.85404 1.66602H10.1455C12.1483 1.66602 13.7725 3.26912 13.7725 5.2469V9.09962C13.7725 11.0766 12.1483 12.6805 10.1455 12.6805ZM15.4686 8.98507C15.4686 8.54423 15.8303 8.1879 16.2759 8.1879C16.7215 8.1879 17.0832 8.54423 17.0832 8.98507C17.0832 12.5715 14.3336 15.533 10.8075 15.9308V17.5355C10.8075 17.9756 10.4459 18.3327 10.0002 18.3327C9.55382 18.3327 9.19298 17.9756 9.19298 17.5355V15.9308C5.66604 15.533 2.9165 12.5715 2.9165 8.98507C2.9165 8.54423 3.27816 8.1879 3.72377 8.1879C4.16938 8.1879 4.53103 8.54423 4.53103 8.98507C4.53103 11.9625 6.9843 14.3851 10.0002 14.3851C13.0154 14.3851 15.4686 11.9625 15.4686 8.98507Z" fill="white"/>
</svg>
