<svg width="21" height="21" viewBox="0 0 21 21" fill="none" xmlns="http://www.w3.org/2000/svg">
<path fill-rule="evenodd" clip-rule="evenodd" d="M13.7082 2.58412C14.234 2.58412 14.759 2.65828 15.2582 2.82578C18.334 3.82578 19.4424 7.20078 18.5165 10.1508C17.9915 11.6583 17.1332 13.0341 16.009 14.1583C14.3999 15.7166 12.634 17.0999 10.7332 18.2916L10.5249 18.4174L10.3082 18.2833C8.40068 17.0999 6.62485 15.7166 5.00068 14.15C3.88402 13.0258 3.02485 11.6583 2.49152 10.1508C1.54985 7.20078 2.65818 3.82578 5.76735 2.80828C6.00902 2.72495 6.25818 2.66662 6.50818 2.63412H6.60818C6.84235 2.59995 7.07485 2.58412 7.30818 2.58412H7.39985C7.92485 2.59995 8.43318 2.69162 8.92568 2.85912H8.97485C9.00818 2.87495 9.03318 2.89245 9.04985 2.90828C9.23402 2.96745 9.40818 3.03412 9.57485 3.12578L9.89152 3.26745C9.96804 3.30826 10.0539 3.37062 10.1281 3.42451C10.1752 3.45865 10.2175 3.4894 10.2499 3.50912C10.2635 3.51714 10.2773 3.52521 10.2912 3.53335C10.3627 3.57505 10.4371 3.6185 10.4999 3.66662C11.4257 2.95912 12.5499 2.57578 13.7082 2.58412ZM15.9249 8.58412C16.2665 8.57495 16.5582 8.30078 16.5832 7.94995V7.85078C16.6082 6.68328 15.9007 5.62578 14.8249 5.21745C14.4832 5.09995 14.1082 5.28412 13.9832 5.63412C13.8665 5.98412 14.0499 6.36745 14.3999 6.49162C14.934 6.69162 15.2915 7.21745 15.2915 7.79995V7.82578C15.2757 8.01662 15.3332 8.20078 15.4499 8.34245C15.5665 8.48412 15.7415 8.56662 15.9249 8.58412Z" fill="white"/>
</svg>
