<svg width="35" height="35" viewBox="0 0 35 35" fill="none" xmlns="http://www.w3.org/2000/svg">
<path fill-rule="evenodd" clip-rule="evenodd" d="M24.3029 2.93176C26.4007 2.80064 28.4695 3.52906 30.0283 4.95675C31.456 6.51555 32.1844 8.58425 32.0678 10.6966V24.3034C32.199 26.4158 31.456 28.4845 30.0428 30.0433C28.484 31.471 26.4007 32.1994 24.3029 32.0683H10.696C8.58362 32.1994 6.51491 31.471 4.95609 30.0433C3.52839 28.4845 2.79997 26.4158 2.93109 24.3034V10.6966C2.79997 8.58425 3.52839 6.51555 4.95609 4.95675C6.51491 3.52906 8.58362 2.80064 10.696 2.93176H24.3029ZM16.0135 24.5659L25.818 14.7323C26.7067 13.8291 26.7067 12.3723 25.818 11.4836L23.9241 9.58973C23.0209 8.6865 21.564 8.6865 20.6608 9.58973L19.6847 10.5804C19.539 10.7261 19.539 10.9737 19.6847 11.1194C19.6847 11.1194 22.0011 13.4212 22.0448 13.4795C22.2051 13.6543 22.307 13.8874 22.307 14.1496C22.307 14.6741 21.8845 15.1111 21.3455 15.1111C21.0979 15.1111 20.8648 15.0091 20.7045 14.8489L18.2716 12.4305C18.155 12.314 17.9511 12.314 17.8345 12.4305L10.8854 19.3796C10.4047 19.8604 10.1279 20.5014 10.1133 21.1861L10.0259 24.6387C10.0259 24.8281 10.0842 25.003 10.2153 25.1341C10.3464 25.2652 10.5212 25.338 10.7106 25.338H14.1342C14.8335 25.338 15.5036 25.0612 16.0135 24.5659Z" fill="#F9343A"/>
</svg>
