<svg width="20" height="21" viewBox="0 0 20 21" fill="none" xmlns="http://www.w3.org/2000/svg">
<path fill-rule="evenodd" clip-rule="evenodd" d="M8.16874 12.9104C8.68914 13.2632 9.32337 13.4765 9.99825 13.4765C11.7871 13.4765 13.2426 12.0079 13.2426 10.203C13.2426 9.52204 13.0312 8.88211 12.6815 8.35703L11.7952 9.2513C11.9416 9.53024 12.0229 9.85841 12.0229 10.203C12.0229 11.327 11.1122 12.2458 9.99825 12.2458C9.65674 12.2458 9.3315 12.1638 9.05504 12.0161L8.16874 12.9104ZM15.3567 5.65784C16.5357 6.7408 17.5358 8.20115 18.2839 9.95686C18.3489 10.1127 18.3489 10.2932 18.2839 10.4409C16.5438 14.5266 13.4459 16.9715 9.99825 16.9715H9.99012C8.42081 16.9715 6.91654 16.4546 5.59117 15.5111L4.01372 17.1028C3.89176 17.2258 3.73726 17.2832 3.58277 17.2832C3.42828 17.2832 3.26566 17.2258 3.15182 17.1028C2.94854 16.8976 2.91602 16.5695 3.07864 16.3316L3.10303 16.2987L15.129 4.16467L15.129 4.16466C15.1453 4.14826 15.1615 4.13185 15.1697 4.11544L15.1697 4.11544C15.1859 4.09903 15.2022 4.08262 15.2103 4.06622L15.9746 3.29502C16.2186 3.0571 16.6007 3.0571 16.8366 3.29502C17.0805 3.53294 17.0805 3.92675 16.8366 4.16467L15.3567 5.65784ZM6.74799 10.2062C6.74799 10.4195 6.77238 10.6328 6.8049 10.8297L3.79638 13.8653C2.98326 12.9136 2.27585 11.765 1.7148 10.4441C1.64975 10.2964 1.64975 10.1159 1.7148 9.96006C3.45487 5.87435 6.55284 3.43769 9.99232 3.43769H10.0004C11.1632 3.43769 12.2934 3.71664 13.3342 4.24171L10.6184 6.98192C10.4233 6.9491 10.2119 6.92449 10.0004 6.92449C8.20346 6.92449 6.74799 8.39305 6.74799 10.2062Z" fill="#9E9E9E"/>
</svg>
