<svg width="20" height="21" viewBox="0 0 20 21" fill="none" xmlns="http://www.w3.org/2000/svg">
<path fill-rule="evenodd" clip-rule="evenodd" d="M14.1171 2.70001C15.2346 2.70001 16.3096 3.14168 17.1005 3.93418C17.8921 4.72501 18.3346 5.79168 18.3346 6.90835V13.4917C18.3346 15.8167 16.443 17.7 14.1171 17.7H5.88464C3.5588 17.7 1.66797 15.8167 1.66797 13.4917V6.90835C1.66797 4.58335 3.55047 2.70001 5.88464 2.70001H14.1171ZM15.443 8.15001L15.5096 8.08335C15.7088 7.84168 15.7088 7.49168 15.5005 7.25001C15.3846 7.12585 15.2255 7.05001 15.0596 7.03335C14.8846 7.02418 14.718 7.08335 14.5921 7.20001L10.8346 10.2C10.3513 10.6008 9.6588 10.6008 9.16797 10.2L5.41797 7.20001C5.1588 7.00835 4.80047 7.03335 4.58464 7.25835C4.35964 7.48335 4.33464 7.84168 4.52547 8.09168L4.63464 8.20001L8.4263 11.1583C8.89297 11.525 9.4588 11.725 10.0513 11.725C10.6421 11.725 11.218 11.525 11.6838 11.1583L15.443 8.15001Z" fill="#9E9E9E"/>
</svg>
