<svg width="347" height="334" viewBox="0 0 347 334" fill="none" xmlns="http://www.w3.org/2000/svg">
<path d="M170.311 323.037C171.609 327.226 170.397 331.795 167.809 332.597C165.221 333.399 162.754 332.269 161.456 328.081C160.157 323.892 161.172 321.742 163.76 320.94C166.348 320.138 169.013 318.848 170.311 323.037Z" fill="#F1979D"/>
<path d="M336.07 312.732C330.091 318.154 321.527 319.685 318.177 315.991C314.828 312.297 314.794 307.302 320.772 301.88C326.751 296.459 331.125 296.48 334.475 300.174C337.825 303.868 342.049 307.31 336.07 312.732Z" fill="#F1979D"/>
<path d="M42.9043 304.5C34.6144 312.018 20.2226 311.364 12.8596 303.244C5.49666 295.125 3.42072 285.963 11.7106 278.445C20.0005 270.927 27.6757 272.732 35.0387 280.851C42.4016 288.971 51.1941 296.982 42.9043 304.5Z" fill="#F1979D"/>
<path d="M76.6134 179.846C77.9116 184.034 76.7002 188.603 74.1121 189.405C71.524 190.207 69.0565 189.078 67.7583 184.889C66.4601 180.701 67.4743 178.551 70.0624 177.749C72.6505 176.947 75.3153 175.657 76.6134 179.846Z" fill="#F1979D"/>
<g clip-path="url(#clip0_1062_23998)">
<rect x="103" y="97" width="140" height="140" rx="48" fill="url(#paint0_linear_1062_23998)"/>
<path fill-rule="evenodd" clip-rule="evenodd" d="M168.71 125.213C150.419 127.056 135.15 141.033 131.62 159.165C130.8 163.381 130.792 170.529 131.604 174.695C135.773 196.092 155.661 211.011 177.04 208.779C183.282 208.127 189.288 206.192 194.341 203.204C204.675 197.093 212.084 186.561 214.396 174.695C215.208 170.529 215.2 163.381 214.38 159.165C210.22 137.798 190.359 123.033 168.71 125.213ZM177.483 146.49C183.254 147.682 189.281 152.438 191.832 157.814C193.391 161.098 193.945 163.536 193.937 167.084C193.917 176.712 187.533 184.877 178.114 187.321C175.014 188.125 169.264 187.917 166.34 186.895C156.202 183.352 150.29 172.961 152.46 162.504C153.973 155.214 160.635 148.384 167.956 146.615C170.386 146.028 174.953 145.968 177.483 146.49ZM169.077 155.043C163.925 156.65 160.508 161.407 160.508 166.974C160.508 170.641 161.577 173.229 164.153 175.798C166.728 178.366 169.323 179.433 173 179.433C176.677 179.433 179.272 178.366 181.847 175.798C184.407 173.245 185.495 170.632 185.487 167.052C185.48 163.978 185.114 163.263 184.234 164.601C183.478 165.752 181 166.955 179.362 166.966C176.027 166.989 173 164.003 173 160.69C173 159.139 174.322 156.461 175.452 155.723C176.133 155.279 176.234 155.062 175.87 154.832C175.138 154.369 170.808 154.504 169.077 155.043Z" fill="white"/>
</g>
<path d="M304.337 109.818C303.432 98.3876 313.039 87.1218 324.304 86.2302C335.568 85.3385 344.35 89.3887 345.254 100.819C346.159 112.249 339.848 117.346 328.584 118.237C317.32 119.129 305.242 121.247 304.337 109.818Z" fill="#F34A55"/>
<path d="M20.061 87.4448C17.7795 89.8738 12.4513 86.9392 9.68935 84.1773C6.9274 81.4153 3.43236 75.9763 7.45707 71.9516C11.4818 67.9269 16.8691 73.4968 19.631 76.2588C22.3929 79.0207 22.3426 85.0159 20.061 87.4448Z" fill="#E86E76"/>
<path d="M131.693 39.2792C125.714 44.7009 117.15 46.2316 113.801 42.5375C110.451 38.8434 110.417 33.8491 116.395 28.4273C122.374 23.0055 126.749 23.0265 130.098 26.7205C133.448 30.4146 137.672 33.8574 131.693 39.2792Z" fill="#F1979D"/>
<path d="M237.624 3.62709C238.701 7.64919 236.014 12.3067 232.05 13.3688C228.087 14.4309 224.683 13.5643 223.605 9.54224C222.528 5.52013 224.445 3.28323 228.409 2.22112C232.373 1.15901 236.546 -0.395019 237.624 3.62709Z" fill="#F1979D"/>
<defs>
<linearGradient id="paint0_linear_1062_23998" x1="243" y1="237" x2="76.4126" y2="188.7" gradientUnits="userSpaceOnUse">
<stop stop-color="#FF4D67"/>
<stop offset="1" stop-color="#FF8A9B"/>
</linearGradient>
<clipPath id="clip0_1062_23998">
<rect width="140" height="140" fill="white" transform="translate(103 97)"/>
</clipPath>
</defs>
</svg>
