<svg width="310" height="221" viewBox="0 0 310 221" fill="none" xmlns="http://www.w3.org/2000/svg">
<g clip-path="url(#clip0_1062_24189)">
<path d="M20.9809 220.333H289.005C289.141 220.333 289.271 220.279 289.367 220.183C289.463 220.088 289.517 219.957 289.517 219.822C289.517 219.686 289.463 219.556 289.367 219.46C289.271 219.364 289.141 219.31 289.005 219.31H20.9809C20.8451 219.31 20.7148 219.364 20.6188 219.46C20.5227 219.556 20.4688 219.686 20.4688 219.822C20.4688 219.957 20.5227 220.088 20.6188 220.183C20.7148 220.279 20.8451 220.333 20.9809 220.333Z" fill="#E0E0E0"/>
<path d="M243.088 181.034C239.123 181.034 235.091 180.946 230.99 180.769L231.034 179.749C261.634 181.072 288.634 177.414 309.118 169.168L309.501 170.116C291.631 177.308 268.856 181.034 243.088 181.034Z" fill="#EEEEEE"/>
<path d="M219.063 182.566C215.098 182.566 211.065 182.478 206.965 182.301L207.009 181.281C237.609 182.604 264.608 178.946 285.093 170.7L285.475 171.647C267.606 178.84 244.83 182.566 219.063 182.566Z" fill="#EEEEEE"/>
<path d="M223.713 151.103C204.149 151.103 182.89 148.199 161.774 142.615C135.661 135.709 111.718 125.286 92.5332 112.471L93.1013 111.622C112.193 124.375 136.03 134.751 162.035 141.628C185.536 147.843 209.212 150.722 230.497 149.962L230.534 150.983C228.286 151.063 226.012 151.104 223.713 151.103Z" fill="#EEEEEE"/>
<path d="M268.593 144.681L268.266 143.714C285.763 137.805 296.706 128.285 299.913 116.184C303.99 100.801 295.133 82.9493 274.974 65.9181C254.711 48.8004 225.493 34.5971 192.699 25.9249L192.961 24.9376C225.898 33.6479 255.259 47.9248 275.634 65.1385C296.112 82.4384 305.085 100.66 300.902 116.445C297.603 128.893 286.43 138.657 268.593 144.681Z" fill="#EEEEEE"/>
<path d="M305.788 138.016C301.638 127.8 292.288 119.142 281.275 118.404C288.173 128.217 291.373 140.15 290.31 152.092C289.884 156.696 288.929 161.773 291.52 165.605C293.132 167.989 295.891 169.405 298.71 169.997C301.528 170.59 304.443 170.452 307.32 170.311L307.973 170.61C309.678 159.717 309.939 148.232 305.788 138.016Z" fill="#F5F5F5"/>
<path d="M281.229 118.631C288.869 123.634 294.736 130.916 297.998 139.44C298.733 141.263 299.175 143.19 299.309 145.15C299.378 147.064 298.933 148.961 298.019 150.645C297.199 152.232 296.176 153.76 295.756 155.519C295.555 156.422 295.547 157.357 295.733 158.264C295.919 159.171 296.294 160.028 296.835 160.779C298.134 162.687 300.041 164.014 301.952 165.247C304.073 166.617 306.298 168.006 307.636 170.216C307.798 170.483 308.205 170.216 308.043 169.949C305.714 166.104 301.028 164.82 298.088 161.583C296.717 160.072 295.793 158.139 296.142 156.063C296.447 154.248 297.5 152.671 298.345 151.072C299.26 149.442 299.762 147.614 299.806 145.746C299.773 143.785 299.405 141.844 298.72 140.007C297.242 135.845 295.119 131.941 292.428 128.438C289.378 124.423 285.664 120.959 281.445 118.196C281.184 118.025 280.969 118.461 281.229 118.631V118.631Z" fill="white"/>
<path d="M298.542 149.895C295.501 149.033 292.896 147.057 291.247 144.361C291.084 144.094 290.678 144.361 290.841 144.628C292.561 147.43 295.276 149.48 298.444 150.371C298.746 150.455 298.843 149.979 298.542 149.895Z" fill="white"/>
<path d="M297.111 136.633C298.468 135.893 299.518 134.694 300.072 133.251C300.627 131.809 300.65 130.217 300.137 128.759C300.033 128.464 299.57 128.613 299.674 128.908C300.154 130.264 300.132 131.748 299.613 133.09C299.094 134.432 298.112 135.545 296.844 136.227C296.569 136.376 296.837 136.781 297.111 136.633Z" fill="white"/>
<path d="M289.062 124.985C288.597 125.381 288.04 125.655 287.443 125.783C286.845 125.911 286.225 125.889 285.638 125.718C285.337 125.629 285.24 126.106 285.539 126.194C286.188 126.379 286.873 126.403 287.534 126.263C288.195 126.123 288.811 125.824 289.329 125.391C289.382 125.354 289.418 125.299 289.431 125.237C289.444 125.174 289.433 125.109 289.399 125.055C289.364 125.001 289.308 124.963 289.245 124.95C289.182 124.937 289.116 124.95 289.062 124.985H289.062Z" fill="white"/>
<path d="M72.475 96.3872C56.8 80.9728 50.1796 64.8919 53.8328 51.1069C58.5211 33.4168 79.349 21.1855 110.976 17.5494L111.093 18.5642C79.9061 22.1494 59.396 34.1061 54.8212 51.3681C51.2658 64.7836 57.7901 80.5134 73.1924 95.6596L72.475 96.3872Z" fill="#EEEEEE"/>
<path d="M107.933 151.53C69.4924 134.5 39.8707 112.404 24.5254 89.3145L25.377 88.7495C40.6162 111.68 70.0824 133.644 108.348 150.597L107.933 151.53Z" fill="#EEEEEE"/>
<path d="M199.689 152.635C180.126 152.635 158.867 149.731 137.75 144.147C111.637 137.241 87.6941 126.818 68.5098 114.003L69.0779 113.154C88.1698 125.907 112.007 136.283 138.012 143.159C161.512 149.374 185.189 152.254 206.474 151.494L206.51 152.514C204.263 152.595 201.989 152.635 199.689 152.635Z" fill="#EEEEEE"/>
<path d="M244.57 146.213L244.242 145.246C261.739 139.336 272.683 129.817 275.89 117.716C279.967 102.333 271.11 84.4811 250.95 67.45C230.688 50.3323 201.47 36.1289 168.676 27.4568L168.937 26.4695C201.874 35.1798 231.235 49.4567 251.61 66.6704C272.088 83.9703 281.062 102.191 276.878 117.977C273.579 130.425 262.407 140.189 244.57 146.213Z" fill="#EEEEEE"/>
<path d="M255.586 145.513C255.772 145.573 255.958 145.634 256.146 145.698C258.645 146.525 261.073 147.554 263.406 148.773C263.588 148.865 263.771 148.96 263.949 149.057C269.538 152.055 274.52 156.064 278.644 160.879C280.283 162.797 281.773 164.837 283.103 166.98C284.938 169.941 286.693 173.296 289.323 175.416C289.595 175.64 289.88 175.847 290.178 176.036L307.559 171.383C307.593 171.353 307.629 171.327 307.663 171.296L308.366 171.142C308.305 171.027 308.239 170.908 308.178 170.793C308.143 170.726 308.105 170.66 308.07 170.593C308.045 170.549 308.02 170.504 308.001 170.463C307.992 170.448 307.984 170.433 307.977 170.422C307.958 170.381 307.935 170.344 307.916 170.307C307.552 169.645 307.182 168.984 306.806 168.324C306.805 168.32 306.805 168.32 306.8 168.317C303.989 163.264 300.587 158.562 296.667 154.31C296.548 154.184 296.429 154.055 296.302 153.932C294.514 152.064 292.576 150.345 290.507 148.792C289.371 147.945 288.194 147.157 286.978 146.429C283.835 144.555 280.415 143.186 276.846 142.373C269.73 140.754 262.174 141.427 256.051 145.218C255.894 145.316 255.741 145.412 255.586 145.513Z" fill="#F5F5F5"/>
<path d="M255.683 145.723C264.799 145.123 273.872 147.408 281.614 152.252C283.299 153.266 284.814 154.538 286.103 156.023C287.311 157.51 288.099 159.292 288.384 161.186C288.686 162.946 288.79 164.782 289.515 166.438C289.899 167.281 290.456 168.033 291.151 168.645C291.846 169.257 292.663 169.715 293.547 169.99C295.734 170.732 298.057 170.645 300.325 170.48C302.844 170.298 305.458 170.069 307.859 171.029C308.149 171.145 308.313 170.687 308.023 170.571C303.846 168.901 299.33 170.695 295.032 169.878C293.026 169.496 291.124 168.509 290.151 166.642C289.301 165.009 289.192 163.116 288.902 161.331C288.65 159.48 287.949 157.718 286.859 156.2C285.65 154.654 284.187 153.326 282.532 152.271C278.844 149.836 274.796 147.996 270.536 146.818C265.681 145.446 260.628 144.914 255.593 145.245C255.282 145.266 255.373 145.743 255.683 145.723V145.723Z" fill="white"/>
<path d="M288.35 160.273C285.401 161.414 282.131 161.404 279.19 160.243C278.899 160.128 278.735 160.585 279.026 160.7C282.088 161.903 285.492 161.907 288.558 160.713C288.85 160.599 288.64 160.16 288.35 160.273V160.273Z" fill="white"/>
<path d="M265.768 146.085C265.635 146.681 265.356 147.235 264.956 147.697C264.556 148.158 264.047 148.513 263.475 148.73C263.182 148.84 263.392 149.279 263.683 149.169C264.314 148.927 264.875 148.534 265.318 148.025C265.761 147.516 266.073 146.906 266.226 146.249C266.246 146.188 266.241 146.122 266.214 146.064C266.187 146.007 266.138 145.962 266.079 145.938C266.018 145.917 265.952 145.92 265.893 145.948C265.835 145.975 265.79 146.025 265.768 146.085V146.085Z" fill="white"/>
<path d="M279.214 150.546C279.852 149.138 279.967 147.55 279.541 146.064C279.114 144.579 278.172 143.294 276.884 142.438C276.623 142.266 276.343 142.663 276.605 142.836C277.805 143.63 278.682 144.828 279.077 146.212C279.471 147.595 279.358 149.075 278.756 150.382C278.626 150.666 279.085 150.829 279.214 150.546L279.214 150.546Z" fill="white"/>
<path d="M48.4516 97.919C32.7765 82.5047 26.1561 66.4237 29.8094 52.6387C34.4977 34.9486 55.3255 22.7174 86.9524 19.0813L87.0692 20.096C55.8826 23.6813 35.3726 35.638 30.7978 52.9C27.2424 66.3155 33.7667 82.0452 49.1689 97.1915L48.4516 97.919Z" fill="#EEEEEE"/>
<path d="M83.908 153.062C45.467 136.031 15.8453 113.936 0.5 90.8462L1.35161 90.2812C16.5909 113.211 46.0571 135.176 84.3223 152.128L83.908 153.062Z" fill="#EEEEEE"/>
<path d="M17.9249 70.5662C25.2715 62.3382 36.9904 57.3234 47.6105 60.3253C37.8131 67.2513 30.7839 77.4157 27.7666 89.0203C26.6191 93.4999 25.8099 98.6017 22.0804 101.341C19.7598 103.045 16.685 103.452 13.8312 103.064C10.9773 102.676 8.27877 101.567 5.6167 100.468L4.90039 100.53C6.95984 89.6989 10.5783 78.7943 17.9249 70.5662Z" fill="#F5F5F5"/>
<path d="M47.5782 60.5545C38.6991 62.702 30.7232 67.5896 24.7832 74.5231C23.478 75.993 22.4128 77.6593 21.627 79.4606C20.9182 81.2399 20.6994 83.1764 20.9933 85.0688C21.2318 86.8388 21.681 88.6217 21.4846 90.4188C21.3704 91.3372 21.0632 92.2211 20.583 93.0126C20.1029 93.804 19.4607 94.4852 18.6985 95.0113C16.8336 96.3717 14.5906 96.9815 12.3763 97.5017C9.91782 98.0793 7.35505 98.6404 5.35099 100.272C5.10817 100.47 4.81519 100.082 5.05764 99.8848C8.54437 97.0453 13.3902 97.4099 17.2479 95.3474C19.048 94.385 20.5686 92.8748 20.9384 90.8027C21.2617 88.9906 20.8001 87.1517 20.5431 85.3616C20.2293 83.5197 20.3718 81.629 20.9581 79.8548C21.6496 78.0194 22.6487 76.3149 23.9127 74.8144C26.7043 71.3907 30.0175 68.4269 33.7309 66.0314C37.9537 63.2739 42.6176 61.2583 47.5208 60.0719C47.8243 59.9986 47.8797 60.4817 47.5782 60.5545H47.5782Z" fill="white"/>
<path d="M20.7546 84.1873C23.9097 84.3966 27.0278 83.4104 29.4872 81.4252C29.7307 81.2283 30.0238 81.6162 29.7806 81.8128C27.2174 83.8739 23.9704 84.8936 20.6877 84.6686C20.3748 84.6469 20.4434 84.1657 20.7546 84.1873Z" fill="white"/>
<path d="M62.6862 94.4824C62.4904 94.4769 62.2947 94.4714 62.0964 94.4692C59.4642 94.4089 56.8315 94.5624 54.2242 94.928C54.0221 94.9531 53.8177 94.9815 53.6168 95.0123C47.3446 95.9601 41.3031 98.0629 35.7994 101.214C33.6105 102.47 31.5204 103.89 29.5472 105.463C26.8222 107.635 24.0407 110.206 20.8506 111.319C20.519 111.439 20.1804 111.538 19.8366 111.616L5.03188 101.399C5.0099 101.359 4.98543 101.322 4.96328 101.282L4.35352 100.901C4.44961 100.812 4.55117 100.723 4.64727 100.635C4.70281 100.583 4.76165 100.534 4.81715 100.483C4.85521 100.449 4.89346 100.416 4.92589 100.383C4.93852 100.372 4.95132 100.361 4.96162 100.353C4.99407 100.321 5.02762 100.294 5.05771 100.265C5.62404 99.7636 6.19489 99.2653 6.77024 98.7701C6.77258 98.7667 6.77258 98.7667 6.77821 98.7656C11.1262 94.9505 15.9119 91.6641 21.035 88.9752C21.189 88.897 21.3451 88.8154 21.5058 88.7419C23.8187 87.5827 26.2225 86.6144 28.6933 85.8464C30.0476 85.4303 31.4221 85.0829 32.8115 84.8056C36.403 84.0959 40.0839 83.955 43.7193 84.388C50.9662 85.2522 57.8557 88.4219 62.3472 94.0491C62.462 94.1931 62.5737 94.335 62.6862 94.4824Z" fill="#F5F5F5"/>
<path d="M62.5226 94.6471C54.1388 91.0217 44.8246 90.1273 35.903 92.0908C33.9748 92.4795 32.1201 93.1693 30.407 94.1349C28.7686 95.1294 27.4267 96.544 26.5208 98.2317C25.6444 99.7884 24.9285 101.482 23.6885 102.799C23.0438 103.463 22.2658 103.984 21.4054 104.328C20.545 104.671 19.6217 104.828 18.696 104.79C16.387 104.755 14.2285 103.893 12.147 102.976C9.83592 101.959 7.45157 100.866 4.86773 100.963C4.55466 100.975 4.55456 100.489 4.86714 100.477C9.36255 100.307 13.0119 103.513 17.3352 104.186C19.3525 104.5 21.4769 104.209 23.021 102.777C24.3713 101.524 25.1111 99.7785 25.9848 98.1947C26.8444 96.5353 28.0977 95.1114 29.6352 94.0475C31.2936 92.9979 33.1187 92.2378 35.0323 91.7999C39.3248 90.7453 43.7565 90.3714 48.1653 90.692C53.1989 91.03 58.1376 92.2256 62.7677 94.2272C63.0542 94.3512 62.8073 94.7703 62.5226 94.6471H62.5226Z" fill="white"/>
<path d="M26.8606 97.384C29.2536 99.4487 32.3376 100.536 35.4979 100.431C35.811 100.42 35.8112 100.906 35.4985 100.917C32.2096 101.021 29.0025 99.882 26.517 97.728C26.2803 97.5226 26.6251 97.1797 26.8606 97.384Z" fill="white"/>
<path d="M243.783 99.7974C244.144 97.5705 242.631 95.4723 240.401 95.1109C238.172 94.7495 236.071 96.2619 235.71 98.4887C235.348 100.716 236.862 102.814 239.091 103.175C241.32 103.537 243.421 102.024 243.783 99.7974Z" fill="#EEEEEE"/>
<path d="M52.9041 91.6028C52.8288 92.2088 52.9054 92.8241 53.1269 93.3932C53.3485 93.9624 53.7081 94.4677 54.1734 94.8638C54.4127 95.0661 54.0676 95.4088 53.8299 95.2078C53.3178 94.7678 52.9213 94.2093 52.6751 93.581C52.4289 92.9527 52.3406 92.2737 52.4177 91.6034C52.4196 91.5396 52.4458 91.4789 52.491 91.4337C52.5361 91.3885 52.5967 91.3622 52.6606 91.3601C52.725 91.3604 52.7867 91.386 52.8323 91.4314C52.8779 91.4769 52.9037 91.5384 52.9041 91.6028H52.9041Z" fill="white"/>
<path d="M38.7387 91.2897C38.6121 89.7498 39.0376 88.215 39.9393 86.9595C40.8409 85.704 42.16 84.8096 43.6609 84.4359C43.9648 84.3613 44.0951 84.8296 43.7907 84.9043C42.3925 85.2497 41.1638 86.083 40.3266 87.2538C39.4894 88.4247 39.0987 89.8559 39.2251 91.2892C39.2522 91.6007 38.7656 91.5995 38.7387 91.2897Z" fill="white"/>
<path d="M38.063 63.9088C38.3682 64.438 38.8001 64.8832 39.3201 65.2044C39.84 65.5256 40.4317 65.7128 41.042 65.7492C41.355 65.7668 41.286 66.248 40.975 66.2305C40.301 66.1872 39.6478 65.9796 39.0725 65.626C38.4973 65.2724 38.0174 64.7834 37.675 64.2019C37.6381 64.1497 37.6225 64.0855 37.6313 64.0223C37.6401 63.9591 37.6727 63.9016 37.7224 63.8615C37.7739 63.823 37.8387 63.8063 37.9024 63.8152C37.9662 63.824 38.024 63.8577 38.0631 63.9088L38.063 63.9088Z" fill="white"/>
<path d="M26.5633 72.178C25.5341 71.0245 24.9488 69.5432 24.912 67.9985C24.8752 66.4538 25.3893 64.9463 26.3624 63.7452C26.5602 63.5029 26.9465 63.7985 26.7484 64.0411C25.8402 65.1579 25.3614 66.5621 25.3987 68.0005C25.4359 69.4389 25.9866 70.8166 26.9514 71.885C27.1607 72.1174 26.7715 72.4091 26.5633 72.178Z" fill="white"/>
<path d="M87.2573 59.4957C89.5157 59.4957 91.3466 57.6668 91.3466 55.4108C91.3466 53.1548 89.5157 51.3259 87.2573 51.3259C84.9988 51.3259 83.168 53.1548 83.168 55.4108C83.168 57.6668 84.9988 59.4957 87.2573 59.4957Z" fill="#FD6584"/>
<path d="M220.785 18.4652C214.431 16.3988 207.896 14.4748 201.361 12.7465C163.753 2.80107 126.784 -0.730079 94.4485 2.5368L94.3457 1.52056C126.801 -1.75702 163.897 1.78258 201.622 11.7592C208.176 13.4925 214.73 15.422 221.101 17.4943L220.785 18.4652Z" fill="#EEEEEE"/>
<path d="M196.76 19.9971C190.406 17.9307 183.871 16.0067 177.335 14.2784C139.727 4.33295 102.758 0.801796 70.4232 4.06865L70.3203 3.05242C102.776 -0.225159 139.872 3.31444 177.597 13.2911C184.151 15.0244 190.704 16.9538 197.076 19.0262L196.76 19.9971Z" fill="#EEEEEE"/>
<path d="M209.106 57.5102H207.939V25.5692C207.939 20.6663 205.989 15.9642 202.519 12.4973C199.048 9.03035 194.341 7.08265 189.433 7.08264H121.688C119.258 7.08263 116.851 7.5608 114.606 8.48983C112.361 9.41886 110.321 10.7806 108.602 12.4972C106.884 14.2138 105.52 16.2518 104.59 18.4947C103.66 20.7376 103.182 23.1415 103.182 25.5692V200.8C103.182 205.703 105.131 210.405 108.602 213.872C112.073 217.339 116.78 219.287 121.688 219.287H189.433C194.341 219.287 199.048 217.339 202.519 213.872C205.989 210.405 207.939 205.703 207.939 200.8V80.2463H209.106V57.5102Z" fill="#424242"/>
<path d="M204 25.6975V200.672C204 202.484 203.643 204.279 202.948 205.954C202.254 207.629 201.237 209.15 199.954 210.432C198.671 211.714 197.148 212.731 195.471 213.425C193.795 214.119 191.998 214.476 190.184 214.476H122.108C118.443 214.476 114.929 213.022 112.337 210.434C109.745 207.845 108.289 204.334 108.289 200.673V25.6975C108.289 23.8848 108.646 22.0898 109.341 20.415C110.035 18.7402 111.053 17.2184 112.336 15.9365C113.619 14.6547 115.142 13.6378 116.819 12.944C118.495 12.2502 120.292 11.893 122.107 11.8929H130.37C129.963 12.8888 129.808 13.9693 129.917 15.0392C130.027 16.1092 130.398 17.1358 130.999 18.0285C131.599 18.9213 132.411 19.6528 133.361 20.1586C134.311 20.6645 135.371 20.9291 136.448 20.9292H175.259C176.336 20.9284 177.396 20.6633 178.345 20.1573C179.295 19.6513 180.106 18.9198 180.706 18.0272C181.307 17.1347 181.678 16.1084 181.788 15.0388C181.898 13.9691 181.744 12.8888 181.337 11.8929H190.18C191.995 11.8929 193.792 12.2498 195.468 12.9434C197.145 13.6371 198.668 14.6538 199.952 15.9355C201.235 17.2173 202.253 18.7389 202.947 20.4136C203.642 22.0884 203.999 23.8833 203.999 25.6961L204 25.6975Z" fill="#F5F5F5"/>
<path d="M198.84 198.084H177.723V199.028H198.84V198.084Z" fill="white"/>
<path d="M166.703 198.084H145.586V199.028H166.703V198.084Z" fill="white"/>
<path d="M134.565 198.084H113.447V199.028H134.565V198.084Z" fill="white"/>
<path d="M202.835 213.051L196.413 213.051L193.357 188.305L202.836 188.305L202.835 213.051Z" fill="#FFB8B8"/>
<path d="M204.401 219.466H200.735L200.081 216.009L198.405 219.466H188.684C188.218 219.466 187.764 219.317 187.388 219.041C187.013 218.766 186.736 218.377 186.597 217.933C186.458 217.488 186.466 217.011 186.617 216.571C186.769 216.131 187.058 215.751 187.442 215.487L195.205 210.131V206.636L203.371 207.123L204.401 219.466Z" fill="#2A2B39"/>
<path d="M252.842 210.274L246.492 211.233L239.768 187.221L248.093 185.806L252.842 210.274Z" fill="#FFB8B8"/>
<path d="M253.866 219.466H250.2L249.546 216.009L247.87 219.466H238.148C237.682 219.466 237.229 219.317 236.853 219.041C236.478 218.766 236.201 218.377 236.062 217.933C235.923 217.488 235.93 217.011 236.082 216.571C236.234 216.131 236.523 215.751 236.907 215.487L244.67 210.131V206.636L252.836 207.123L253.866 219.466Z" fill="#2A2B39"/>
<path d="M189.251 166.204H120.413C119.944 166.204 119.495 166.018 119.164 165.687C118.833 165.356 118.646 164.908 118.646 164.44C118.646 163.972 118.833 163.523 119.164 163.192C119.495 162.861 119.944 162.675 120.413 162.675H189.251C189.719 162.675 190.168 162.861 190.5 163.192C190.831 163.523 191.017 163.972 191.017 164.44C191.017 164.908 190.831 165.356 190.5 165.687C190.168 166.018 189.719 166.204 189.251 166.204Z" fill="#E0E0E0"/>
<path d="M189.251 153.929H120.413C119.944 153.929 119.495 153.743 119.164 153.412C118.833 153.081 118.646 152.633 118.646 152.165C118.646 151.697 118.833 151.248 119.164 150.917C119.495 150.586 119.944 150.4 120.413 150.4H189.251C189.719 150.4 190.168 150.586 190.5 150.917C190.831 151.248 191.017 151.697 191.017 152.165C191.017 152.633 190.831 153.081 190.5 153.412C190.168 153.743 189.719 153.929 189.251 153.929Z" fill="#E0E0E0"/>
<path d="M189.251 141.654H120.413C120.181 141.654 119.951 141.608 119.737 141.52C119.523 141.431 119.328 141.301 119.164 141.137C119 140.974 118.87 140.779 118.781 140.565C118.692 140.351 118.646 140.122 118.646 139.89C118.646 139.658 118.692 139.429 118.781 139.215C118.87 139.001 119 138.806 119.164 138.642C119.328 138.478 119.523 138.348 119.737 138.26C119.951 138.171 120.181 138.125 120.413 138.125H189.251C189.483 138.125 189.712 138.171 189.927 138.26C190.141 138.348 190.336 138.478 190.5 138.642C190.664 138.806 190.794 139.001 190.882 139.215C190.971 139.429 191.017 139.658 191.017 139.89C191.017 140.122 190.971 140.351 190.882 140.565C190.794 140.779 190.664 140.974 190.5 141.137C190.336 141.301 190.141 141.431 189.927 141.52C189.712 141.608 189.483 141.654 189.251 141.654Z" fill="#E0E0E0"/>
<path d="M197.314 110.466L220.473 111.41L223.308 95.8297L203.458 89.6926L197.314 110.466Z" fill="#FFB8B8"/>
<path d="M221.418 106.688L199.204 102.911L198.414 104.538C194.163 113.302 191.653 122.807 191.023 132.525C190.486 140.729 190.171 149.394 190.16 158.477C190.144 172.551 190.863 185.609 192 197.491L204.191 197.415C203.839 184.8 204.318 172.174 205.626 159.622C206.56 150.671 207.857 142.309 209.357 134.594C212.14 145.921 216.068 156.935 221.08 167.468C225.341 176.468 234.104 186.871 238.364 195.871C242.73 195.348 247.095 194.825 251.461 194.301C248.021 185.213 241.883 171.941 238.443 162.853C233.524 149.859 231.302 141.047 226.383 128.053C226.663 125.61 226.718 123.147 226.546 120.694C226.317 116.606 225.466 111.7 222.977 108.429L221.418 106.688Z" fill="#2A2B39"/>
<path d="M105 77.5836H101.219V89.3864H105V77.5836Z" fill="#424242"/>
<path d="M156.143 117.485C173.822 117.485 188.153 103.169 188.153 85.5093C188.153 67.8497 173.822 53.5337 156.143 53.5337C138.464 53.5337 124.133 67.8497 124.133 85.5093C124.133 103.169 138.464 117.485 156.143 117.485Z" fill="#BDBDBD"/>
<path d="M156.144 116.098C172.273 116.098 185.347 103.037 185.347 86.9263C185.347 70.8154 172.273 57.7549 156.144 57.7549C140.016 57.7549 126.941 70.8154 126.941 86.9263C126.941 103.037 140.016 116.098 156.144 116.098Z" fill="#F9343A"/>
<path d="M153.594 98.3596C153.531 98.3596 153.467 98.3581 153.403 98.3551C152.843 98.3279 152.296 98.1801 151.798 97.9218C151.301 97.6635 150.865 97.3007 150.521 96.8584L145.918 90.9478C145.285 90.1334 145.002 89.1015 145.13 88.0785C145.258 87.0555 145.787 86.1249 146.601 85.491L146.765 85.3628C147.581 84.7306 148.614 84.4472 149.638 84.5748C150.663 84.7025 151.595 85.2306 152.23 86.0435C152.436 86.3091 152.698 86.5269 152.997 86.682C153.295 86.8371 153.624 86.9259 153.96 86.9421C154.297 86.9618 154.634 86.907 154.947 86.7816C155.26 86.6561 155.541 86.4632 155.771 86.2166L165.116 76.3624C165.827 75.6149 166.805 75.1795 167.837 75.1516C168.868 75.1237 169.869 75.5056 170.619 76.2136L170.771 76.3571C171.52 77.0669 171.956 78.0443 171.984 79.0751C172.012 80.1058 171.63 81.1055 170.921 81.8549L156.419 97.1453C156.056 97.5291 155.618 97.8347 155.132 98.0435C154.646 98.2523 154.123 98.3599 153.594 98.3596Z" fill="white"/>
<path opacity="0.16" d="M156.144 112.057C148.756 112.056 141.643 109.257 136.239 104.225C130.834 99.1923 127.541 92.3006 127.021 84.9386C126.974 85.6177 126.941 86.3009 126.941 86.992C126.941 94.7288 130.018 102.149 135.495 107.619C140.971 113.09 148.399 116.163 156.144 116.163C163.889 116.163 171.317 113.09 176.794 107.619C182.27 102.149 185.347 94.7288 185.347 86.992C185.347 86.3009 185.314 85.6177 185.267 84.9386C184.748 92.3006 181.454 99.1923 176.05 104.225C170.646 109.257 163.532 112.056 156.144 112.057Z" fill="#23252F"/>
<path d="M105 63.4202H101.219V75.223H105V63.4202Z" fill="#424242"/>
<path d="M206.067 76.7214L206.291 69.361L195.067 66.5501L174.86 60.6611C174.592 59.8507 174.085 59.1405 173.405 58.6245C172.724 58.1084 171.903 57.8108 171.05 57.7711C170.197 57.7313 169.351 57.9513 168.626 58.4018C167.9 58.8524 167.329 59.5123 166.987 60.2943C166.645 61.0764 166.549 61.9436 166.712 62.7814C166.874 63.6191 167.287 64.3879 167.896 64.986C168.506 65.5841 169.282 65.9833 170.124 66.1309C170.965 66.2785 171.831 66.1674 172.608 65.8124L192.253 73.8792L206.067 76.7214Z" fill="#FFB8B8"/>
<path d="M198.836 76.6698L205.15 67.6741L205.307 67.695C205.406 67.7081 215.308 69.0313 221.799 70.9623C222.529 71.1554 223.207 71.5051 223.788 71.9871C224.368 72.4691 224.836 73.0717 225.159 73.753C225.623 74.705 225.799 75.7717 225.664 76.8219C225.53 77.8722 225.091 78.8604 224.403 79.6652C223.701 80.5351 222.764 81.1851 221.703 81.5372C220.642 81.8894 219.502 81.9289 218.42 81.651L198.836 76.6698Z" fill="#F9343A"/>
<path d="M224.849 99.9148C225.959 101.986 223.324 106.277 221.418 106.688L199.451 99.5955L210.512 67.5796L216.077 68.5899L224.976 70.0878L228.133 72.9542C228.928 73.6768 229.496 74.6144 229.768 75.6532C230.04 76.692 230.004 77.7873 229.664 78.806L224.849 99.9148Z" fill="#F9343A"/>
<path d="M209.729 87.5419L203.515 83.5804L195.35 91.7712L179.938 106.094C179.105 105.908 178.234 105.98 177.442 106.299C176.65 106.619 175.974 107.171 175.502 107.883C175.031 108.595 174.788 109.432 174.803 110.286C174.819 111.139 175.094 111.967 175.592 112.661C176.089 113.354 176.786 113.881 177.589 114.171C178.393 114.46 179.265 114.5 180.091 114.283C180.918 114.067 181.659 113.605 182.217 112.958C182.774 112.312 183.122 111.512 183.215 110.663L200.211 97.9385L209.729 87.5419Z" fill="#FFB8B8"/>
<path d="M205.98 93.7208L201.479 83.697L201.577 83.5725C201.639 83.4943 207.847 75.676 212.832 71.0953C213.371 70.5683 214.019 70.1651 214.731 69.914C215.443 69.6629 216.201 69.5699 216.952 69.6414C218.008 69.7313 219.015 70.127 219.849 70.7802C220.683 71.4333 221.308 72.3154 221.648 73.3183C222.037 74.3652 222.116 75.502 221.876 76.5925C221.635 77.6831 221.085 78.6815 220.292 79.4682L205.98 93.7208Z" fill="#F9343A"/>
<path d="M219.982 65.4401C225.378 65.4401 229.752 61.0708 229.752 55.6811C229.752 50.2914 225.378 45.9221 219.982 45.9221C214.587 45.9221 210.213 50.2914 210.213 55.6811C210.213 61.0708 214.587 65.4401 219.982 65.4401Z" fill="#FFB8B8"/>
<path d="M227.872 69.8223L227.835 69.8129L213.638 66.2658C213.146 66.1429 212.69 65.9066 212.306 65.5757C211.922 65.2449 211.621 64.8287 211.427 64.3607C211.233 63.8926 211.151 63.3857 211.189 62.8805C211.226 62.3754 211.382 61.886 211.643 61.4518L212.112 60.6724C212.57 59.9113 212.83 59.0478 212.868 58.1606C212.906 57.2735 212.721 56.3909 212.33 55.5935C211.657 54.2912 210.501 53.3041 209.108 52.8443L209.061 52.8217L208.763 52.6363C208.47 52.4982 208.209 52.3004 207.997 52.0556C207.785 51.8108 207.626 51.5245 207.531 51.2149C207.433 50.8942 207.403 50.5564 207.443 50.2233C207.484 49.8903 207.594 49.5694 207.766 49.2815C209.019 47.1874 210.895 45.5356 213.132 44.556C215.958 43.3407 219.142 43.2451 222.036 44.2889C222.229 44.1119 222.462 43.9855 222.716 43.9211C222.97 43.8567 223.236 43.8562 223.49 43.9198C230.842 45.6985 231.447 50.6282 229.995 58.5417L231.714 65.4682C231.835 65.9573 231.849 66.4669 231.753 66.9617C231.658 67.4565 231.455 67.9245 231.16 68.3333C230.866 68.7421 230.485 69.0819 230.045 69.3289C229.606 69.576 229.117 69.7245 228.615 69.764L227.872 69.8223ZM221.957 44.3668L221.956 44.3677L221.957 44.3668ZM222.134 44.3235L222.136 44.3239L222.134 44.3235Z" fill="#2A2B39"/>
<path d="M105 40.7588H101.219V61.0596H105V40.7588Z" fill="#424242"/>
<path d="M198.84 28.5956H177.723V29.5398H198.84V28.5956Z" fill="white"/>
<path d="M166.703 28.5956H145.586V29.5398H166.703V28.5956Z" fill="white"/>
<path d="M134.565 28.5956H113.447V29.5398H134.565V28.5956Z" fill="white"/>
<path d="M137.609 16.6812C138.653 16.6812 139.5 15.8357 139.5 14.7927C139.5 13.7498 138.653 12.9043 137.609 12.9043C136.565 12.9043 135.719 13.7498 135.719 14.7927C135.719 15.8357 136.565 16.6812 137.609 16.6812Z" fill="white"/>
<path d="M87.0893 13.5266C89.3478 13.5266 91.1786 11.6977 91.1786 9.4417C91.1786 7.18568 89.3478 5.35681 87.0893 5.35681C84.8308 5.35681 83 7.18568 83 9.4417C83 11.6977 84.8308 13.5266 87.0893 13.5266Z" fill="#EEEEEE"/>
</g>
<defs>
<clipPath id="clip0_1062_24189">
<rect width="309" height="220" fill="white" transform="translate(0.5 0.333374)"/>
</clipPath>
</defs>
</svg>
