<svg width="186" height="181" viewBox="0 0 186 181" fill="none" xmlns="http://www.w3.org/2000/svg">
<circle cx="95.5" cy="91" r="70.5" fill="url(#paint0_linear_1805_9442)"/>
<circle cx="178.467" cy="28" r="7.5" fill="#E86E76"/>
<circle cx="20.0332" cy="10.5" r="10" fill="#E86E76"/>
<circle cx="10.0332" cy="133.5" r="5" fill="#E86E76"/>
<circle cx="165.533" cy="161" r="2.5" fill="#E86E76"/>
<path fill-rule="evenodd" clip-rule="evenodd" d="M84.8548 66.4174H106.169C114.502 66.4174 120.083 72.2682 120.083 80.9707V101.058C120.083 109.733 114.502 115.584 106.169 115.584H84.8548C76.521 115.584 70.916 109.733 70.916 101.058V80.9707C70.916 72.2682 76.521 66.4174 84.8548 66.4174ZM94.098 98.3511L105.775 86.674C106.611 85.8382 106.611 84.4861 105.775 83.6257C104.939 82.7898 103.563 82.7898 102.727 83.6257L92.5738 93.7786L88.2717 89.4765C87.4359 88.6407 86.0592 88.6407 85.2234 89.4765C84.3875 90.3123 84.3875 91.6644 85.2234 92.5248L91.0742 98.3511C91.4921 98.769 92.033 98.9657 92.5738 98.9657C93.1392 98.9657 93.68 98.769 94.098 98.3511Z" fill="white"/>
<circle cx="106.533" cy="5" r="2.5" fill="#E86E76"/>
<circle cx="62.5332" cy="177" r="3.5" fill="#E86E76"/>
<circle cx="122.033" cy="171.5" r="1" fill="#E86E76"/>
<circle cx="170.533" cy="111" r="2.5" fill="#E86E76"/>
<circle cx="1.0332" cy="75.5" r="1" fill="#E86E76"/>
<defs>
<linearGradient id="paint0_linear_1805_9442" x1="166" y1="161.5" x2="-1.77734" y2="112.855" gradientUnits="userSpaceOnUse">
<stop stop-color="#FF4D67"/>
<stop offset="1" stop-color="#FF8A9B"/>
</linearGradient>
</defs>
</svg>
